<?xml version="1.0" encoding="UTF-8" standalone="no"?>
<!-- Created with Inkscape (http://www.inkscape.org/) -->

<svg
   xmlns:dc="http://purl.org/dc/elements/1.1/"
   xmlns:cc="http://creativecommons.org/ns#"
   xmlns:rdf="http://www.w3.org/1999/02/22-rdf-syntax-ns#"
   xmlns:svg="http://www.w3.org/2000/svg"
   xmlns="http://www.w3.org/2000/svg"
   xmlns:sodipodi="http://sodipodi.sourceforge.net/DTD/sodipodi-0.dtd"
   xmlns:inkscape="http://www.inkscape.org/namespaces/inkscape"
   width="210mm"
   height="297mm"
   viewBox="0 0 210 297"
   version="1.1"
   id="svg8"
   inkscape:version="0.92.4 (5da689c313, 2019-01-14)"
   sodipodi:docname="drawing.svg">
  <defs
     id="defs2" />
  <sodipodi:namedview
     id="base"
     pagecolor="#ffffff"
     bordercolor="#666666"
     borderopacity="1.0"
     inkscape:pageopacity="0.0"
     inkscape:pageshadow="2"
     inkscape:zoom="1.979899"
     inkscape:cx="470.28341"
     inkscape:cy="497.94211"
     inkscape:document-units="mm"
     inkscape:current-layer="layer1"
     showgrid="false"
     inkscape:window-width="1920"
     inkscape:window-height="1001"
     inkscape:window-x="-9"
     inkscape:window-y="-9"
     inkscape:window-maximized="1" />
  <metadata
     id="metadata5">
    <rdf:RDF>
      <cc:Work
         rdf:about="">
        <dc:format>image/svg+xml</dc:format>
        <dc:type
           rdf:resource="http://purl.org/dc/dcmitype/StillImage" />
        <dc:title />
      </cc:Work>
    </rdf:RDF>
  </metadata>
  <g
     inkscape:label="Layer 1"
     inkscape:groupmode="layer"
     id="layer1">
    <g
       id="g849"
       transform="matrix(1.1833139,0,0,1.1833139,-32.52197,-182.61784)">
      <path
         d="m 77.8,375.6 3.3,-1.2 1.8,4 c 0,0 2.1,-0.3 4,-0.6 0.6,-1.7 1.7,-4 1.7,-4 l 2.8,1 -1,4.2 c 0,0 1.9,0.7 3,2.3 2.1,-0.8 4.1,-1.8 4.1,-1.8 l 2,2.8 -3.8,2.8 c 0,0 1.3,1.3 0.7,3.8 3,0.3 4.7,1 4.7,1 l -0.3,3 -4.7,-0.1 c 0,0 -0.5,3 -1.9,3.2 1.4,1.8 3,3.7 3,3.7 l -2.3,2.6 -3.3,-3.4 c 0,0 -1.3,1.6 -3.7,1.3 -0.1,2.5 0.1,4.9 0.1,4.9 l -3.7,0.2 -0.3,-4.9 c 0,0 -2.3,0.1 -3.7,-1.5 -1.6,2.3 -3,3.8 -3,3.8 l -2.6,-2.1 2.3,-3.3 c 0,0 -2,-2.2 -1.8,-3.5 -2.6,0.3 -4.8,0.6 -4.8,0.6 l -0.7,-3.3 4.7,-1.1 c 0,0 -0.8,-1.7 0.1,-3.9 -1.7,-1.1 -3.6,-2.7 -3.6,-2.7 l 1.5,-2.8 4.1,1.6 c 0,0 1.8,-2.2 2.9,-2.2 -0.4,-1.3 -1.6,-4.4 -1.6,-4.4 z m 9.6,5.7 c -1.5,-0.9 -4.9,2.3 -1.4,4.4 3.4,0.8 3.7,-3.9 1.4,-4.4 z"
         class="st0"
         id="three"
         inkscape:connector-curvature="0"
         style="fill:#4d4d4d;stroke:#000000"
         sodipodi:nodetypes="cccccccccccccccccccccccccccccccccccccccc" />
      <path
         id="path818"
         d="m 142.9,371.9 -4.6,-1.2 c 0,0 0.5,-2.6 0.2,-4.1 2.1,-0.7 3.4,-1.1 4.2,-1.3 l -0.3,-3.7 -4.8,0.4 c 0,0 -0.4,-2 -1.4,-3.6 2.2,-1.7 3.6,-3.1 3.6,-3.1 l -2.6,-3.3 -3.7,2.6 c 0,0 -1.7,-2.7 -2.9,-3.3 1.1,-2.1 1.9,-4 1.9,-4 l -3,-1.9 -3,3.5 c 0,0 -1,-0.4 -3.6,-1.1 -0.2,-1.5 -0.3,-5.2 -0.3,-5.2 l -3.5,-0.5 -1.1,4.7 c 0,0 -1.8,-0.1 -4.2,0.6 -0.8,-2 -2,-4.7 -2,-4.7 l -3.3,1.1 0.9,4.5 c 0,0 -2.9,1.8 -4,2.3 -1.3,-1.1 -3,-3.4 -3,-3.4 l -3.1,2.5 2.7,3.8 -2.4,3.3 -4.2,-1.3 -1.6,3.2 3.7,2.4 c 0,0 -0.5,1.1 -0.7,3.5 -2.6,0.5 -5,0.5 -5,0.5 l 0.2,4.4 h 4.2 c 0,0 0.4,2.9 1.3,4.1 -2.3,1.3 -4.2,2.3 -4.2,2.3 l 1.2,3.5 4.5,-1.3 c 0,0 1.1,2.3 2.3,3.2 -1.4,2 -2.6,3.7 -2.6,3.7 l 2.6,2.6 3.9,-3.1 c 0,0 1.3,1.8 2.8,1.9 -0.3,1.8 -1.1,4.9 -1.1,4.9 l 3.7,1.4 2.2,-4 c 0,0 2.1,1.1 3.5,0.2 0.7,2.3 0.7,4.6 0.7,4.6 l 4,0.2 0.5,-5.5 c 0,0 1.5,0.7 4.1,-0.5 l 2.4,3.9 3.4,-1.8 c 0,0 -0.6,-1.4 -1.8,-4.7 2.6,-1.3 3.1,-2.1 3.1,-2.1 l 4,2.3 1.8,-2.8 c 0,0 0.3,-0.6 -3.2,-3.8 1.8,-2.3 1.6,-3.6 1.6,-3.6 l 4.8,0.4 z m -11.3,-12.4 c -2.1,5.4 -7.6,5.4 -7.6,5.4 0,0 -1.6,-4.3 -6.2,-3.9 -3.7,-7.6 -5.4,-8.5 -5.4,-8.5 0,0 10.2,-5.2 19.2,7 z m -14.2,10.2 c -2,0 -2,-3.1 0,-3.1 2,0 2,3.1 0,3.1 z m -16,2.4 c 0,0 -4.7,-10.5 7.9,-18.9 5.3,2.3 5,7.9 5,7.9 0,0 -4.4,1.4 -4.3,6 -7.6,3.4 -8.6,5 -8.6,5 z m 1,3.5 c 2.5,-5.2 8,-4.8 8,-4.8 0,0 1.3,4.4 5.9,4.4 3.1,7.9 4.7,8.9 4.7,8.9 0,0 -10.6,4.4 -18.6,-8.5 z m 22.9,7.2 c -5.4,-1 -5,-7.9 -5,-7.9 0,0 3.9,-1.5 4.4,-5.9 4.4,-1.9 9.1,-4.5 9.1,-4.5 0,0 3.3,11.2 -8.5,18.3 z"
         class="st0"
         inkscape:connector-curvature="0"
         style="fill:#4d4d4d;stroke:#000000" />
      <path
         id="path820"
         d="m 117.4,330.9 0.1,-4.1 c 0,0 -4.9,-0.3 -4.9,0 0.2,-2.1 -0.8,-4.6 -0.8,-4.6 l 4.3,-2.5 -2.3,-3.4 c 0,0 -4.3,2.6 -4.3,2.3 -0.5,-1.6 -3,-3.4 -3,-3.4 l 2.3,-4 -3.3,-2.3 c 0,0 -2.8,3.9 -2.8,4.1 -0.8,-0.8 -4.5,-1 -4.5,-1 v -5.2 H 94 c 0,0 0.3,5.1 -0.6,5 -0.8,-0.1 -3.7,1.1 -3.7,1.1 l -2.8,-4.1 -3.2,1.8 c 0,0 2.2,4.7 1.9,4.6 -1.6,0.6 -3.4,3 -3.4,3 L 77.8,316 76,318.9 c 0,0 3.6,3.3 3.9,3 -0.7,0.8 -1.5,4.2 -1.5,4.2 l -4.7,0.1 v 4.4 c 0,0 5.4,-0.3 5.3,0 -0.4,2 0.9,4.4 0.9,4.4 l -3.9,2.3 1.8,3.6 c 0,0 4.1,-2.8 4.2,-2.2 0.1,0.6 3.3,3.5 3.3,3.5 l -2.4,4.1 3.4,2.2 c 0,0 3.4,-4.5 3.2,-4.7 0.4,1 4.2,1.4 4.2,1.4 v 4.9 h 3.7 c 0,0 0,-4.8 0.3,-4.8 3.2,0.3 4.5,-0.9 4.5,-0.9 l 2.6,3.9 3.5,-1.8 c 0,0 -2.2,-4.5 -2.3,-4.2 1.6,-0.3 3.5,-3.5 3.5,-3.5 l 4,2.3 2,-3.2 c 0,0 -4,-2.8 -4,-3 0.9,-1.7 1.1,-4.2 1.1,-4.2 z m -21.6,10.9 c -6.9,2 -15.4,-9.7 -12.1,-10.3 2.8,-3.4 15.4,7.5 12.1,10.3 z m -0.2,-11.5 c -2.4,0 -2.4,-3.8 0,-3.8 2.4,0 2.4,3.8 0,3.8 z m 9,7.7 c -5.9,-2.1 -0.1,-17.8 2.5,-15.8 4.1,2 1.8,16 -2.5,15.8 z m -5.9,-21.2 c -1.3,7 -15.6,9.4 -14.7,6.1 -1.8,-4 13.6,-10.3 14.7,-6.1 z"
         class="st0"
         inkscape:connector-curvature="0"
         style="fill:#4d4d4d;stroke:#000000" />
      <path
         d="m 150.1,313.1 2.2,-2.4 3.5,2.9 c 0,0 1.6,-1 2.5,-0.8 0,0 1,-4.3 1,-4.3 l 3.3,0.2 -0.8,5.1 c 0,0 1,0.4 2.3,1.5 0.1,-0.2 3.9,-1.7 3.9,-1.7 l 1.4,3 -4.6,2.1 c 0,0 0,2 -0.3,2.3 -0.2,0.3 3.2,3.1 3.2,3.1 l -2.1,2.8 -3.6,-3.1 c 0,0 -1.2,0.8 -2.4,0.7 0,-0.1 -0.8,4.6 -0.8,4.6 l -3.4,-0.4 0.6,-4.7 c 0,0 -0.7,0 -1.8,-1.6 0,-0.2 -4.3,1.3 -4.3,1.3 l -1.1,-3.3 4.4,-1.4 c 0,0 -0.1,-2.3 0.2,-2.3 0.4,-0.2 -3.3,-3.6 -3.3,-3.6 z"
         class="st0"
         id="mine"
         inkscape:connector-curvature="0"
         style="fill:#4d4d4d;stroke:#000000" />
      <path
         d="m 110.6,268.8 2.3,-1.8 3.9,3.2 c 0,0 2.2,-1.7 3.4,-1.8 0.2,-0.2 -0.8,-5.2 -0.8,-5.2 l 3.8,-0.9 1.5,3.9 c 0,0 4.2,-0.3 4.8,-0.5 0.6,-0.2 0.6,-4.1 0.6,-4.1 h 4.2 l 0.7,4.8 3.7,0.8 2.4,-3.9 3.5,1.6 -0.9,4 3,2.3 3.8,-2.6 3.1,2.4 -2.9,3.8 2.3,3.2 4.5,-1.4 2.3,3.1 -3.9,3.2 0.9,4.2 4.7,-0.1 0.6,3.8 -4.4,0.9 -0.4,4.4 4.4,1.2 -0.3,4 -5,-0.3 -1.6,3.8 3.5,3.5 -2.4,3.5 -4,-2.5 -2.6,3.2 2,3.7 -2.9,2.9 -3.5,-3.5 -3.5,2.1 0.4,4.6 -3.4,1.3 -2.3,-4.4 -3.8,0.3 -1.2,5 -3.6,-0.1 -0.4,-4.8 -4.1,-1.3 -2.9,4.1 -2.9,-1.3 1.3,-4.5 -3.3,-2.3 -4.2,3.4 -2.9,-3 2.7,-3.5 -2.4,-4 -4.3,1.8 -1.6,-3.6 3.5,-3 -1.2,-3.5 -4.8,-0.3 -0.3,-3.5 4.4,-0.9 v -4.4 l -4,-2.2 0.4,-3.2 4.6,-0.2 1.8,-3.2 -3.3,-3.8 1.6,-2.8 4.4,1.6 3,-2.6 z"
         class="st0"
         id="ogears"
         inkscape:connector-curvature="0"
         style="fill:#ff6600;stroke:#000000"
         sodipodi:nodetypes="cccccccsccccccccccccccccccccccccccccccccccccccccccccccccccccccccccccccccc" />
      <path
         d="m 136.3,158.2 c 0,0 -9.3,-2.7 -18.5,2.5 -0.8,-1.3 -1.4,-3.1 -1.4,-3.1 0,0 -7.7,3.1 -11.4,14.8 -2.1,-0.9 -3.3,-1.8 -3.3,-1.8 0,0 -3.3,7 2.3,18.9 -1.7,0.7 -3.3,1.3 -3.3,1.3 0,0 2.7,7.6 14.8,11.4 -0.5,1.5 -1.5,3.2 -1.5,3.2 0,0 9.2,2.9 18.9,-2.2 0.8,1.3 1.3,3.2 1.3,3.2 0,0 8,-3.8 11,-14.8 2.5,0.9 3.8,1.4 3.8,1.4 0,0 2.1,-10.2 -2.7,-18.9 2.1,-0.7 3.5,-1.1 3.5,-1.1 0,0 -4.4,-8.8 -15.1,-11.4 0.4,-1.2 1.6,-3.4 1.6,-3.4 z m -3.8,21.9 c 0,0 8.4,-8.2 8.2,-10.6 2.9,1.4 4,10.7 4,10.7 0,0 -4.6,5.2 -12.2,2.6 z m -18.7,-13.9 c 0,0 3.2,-3.4 9.1,-4.1 5.3,3.8 3.4,12.2 3.4,12.2 l -2.8,0.5 c 0,0.1 -5.4,-6.6 -9.7,-8.6 z m -8,17.6 c 0,0 5,-5.7 12.4,-2.6 0.7,2.8 0,2.2 0,2.2 0,0 -8.3,8.6 -8.2,10.4 -2.8,-1.2 -4.2,-10 -4.2,-10 z m 13.7,2.3 2.3,2.1 c 0,0 -0.2,9.5 0.8,13.1 -3.3,0.8 -9.6,-4.1 -9.6,-4.1 -1.2,-6.2 6.5,-11.1 6.5,-11.1 z"
         class="st0"
         id="ninja"
         inkscape:connector-curvature="0"
         style="fill:#4d4d4d;stroke:#000000"
         sodipodi:nodetypes="ccccccccccccccccccccccccccccccccccccc" />
      <path
         id="path825"
         d="m 119.8,242 v -3.6 l -4.7,-0.9 -0.7,-4.6 3.7,-2.1 -1.4,-3.4 -3.8,1.5 -3.2,-3.4 2.5,-3.9 -2.5,-2.6 -3.5,3.1 -4,-1.8 0.6,-4.9 -3.5,-1.2 -1.7,4.6 -4.6,0.2 -1.5,-4.9 -3.6,0.8 0.1,5.3 -3.6,1.6 -3.5,-3.8 -2.7,2.6 2.1,3.5 -2.9,3.5 -4.3,-1.8 -1.8,3.6 3.4,2.4 -0.5,4.4 -4.7,0.1 -0.1,4.3 h 4.4 l 1.3,4.5 -3.9,2.8 1.1,3.4 4,-1.8 3,3.5 -2.5,4.4 2.5,2.2 3.5,-3.5 4.2,2.4 -0.8,5.1 3.8,0.7 1.5,-4.8 4.8,0.2 1.1,4.6 3.9,-0.7 -0.3,-5.2 4,-1.5 3.1,3.4 2.9,-2 -2.5,-3.8 3.2,-3.8 4.5,1.4 1.5,-2.9 -3.6,-2.6 0.9,-4.2 z M 94,221.1 c 8.5,0 8.5,13.2 0,13.2 -8.5,0 -8.5,-13.2 0,-13.2 z m 0.9,19.7 c -2.6,0 -2.6,-4.1 0,-4.1 2.6,0.1 2.6,4.1 0,4.1 z m -11.5,5.1 c -8.5,0 -8.5,-13.2 0,-13.2 8.5,0 8.5,13.2 0,13.2 z M 95.1,258 c -8.5,0 -8.5,-13.2 0,-13.2 8.6,0 8.5,13.2 0,13.2 z M 106,246.3 c -8.5,0 -8.5,-13.2 0,-13.2 8.5,0 8.5,13.2 0,13.2 z"
         class="st0"
         inkscape:connector-curvature="0"
         style="fill:#666666;stroke:#000000" />
      <path
         id="path827"
         d="m 143.9,248.2 4.7,-1.1 -0.7,-3.4 c 0,0 -2.6,0.2 -4.9,0.1 -0.5,-1.8 -1.9,-3 -1.9,-3 l 3,-4 -2.5,-2.3 c 0,0 -2.2,1.9 -3.8,3.4 -0.9,-0.7 -3.5,-1.3 -3.5,-1.3 l -0.3,-4.5 -3.4,-0.2 c 0,0 -0.2,3.7 -0.3,4.6 -1.2,0.2 -3.9,1.3 -3.9,1.3 l -2.9,-3.4 -2.7,2.1 c 0,0 1.3,2.2 2.4,3.7 -1.4,0.4 -2.2,3.6 -2.2,3.6 l -4.7,-0.2 -0.5,3.4 c 0,0 3.2,0.8 4.6,0.9 -0.7,1 0.2,4.1 0.2,4.1 l -3.7,2.5 1.7,3 c 0,0 2.2,-1.1 4.2,-1.8 0.2,1.2 3,2.8 3,2.8 l -1.3,4.2 3.2,1.4 c 0,0 1.2,-2.4 2.1,-4.4 1.1,0.5 4.3,-0.3 4.3,-0.3 l 1.8,4.4 3.4,-1.3 c 0,0 -0.7,-2.3 -1,-4.2 2.4,-1.5 2.8,-2.7 2.8,-2.7 l 4.2,2 2.1,-2.9 c 0,0 -2.6,-1.8 -4.1,-2.9 0.7,-0.1 0.6,-3.6 0.6,-3.6 z m -11.7,-1.7 c 2,0 2,3.1 0,3.1 -2,0 -2,-3.1 0,-3.1 z m -2.1,11.3 c 0,0 0.8,-2.6 1.8,-5.4 4.6,-0.1 6.2,-5.6 2.4,-8.1 0.9,-2.4 1.8,-5.3 1.8,-5.3 9.1,4.4 7.6,19.2 -6,18.8 z m 3.7,-19.8 c 0,0 -0.8,2.6 -1.9,5.4 -4.6,0 -6.3,5.5 -2.6,8 -1,2.4 -2,5.2 -2,5.2 -8.9,-4.5 -7,-19.3 6.5,-18.6 z"
         class="st0"
         inkscape:connector-curvature="0"
         style="fill:#666666;stroke:#000000" />
      <path
         d="m 105.1,208.4 c 0,0 1.4,-2.3 4.9,-1.7 0.8,-1.9 2.1,-4.2 2.1,-4.2 l 1.7,0.8 -2.1,4.1 c 0,0 2.5,1.8 1.9,4.6 2.9,1.5 4,2.5 4,2.5 l -0.6,1.5 -3.9,-2.1 c 0,0 -2,2.9 -5.1,1.4 -1.2,2.6 -2.2,4.3 -2.2,4.3 l -1.8,-0.8 2.2,-3.9 c 0,0 -2.4,-1.9 -1.9,-4.6 -1.7,-1.3 -3.7,-2.3 -3.7,-2.3 l 0.8,-1.8 z m 3.1,1.3 c -1.9,0.3 -1.2,4.1 1.5,2.9 2.5,-1.4 -0.6,-4.2 -1.5,-2.9 z"
         class="st0"
         id="plus"
         inkscape:connector-curvature="0"
         style="fill:#666666;stroke:#000000" />
      <path
         d="m 110.32014,286.21943 15.3,5.4 c 0,0 0.5,-0.1 0.8,1 0.2,1.2 -0.3,1.6 -0.3,1.6 l -15.3,5.8 c 0,0 -2.1,0.3 -2.5,-1.8 -0.4,-2.1 -0.4,-9.6 -0.4,-9.6 0.9,-2.4 2.4,-2.4 2.4,-2.4 z m -0.1,-1.6 15.3,6.2 c 0,0 0.4,0.5 1.4,-0.3 1,-0.8 0.8,-1.6 0.8,-1.6 l -8.8,-14.5 c 0,0 -1.6,-0.9 -3.2,0.7 -1.6,1.6 -5.4,5.3 -5.6,6.5 -0.1,0.7 -0.4,1 0.1,3 z m 10.3,-10 7.8,13.7 c 0,0 0,0.5 0.8,0.5 0.8,0 1.8,-0.2 2,-0.9 0.2,-0.7 2.6,-15.7 2.6,-15.7 0,0 0.2,-2.4 -2.9,-2.6 -3.1,-0.2 -9.1,1.8 -9.1,1.8 0,0 -2.6,2.5 -1.2,3.2 z m 14.2,-2.4 -2.5,15.4 c 0,0 -0.4,1.1 0.3,1.4 0.8,0.3 1.5,1.1 2.4,0.1 0.9,-1.1 11.6,-10.3 11.6,-10.3 0,0 1.7,-1.3 -0.7,-3.4 -2.3,-2.1 -8.1,-4.5 -8.1,-4.5 0,0 -2.7,-0.6 -3,1.3 z m 12.3,7.5 -12.1,10.3 c 0,0 -0.3,0.8 -0.1,1.3 0.3,0.6 -0.2,1.1 1,1.1 1.1,0 16.2,-0.2 16.2,-0.2 0,0 2.1,-0.7 1.4,-3.2 -0.7,-2.6 -1.3,-6.7 -3.7,-8.5 -1.6,-1.7 -2.4,-0.9 -2.7,-0.8 z m 5.1,13.8 -15.9,-0.1 c 0,0 -1,0 -1.3,0.9 -0.2,0.8 -0.7,1.3 0.5,2.3 1.2,1 11.8,9.5 11.8,9.5 0,0 1.2,1.1 2.9,-0.3 1.6,-1.4 4.2,-9.5 3.6,-10.4 -0.7,-1.1 0.7,-1.4 -1.6,-1.9 z m -17.4,3.3 c 0,0 -0.7,-0.8 -1.6,0 -0.9,0.8 -1.2,0.2 -0.9,2 0.3,1.8 3,15.8 3,15.8 0,0 0.9,1.1 3.3,0.5 2.4,-0.6 6.8,-3.3 8,-5.1 1.2,-1.8 0.8,-2.5 -0.1,-3.3 -1.1,-0.8 -11.7,-9.9 -11.7,-9.9 z m -3.6,1.5 c 0,0 0.3,-1 -1,-0.9 -1.4,0 -1.3,-0.2 -1.8,1.3 -0.5,1.5 -7.4,12.6 -7.4,12.6 0,0 -1,1.9 1.3,2.9 2.3,1 5.9,2.3 9.6,1.8 3.7,-0.5 1.6,-4.3 1.6,-4.3 z m -3.5,-0.7 c 0,0 0.8,-0.6 -0.1,-1.8 -0.9,-1.2 -1,-1 -2.5,-0.4 -1.5,0.6 -14.1,5.5 -14.1,5.5 0,0 -1.6,0.7 -0.6,3.8 1,3.1 5.4,5.9 6.2,6.6 0.8,0.7 2.2,0.8 2.9,0 0.7,-0.8 8.2,-13.7 8.2,-13.7 z"
         class="st0"
         id="oslices"
         inkscape:connector-curvature="0"
         style="fill:#ff7f2a;stroke:#000000" />
    </g>
    <ellipse
       style="opacity:0.43000004;fill:#ffff00;fill-opacity:1;stroke-width:0.29566881"
       id="path861"
       cx="42.203659"
       cy="-200.21703"
       rx="28.562536"
       ry="29.091473"
       transform="rotate(131.44958)" />
  </g>
  <style
     id="style815"
     type="text/css">
	.st0{fill:none;stroke:#000000;}
</style>
</svg>
