<?xml version="1.0" encoding="UTF-8" standalone="no"?>
<!-- Created with Inkscape (http://www.inkscape.org/) -->

<svg
   xmlns:dc="http://purl.org/dc/elements/1.1/"
   xmlns:cc="http://creativecommons.org/ns#"
   xmlns:rdf="http://www.w3.org/1999/02/22-rdf-syntax-ns#"
   xmlns:svg="http://www.w3.org/2000/svg"
   xmlns="http://www.w3.org/2000/svg"
   xmlns:sodipodi="http://sodipodi.sourceforge.net/DTD/sodipodi-0.dtd"
   xmlns:inkscape="http://www.inkscape.org/namespaces/inkscape"
   width="259.20001mm"
   height="259.20001mm"
   viewBox="0 0 259.20001 259.20001"
   version="1.1"
   id="svg1395"
   inkscape:version="0.92.4 (5da689c313, 2019-01-14)"
   sodipodi:docname="four.svg">
  <defs
     id="defs1389" />
  <sodipodi:namedview
     id="base"
     pagecolor="#ffffff"
     bordercolor="#666666"
     borderopacity="1.0"
     inkscape:pageopacity="0.0"
     inkscape:pageshadow="2"
     inkscape:zoom="0.35"
     inkscape:cx="920"
     inkscape:cy="560"
     inkscape:document-units="mm"
     inkscape:current-layer="layer1"
     showgrid="false"
     inkscape:window-width="1920"
     inkscape:window-height="1001"
     inkscape:window-x="-9"
     inkscape:window-y="-9"
     inkscape:window-maximized="1" />
  <metadata
     id="metadata1392">
    <rdf:RDF>
      <cc:Work
         rdf:about="">
        <dc:format>image/svg+xml</dc:format>
        <dc:type
           rdf:resource="http://purl.org/dc/dcmitype/StillImage" />
        <dc:title></dc:title>
      </cc:Work>
    </rdf:RDF>
  </metadata>
  <g
     inkscape:label="Layer 1"
     inkscape:groupmode="layer"
     id="layer1"
     transform="translate(0,-37.8)">
    <path
       inkscape:connector-curvature="0"
       style="fill:#525249;stroke-width:1.00193453"
       id="four"
       class="st0"
       d="m 57.6,194.90613 c -23.599975,-7.62942 -30.499994,-36.23981 -12.899981,-52.20138 12.699968,-11.54454 32.499968,-10.94222 44.499968,1.20465 16.400013,16.56389 10.900003,44.9735 -13.8,51.49866 -5.699981,1.50583 -12,1.40544 -17.799987,-0.50193 z M 259.2,181.8558 v -18.57164 l -24.10001,-4.71824 -3.39998,-23.69137 18.99998,-10.84183 -7.3,-17.76857 -19.39998,7.83021 L 207.39999,96.727362 220.40001,76.348749 207.39999,62.896877 189.30002,78.958831 168.6,69.823581 l 3,-25.09681 -18.10001,-6.023238 -8.59997,23.791769 L 121.2,62.896877 113.4,37.800028 94.900006,41.715152 95.299994,69.02047 76.8,77.252253 58.699994,57.777106 l -13.8,13.45191 10.8,18.170068 L 41.000013,107.56919 19.000025,98.032404 9.9000189,116.60405 27.100006,129.15245 24.499994,152.14115 0.4000252,152.54268 0,174.62791 h 22.900006 l 6.900019,23.39024 -20.3000313,14.15459 5.6000123,17.26663 20.700019,-9.13525 15.499994,18.17011 -13.000025,22.9887 13.000025,11.24336 18.099968,-18.1701 21.6,12.5484 -4.299968,26.40185 19.399971,3.51359 7.8,-24.69528 24.6,0.90347 5.60002,23.79181 19.8,-3.51355 -1.7,-26.80343 20.69998,-7.83021 16.00003,17.76857 15.09997,-10.23954 -12.89998,-19.47511 16.3,-19.47514 23.3,7.32827 7.8,-15.15848 -18.6,-13.45191 4.69999,-21.68366 z m -128.50001,-45.877 c -50.500003,-6.02324 -30.19997,-67.96219 1.7,-63.645531 35.4,2.308902 46.60002,59.830801 -1.7,63.645531 z m 58.8,65.25175 c -50.5,-6.02324 -30.19997,-67.96223 1.7,-63.64557 35.4,2.30891 46.60002,59.83084 -1.7,63.64557 z M 126.6,260.25828 c -50.500006,-6.02324 -30.200013,-67.96223 1.69999,-63.64557 35.4,2.3089 46.60003,59.83084 -1.69999,63.64557 z m 2.79999,-84.82729 c -12.69997,-1.50579 -7.59999,-17.06582 0.40002,-15.96156 8.9,0.50193 11.69998,14.9577 -0.40002,15.96156 z" />
  </g>
</svg>
