<?xml version="1.0" encoding="UTF-8" standalone="no"?>
<!DOCTYPE svg PUBLIC "-//W3C//DTD SVG 20010904//EN"
              "http://www.w3.org/TR/2001/REC-SVG-20010904/DTD/svg10.dtd">

<svg xmlns="http://www.w3.org/2000/svg" width="3.7in" height="3.6in" viewBox="826 381.4599914550781 109.27001953125 109.27001953125">
  <path id="four" fill="none" stroke="black" stroke-width="1" d="M 890.73,382.00
           C 890.73,382.00 887.09,392.00 887.09,392.00
             887.09,392.00 877.09,392.18 877.09,392.18
             877.09,392.18 873.82,381.64 873.82,381.64
             873.82,381.64 866.00,383.27 866.00,383.27
             866.00,383.27 866.18,394.73 866.18,394.73
             866.18,394.73 858.36,398.18 858.36,398.18
             858.36,398.18 850.73,390.00 850.73,390.00
             850.73,390.00 844.91,395.64 844.91,395.64
             844.91,395.64 849.45,403.27 849.45,403.27
             849.45,403.27 843.27,410.91 843.27,410.91
             843.27,410.91 834.00,406.91 834.00,406.91
             834.00,406.91 830.18,414.73 830.18,414.73
             830.18,414.73 837.45,420.00 837.45,420.00
             837.45,420.00 836.36,429.64 836.36,429.64
             836.36,429.64 826.18,429.82 826.18,429.82
             826.18,429.82 826.00,439.09 826.00,439.09
             826.00,439.09 835.64,439.09 835.64,439.09
             835.64,439.09 838.55,448.91 838.55,448.91
             838.55,448.91 830.00,454.91 830.00,454.91
             830.00,454.91 832.36,462.18 832.36,462.18
             832.36,462.18 841.09,458.36 841.09,458.36
             841.09,458.36 847.64,466.00 847.64,466.00
             847.64,466.00 842.18,475.64 842.18,475.64
             842.18,475.64 847.64,480.36 847.64,480.36
             847.64,480.36 855.27,472.73 855.27,472.73
             855.27,472.73 864.36,478.00 864.36,478.00
             864.36,478.00 862.55,489.09 862.55,489.09
             862.55,489.09 870.73,490.55 870.73,490.55
             870.73,490.55 874.00,480.18 874.00,480.18
             874.00,480.18 884.36,480.55 884.36,480.55
             884.36,480.55 886.73,490.55 886.73,490.55
             886.73,490.55 895.09,489.09 895.09,489.09
             895.09,489.09 894.36,477.82 894.36,477.82
             894.36,477.82 903.09,474.55 903.09,474.55
             903.09,474.55 909.82,482.00 909.82,482.00
             909.82,482.00 916.18,477.64 916.18,477.64
             916.18,477.64 910.73,469.45 910.73,469.45
             910.73,469.45 917.64,461.27 917.64,461.27
             917.64,461.27 927.45,464.36 927.45,464.36
             927.45,464.36 930.73,458.00 930.73,458.00
             930.73,458.00 922.91,452.36 922.91,452.36
             922.91,452.36 924.91,443.27 924.91,443.27
             924.91,443.27 935.27,442.18 935.27,442.18
             935.27,442.18 935.27,434.36 935.27,434.36
             935.27,434.36 925.09,432.36 925.09,432.36
             925.09,432.36 923.64,422.36 923.64,422.36
             923.64,422.36 931.64,417.82 931.64,417.82
             931.64,417.82 928.55,410.36 928.55,410.36
             928.55,410.36 920.36,413.64 920.36,413.64
             920.36,413.64 913.45,406.36 913.45,406.36
             913.45,406.36 918.91,397.82 918.91,397.82
             918.91,397.82 913.45,392.18 913.45,392.18
             913.45,392.18 905.82,398.91 905.82,398.91
             905.82,398.91 897.09,395.09 897.09,395.09
             897.09,395.09 898.36,384.55 898.36,384.55
             898.36,384.55 890.73,382.00 890.73,382.00 Z
           M 881.82,396.18
           C 868.36,394.36 859.82,420.36 881.09,422.91
             901.45,421.27 896.73,397.09 881.82,396.18 Z
           M 908.00,423.45
           C 890.91,422.55 888.18,449.27 906.55,450.36
             925.09,449.27 923.09,425.27 908.00,423.45 Z
           M 879.82,449.09
           C 859.82,451.45 863.64,474.91 879.09,476.00
             893.82,476.18 900.73,453.09 879.82,449.09 Z
           M 854.00,448.36
           C 837.82,446.91 834.73,424.91 854.18,421.45
             872.73,424.91 871.45,447.64 854.00,448.36 Z
           M 880.73,432.36
           C 876.91,432.18 875.27,439.45 880.55,439.09
             886.00,439.64 884.18,431.64 880.73,432.36 Z"></path>
</svg>
