<?xml version="1.0" encoding="utf-8"?>
<!-- Generator: Adobe Illustrator 19.0.0, SVG Export Plug-In . SVG Version: 6.00 Build 0)  -->
<svg version="1.1" id="Layer_1" xmlns="http://www.w3.org/2000/svg" xmlns:xlink="http://www.w3.org/1999/xlink" x="0px" y="0px"
	 viewBox="-346 151.8 266.4 259.2" style="enable-background:new -346 151.8 266.4 259.2;" xml:space="preserve">
<!-- <style type="text/css">
	.st0{fill:#525249;}
</style> -->
<path id="four" class="st0" fill="#525249" d="M-284.8,308.8c-23.6-7.6-30.5-36.1-12.9-52c12.7-11.5,32.5-10.9,44.5,1.2
	c16.4,16.5,10.9,44.8-13.8,51.3C-272.7,310.8-279,310.7-284.8,308.8z M-83.2,295.8v-18.5l-24.1-4.7l-3.4-23.6l19-10.8l-7.3-17.7
	l-19.4,7.8L-135,211l13-20.3l-13-13.4l-18.1,16l-20.7-9.1l3-25l-18.1-6l-8.6,23.7l-23.7,0.4l-7.8-25l-18.5,3.9l0.4,27.2l-18.5,8.2
	l-18.1-19.4l-13.8,13.4l10.8,18.1l-14.7,18.1l-22-9.5l-9.1,18.5l17.2,12.5l-2.6,22.9l-24.1,0.4l-0.4,22h22.9l6.9,23.3l-20.3,14.1
	l5.6,17.2l20.7-9.1l15.5,18.1l-13,22.9l13,11.2l18.1-18.1l21.6,12.5l-4.3,26.3l19.4,3.5l7.8-24.6l24.6,0.9l5.6,23.7l19.8-3.5
	l-1.7-26.7l20.7-7.8l16,17.7l15.1-10.2l-12.9-19.4l16.3-19.4l23.3,7.3l7.8-15.1l-18.6-13.4l4.7-21.6L-83.2,295.8z M-211.7,250.1
	c-50.5-6-30.2-67.7,1.7-63.4C-174.6,189-163.4,246.3-211.7,250.1z M-152.9,315.1c-50.5-6-30.2-67.7,1.7-63.4
	C-115.8,254-104.6,311.3-152.9,315.1z M-215.8,373.9c-50.5-6-30.2-67.7,1.7-63.4C-178.7,312.8-167.5,370.1-215.8,373.9z M-213,289.4
	c-12.7-1.5-7.6-17,0.4-15.9C-203.7,274-200.9,288.4-213,289.4z"/>
</svg>
