<?xml version="1.0" encoding="UTF-8" standalone="no"?>
<!-- Generator: Adobe Illustrator 19.0.0, SVG Export Plug-In . SVG Version: 6.00 Build 0)  -->

<svg
   xmlns:dc="http://purl.org/dc/elements/1.1/"
   xmlns:cc="http://creativecommons.org/ns#"
   xmlns:rdf="http://www.w3.org/1999/02/22-rdf-syntax-ns#"
   xmlns:svg="http://www.w3.org/2000/svg"
   xmlns="http://www.w3.org/2000/svg"
   xmlns:sodipodi="http://sodipodi.sourceforge.net/DTD/sodipodi-0.dtd"
   xmlns:inkscape="http://www.inkscape.org/namespaces/inkscape"
   height="917"
   width="917"
   sodipodi:docname="kiwi.svg"
   xml:space="preserve"
   viewBox="0 0 917 917"
   y="0px"
   x="0px"
   id="Layer_1"
   version="1.1"
   inkscape:version="0.92.4 (5da689c313, 2019-01-14)"><metadata
   id="metadata57"><rdf:RDF><cc:Work
       rdf:about=""><dc:format>image/svg+xml</dc:format><dc:type
         rdf:resource="http://purl.org/dc/dcmitype/StillImage" /><dc:title /></cc:Work></rdf:RDF></metadata><defs
   id="defs55" /><sodipodi:namedview
   pagecolor="#ffffff"
   bordercolor="#666666"
   borderopacity="1"
   objecttolerance="10"
   gridtolerance="10"
   guidetolerance="10"
   inkscape:pageopacity="0"
   inkscape:pageshadow="2"
   inkscape:window-width="1920"
   inkscape:window-height="1001"
   id="namedview53"
   showgrid="false"
   fit-margin-top="0"
   fit-margin-left="0"
   fit-margin-right="0"
   fit-margin-bottom="0"
   inkscape:zoom="0.21071429"
   inkscape:cx="136.54109"
   inkscape:cy="514.30454"
   inkscape:window-x="-9"
   inkscape:window-y="-9"
   inkscape:window-maximized="1"
   inkscape:current-layer="XMLID_1326_" />
<g
   id="XMLID_1326_"
   transform="scale(3.275)">
	<path
   style="fill:#804c09"
   d="M 280,140 A 140,140 0 0 1 140,280 140,140 0 0 1 0,140 140,140 0 0 1 140,0 140,140 0 0 1 280,140 Z"
   id="XMLID_1327_" />
	<path
   id="XMLID_1328_"
   style="fill:#402604"
   d="M 140,280 C 62.68,280 0,217.32 0,140 0,62.681 62.68,0 140,0"
   inkscape:connector-curvature="0" />
	<path
   style="fill:#91dc5a"
   d="M 260,140 A 120,120 0 0 1 140,260 120,120 0 0 1 20,140 120,120 0 0 1 140,20 120,120 0 0 1 260,140 Z"
   id="XMLID_1329_" />
	<path
   id="XMLID_1330_"
   style="fill:#64c37d"
   d="M 140,260 C 73.726,260 19.999,206.275 19.999,140 19.999,73.726 73.726,20 140,20"
   inkscape:connector-curvature="0" />
	<path
   id="XMLID_1331_"
   style="fill:#c2fb3b"
   d="m 210,120 h -21.716 l 15.355,-15.355 c 7.813,-7.812 7.811,-20.473 0,-28.283 -7.809,-7.811 -20.473,-7.813 -28.283,-0.002 L 160,91.715 V 70 c 0,-11.046 -8.954,-20 -20,-20 -11.046,0 -20,8.954 -20,20 V 91.715 L 104.644,76.36 c -7.81,-7.811 -20.474,-7.811 -28.284,0 -7.811,7.811 -7.811,20.474 0,28.284 L 91.715,120 H 70 c -11.046,0 -20,8.954 -20,20 0,11.045 8.953,20 20,20 H 91.715 L 76.36,175.355 c -7.811,7.811 -7.811,20.473 0.001,28.284 7.81,7.81 20.474,7.812 28.284,0 L 120,188.284 V 210 c 0,11.047 8.953,20 20,20 11.045,0 20,-8.953 20,-20 v -21.717 l 15.355,15.355 c 7.811,7.813 20.473,7.811 28.283,0 7.811,-7.81 7.813,-20.473 0,-28.283 L 188.283,160 209.999,159.999 C 221.047,160 229.999,151.046 229.998,140 230,128.955 221.047,120 210,120 Z"
   inkscape:connector-curvature="0" />
	<path
   id="XMLID_1332_"
   style="fill:#91dc5a"
   d="m 140,50 c -11.046,0 -20,8.954 -20,20 V 91.715 L 104.644,76.36 c -7.81,-7.811 -20.474,-7.811 -28.284,0 -7.811,7.811 -7.811,20.474 0,28.284 L 91.715,120 H 70 c -11.046,0 -20,8.954 -20,20 0,11.045 8.953,20 20,20 H 91.715 L 76.36,175.355 c -7.811,7.811 -7.811,20.473 0.001,28.284 7.81,7.81 20.474,7.812 28.284,0 L 120,188.284 V 210 c 0,11.047 8.953,20 20,20 0,-41 0,-117.5 0,-180 z"
   inkscape:connector-curvature="0" />
	<g
   id="XMLID_1333_">
		<path
   style="fill:#804c09"
   d="M 150,80 A 10,10 0 0 1 140,90 10,10 0 0 1 130,80 10,10 0 0 1 140,70 10,10 0 0 1 150,80 Z"
   id="XMLID_1334_" />
		<path
   style=""
   d="M 107.573,97.572998 A 10,10 0 0 1 97.572998,107.573 a 10,10 0 0 1 -10,-10.000002 10,10 0 0 1 10,-10 10,10 0 0 1 10.000002,10 z"
   id="XMLID_26_" />
		<path
   style=""
   d="m 89.999001,140 a 10,10 0 0 1 -10,10 10,10 0 0 1 -10,-10 10,10 0 0 1 10,-10 10,10 0 0 1 10,10 z"
   id="XMLID_25_" />
		<path
   style=""
   d="m 107.573,182.427 a 10,10 0 0 1 -10.000002,10 10,10 0 0 1 -10,-10 10,10 0 0 1 10,-10 10,10 0 0 1 10.000002,10 z"
   id="XMLID_24_" />
		<path
   style="fill:#804c09"
   d="m 150,200 a 10,10 0 0 1 -10,10 10,10 0 0 1 -10,-10 10,10 0 0 1 10,-10 10,10 0 0 1 10,10 z"
   id="XMLID_23_" />
		<path
   id="XMLID_22_"
   d="m 140,210 c -5.523,0 -10,-4.475 -10,-10 0,-5.523 4.476,-10 10,-10"
   inkscape:connector-curvature="0" />
		<path
   style="fill:#804c09"
   d="m 192.427,182.42599 a 10,10 0 0 1 -10,10 10,10 0 0 1 -10,-10 10,10 0 0 1 10,-10 10,10 0 0 1 10,10 z"
   id="XMLID_21_" />
		<path
   style="fill:#804c09"
   d="m 210,140 a 10,10 0 0 1 -10,10 10,10 0 0 1 -10,-10 10,10 0 0 1 10,-10 10,10 0 0 1 10,10 z"
   id="XMLID_20_" />
		<path
   style="fill:#804c09"
   d="m 192.42599,97.572998 a 10,10 0 0 1 -10,10.000002 10,10 0 0 1 -10,-10.000002 10,10 0 0 1 10,-10 10,10 0 0 1 10,10 z"
   id="XMLID_19_" />
		<path
   id="XMLID_1335_"
   d="m 140,90 c -5.523,0 -10,-4.477 -10,-10 0,-5.523 4.477,-10 10,-10"
   inkscape:connector-curvature="0" />
	</g>
	<path
   style="fill:#fff6d2"
   d="m 180,140 a 40,40 0 0 1 -40,40 40,40 0 0 1 -40,-40 40,40 0 0 1 40,-40 40,40 0 0 1 40,40 z"
   id="XMLID_1336_" />
	<path
   id="XMLID_1337_"
   style="fill:#ffe98f"
   d="m 140,180 c -22.092,0 -40,-17.91 -40,-40 0,-22.092 17.908,-40 40,-40"
   inkscape:connector-curvature="0" />
</g>
<g
   id="g22"
   transform="translate(0,637)">
</g>
<g
   id="g24"
   transform="translate(0,637)">
</g>
<g
   id="g26"
   transform="translate(0,637)">
</g>
<g
   id="g28"
   transform="translate(0,637)">
</g>
<g
   id="g30"
   transform="translate(0,637)">
</g>
<g
   id="g32"
   transform="translate(0,637)">
</g>
<g
   id="g34"
   transform="translate(0,637)">
</g>
<g
   id="g36"
   transform="translate(0,637)">
</g>
<g
   id="g38"
   transform="translate(0,637)">
</g>
<g
   id="g40"
   transform="translate(0,637)">
</g>
<g
   id="g42"
   transform="translate(0,637)">
</g>
<g
   id="g44"
   transform="translate(0,637)">
</g>
<g
   id="g46"
   transform="translate(0,637)">
</g>
<g
   id="g48"
   transform="translate(0,637)">
</g>
<g
   id="g50"
   transform="translate(0,637)">
</g>
</svg>