<svg xmlns="http://www.w3.org/2000/svg" width="917" height="917">
    <g transform="scale(3.275)">
        <circle cx="140" cy="140" r="140" fill="#804c09"/>
        <path fill="#402604" d="M140 280C62.68 280 0 217.32 0 140 0 62.681 62.68 0 140 0"/>
        <circle cx="140" cy="140" r="120" fill="#91dc5a"/>
        <path fill="#64c37d" d="M140 260c-66.274 0-120.001-53.725-120.001-120C19.999 73.726 73.726 20 140 20"/>
        <path fill="#c2fb3b" d="M210 120h-21.716l15.355-15.355c7.813-7.812 7.811-20.473 0-28.283-7.809-7.811-20.473-7.813-28.283-.002L160 91.715V70c0-11.046-8.954-20-20-20s-20 8.954-20 20v21.715L104.644 76.36c-7.81-7.811-20.474-7.811-28.284 0-7.811 7.811-7.811 20.474 0 28.284L91.715 120H70c-11.046 0-20 8.954-20 20 0 11.045 8.953 20 20 20h21.715L76.36 175.355c-7.811 7.811-7.811 20.473.001 28.284 7.81 7.81 20.474 7.812 28.284 0L120 188.284V210c0 11.047 8.953 20 20 20 11.045 0 20-8.953 20-20v-21.717l15.355 15.355c7.811 7.813 20.473 7.811 28.283 0 7.811-7.81 7.813-20.473 0-28.283L188.283 160l21.716-.001c11.048.001 20-8.953 19.999-19.999.002-11.045-8.951-20-19.998-20z"/>
        <path fill="#91dc5a" d="M140 50c-11.046 0-20 8.954-20 20v21.715L104.644 76.36c-7.81-7.811-20.474-7.811-28.284 0-7.811 7.811-7.811 20.474 0 28.284L91.715 120H70c-11.046 0-20 8.954-20 20 0 11.045 8.953 20 20 20h21.715L76.36 175.355c-7.811 7.811-7.811 20.473.001 28.284 7.81 7.81 20.474 7.812 28.284 0L120 188.284V210c0 11.047 8.953 20 20 20V50z"/>
        <circle cx="140" cy="80" r="10" fill="#804c09"/>
        <circle cx="97.572998" cy="97.572998" r="10"/>
        <circle cx="79.999001" cy="140" r="10"/>
        <circle cx="97.572998" cy="182.427" r="10"/>
        <circle cx="140" cy="200" r="10" fill="#804c09"/>
        <path d="M140 210c-5.523 0-10-4.475-10-10 0-5.523 4.476-10 10-10"/>
        <circle cx="182.427" cy="182.42599" r="10" fill="#804c09"/>
        <circle cx="200" cy="140" r="10" fill="#804c09"/>
        <circle cx="182.42599" cy="97.572998" r="10" fill="#804c09"/>
        <path d="M140 90c-5.523 0-10-4.477-10-10s4.477-10 10-10"/>
        <circle cx="140" cy="140" r="40" fill="#fff6d2"/>
        <path fill="#ffe98f" d="M140 180c-22.092 0-40-17.91-40-40 0-22.092 17.908-40 40-40"/>
    </g>
</svg>
