<?xml version="1.0" encoding="utf-8"?>
<!-- Generator: Adobe Illustrator 19.0.0, SVG Export Plug-In . SVG Version: 6.00 Build 0)  -->
<svg version="1.1" id="Layer_1" xmlns="http://www.w3.org/2000/svg" xmlns:xlink="http://www.w3.org/1999/xlink" x="0px" y="0px"
	 viewBox="-349 147.6 259.2 266.4" style="enable-background:new -349 147.6 259.2 266.4;" xml:space="preserve">
<!-- <style type="text/css">
	.st0{fill:#525249;}
</style> -->
<path id="mine" class="st0" fill="#525249" d="M-333.6,209.4l27.5-30.7l44.4,37c0,0,20.7-12.2,31.8-9.5c0-0.5,12.7-54.5,12.7-54.5l41.3,2.7
	l-10.6,64c0,0,12.7,4.8,29.6,18.5c1-2.6,49.7-21.2,49.7-21.2l17.5,37.6l-57.7,25.9c0,0,0,25.4-3.2,29.1
	c-3.1,3.7,40.7,39.2,40.7,39.2l-25.9,35.4l-46-39.7c0,0-15.4,10.1-30.7,9c-0.5-1-10.6,57.7-10.6,57.7l-42.8-5.3l7.4-59.2
	c0,0-9-0.5-22.2-20.7c-0.5-2.6-54.5,15.9-54.5,15.9l-13.8-41.3l55-18c0,0-1-28.6,3.1-29.1C-286.6,251.7-333.6,209.4-333.6,209.4z"/>
</svg>
