<?xml version="1.0" encoding="UTF-8" standalone="no"?>
<!DOCTYPE svg PUBLIC "-//W3C//DTD SVG 20010904//EN"
              "http://www.w3.org/TR/2001/REC-SVG-20010904/DTD/svg10.dtd">

<svg xmlns="http://www.w3.org/2000/svg" width="3.6in" height="3.7in" viewBox="998.27001953125 586.27001953125 44.5499267578125 44.5499267578125">
    <path id="mine" fill="none" stroke="black" stroke-width="1" d="M 1000.91,596.27            C 1000.91,596.27 1005.64,591.00 1005.64,591.00              1005.64,591.00 1013.27,597.36 1013.27,597.36              1013.27,597.36 1016.82,595.27 1018.73,595.73              1018.73,595.64 1020.91,586.36 1020.91,586.36              1020.91,586.36 1028.00,586.82 1028.00,586.82              1028.00,586.82 1026.18,597.82 1026.18,597.82              1026.18,597.82 1028.36,598.64 1031.27,601.00              1031.45,600.55 1039.82,597.36 1039.82,597.36              1039.82,597.36 1042.82,603.82 1042.82,603.82              1042.82,603.82 1032.91,608.27 1032.91,608.27              1032.91,608.27 1032.91,612.64 1032.36,613.27              1031.82,613.91 1039.36,620.00 1039.36,620.00              1039.36,620.00 1034.91,626.09 1034.91,626.09              1034.91,626.09 1027.00,619.27 1027.00,619.27              1027.00,619.27 1024.36,621.00 1021.73,620.82              1021.64,620.64 1019.91,630.73 1019.91,630.73              1019.91,630.73 1012.55,629.82 1012.55,629.82              1012.55,629.82 1013.82,619.64 1013.82,619.64              1013.82,619.64 1012.27,619.55 1010.00,616.09              1009.91,615.64 1000.64,618.82 1000.64,618.82              1000.64,618.82 998.27,611.73 998.27,611.73              998.27,611.73 1007.73,608.64 1007.73,608.64              1007.73,608.64 1007.55,603.73 1008.27,603.64              1009.00,603.55 1000.91,596.27 1000.91,596.27 Z"></path>
</svg>
