<?xml version="1.0" encoding="utf-8"?>
<!-- Generator: Adobe Illustrator 19.0.0, SVG Export Plug-In . SVG Version: 6.00 Build 0)  -->
<svg version="1.1" id="Layer_1"
    xmlns="http://www.w3.org/2000/svg"
    xmlns:xlink="http://www.w3.org/1999/xlink" x="0px" y="0px" viewBox="-349 151.8 259.2 259.2" style="enable-background:new -349 151.8 259.2 259.2;" xml:space="preserve">
    <!-- <style type="text/css">
	.st0{fill:#525249;stroke:#000000;}
</style> -->
    <path id="ninja" class="st0" fill="#525249" d="M-161.5,156.1c0,0-49.1-14.1-97.7,13.3c-4-6.6-7.5-16.4-7.5-16.4s-40.7,16.4-60.1,77.8
	c-11-4.9-17.2-9.3-17.2-9.3s-17.2,36.7,12.4,99.5c-8.9,3.5-17.2,7.1-17.2,7.1s14.2,40.2,78.2,60.1c-2.7,8-8,16.8-8,16.8
	s48.6,15.5,99.5-11.5c4,7.1,7.1,16.8,7.1,16.8s42-19.9,57.9-77.8c13.3,4.9,19.9,7.5,19.9,7.5s11-53.9-14.2-99.5
	c11-3.5,18.6-5.7,18.6-5.7s-23.4-46.4-79.6-60.1C-167.7,167.6-161.5,156.1-161.5,156.1z M-181.9,271.5c0,0,44.2-43.3,43.3-55.7
	c15.5,7.5,21.2,56.1,21.2,56.1s-24.3,27.4-64.5,13.7C-181.9,278.2-181.9,271.5-181.9,271.5z M-280,198.6c0,0,16.8-18.1,47.8-21.7
	c27.8,19.9,17.7,64.5,17.7,64.5l-14.6,2.7C-229.2,244.1-257.5,208.7-280,198.6z M-322.4,291c0,0,26.5-30.1,65.4-13.7
	c3.5,14.6,0,11.5,0,11.5s-43.8,45.1-43.3,54.8C-314.9,337.4-322.4,291-322.4,291z M-250.4,303.3l11.9,11c0,0-0.9,50,4,69
	c-17.2,4-50.8-21.7-50.8-21.7C-290.6,329-250.4,303.3-250.4,303.3z M-289.1,212.2c0,0,39.5,6.8,46,48.5c-10.6,10.6-9.8,6-9.8,6
	s-61.4-13.6-69.4-8.1C-324.7,242.9-289.1,212.2-289.1,212.2z M-202.2,247.6c0,0,10.5-61,2.5-70.5c17-3,50,33.1,50,33.1
	s-3.7,36.4-44.3,48.8C-198.3,253-202.2,247.6-202.2,247.6z M-187.4,300.9c0,0,61.9-1.7,69.6-11.4c6.3,16-22.6,55.6-22.6,55.6
	s-36.4,3.6-56.6-33.8C-192,305.8-187.4,300.9-187.4,300.9z M-223,317.3l16.2,0c0,0,33.4,37.2,49.9,47.8c-9.9,14.6-52,18.7-52,18.7
	C-235,363.5-223,317.3-223,317.3z M-219.6,289.4c-12.7-1.5-7.6-17,0.4-15.9C-210.3,274-207.5,288.4-219.6,289.4z"/>
</svg>
