<?xml version="1.0" encoding="UTF-8" standalone="no"?>
<!DOCTYPE svg PUBLIC "-//W3C//DTD SVG 20010904//EN"
              "http://www.w3.org/TR/2001/REC-SVG-20010904/DTD/svg10.dtd">

<svg xmlns="http://www.w3.org/2000/svg" width="3.6in" height="3.6in" viewBox="893.9483032226562 258.5855255126953 106.6016845703125 106.6016845703125">
  <path id="ninja" fill="none" stroke="black" stroke-width="1" d="M 971.09,260.36            C 971.09,260.36 950.91,254.55 930.91,265.82              929.27,263.09 927.82,259.09 927.82,259.09              927.82,259.09 911.09,265.82 903.09,291.09              898.55,289.09 896.00,287.27 896.00,287.27              896.00,287.27 888.91,302.36 901.09,328.18              897.45,329.64 894.00,331.09 894.00,331.09              894.00,331.09 899.82,347.64 926.18,355.82              925.09,359.09 922.91,362.73 922.91,362.73              922.91,362.73 942.91,369.09 963.82,358.00              965.45,360.91 966.73,364.91 966.73,364.91              966.73,364.91 984.00,356.73 990.55,332.91              996.00,334.91 998.73,336.00 998.73,336.00              998.73,336.00 1003.27,313.82 992.91,295.09              997.45,293.64 1000.55,292.73 1000.55,292.73              1000.55,292.73 990.91,273.64 967.82,268.00              968.55,265.09 971.09,260.36 971.09,260.36 Z            M 947.27,308.18            C 942.55,308.00 942.36,315.82 947.27,314.91              951.45,315.82 952.00,308.55 947.27,308.18 Z            M 962.73,307.82            C 962.73,307.82 980.91,290.00 980.55,284.91              986.91,288.00 989.27,308.00 989.27,308.00              989.27,308.00 979.27,319.27 962.73,313.64              962.73,310.55 962.73,307.82 962.73,307.82 Z            M 953.09,269.27            C 953.09,269.27 956.91,293.82 954.73,298.36              958.00,300.00 959.82,301.64 959.82,301.64              959.82,301.64 976.00,294.73 974.00,278.18              962.73,268.55 953.09,269.27 953.09,269.27 Z            M 922.36,277.82            C 922.36,277.82 929.27,270.36 942.00,268.91              953.45,277.09 949.27,295.45 949.27,295.45              949.27,295.45 943.27,296.55 943.27,296.55              943.27,296.55 931.64,282.00 922.36,277.82 Z            M 915.64,284.36            C 915.64,284.36 907.27,290.00 905.27,305.64              913.45,302.91 934.00,304.00 934.00,304.00              934.00,304.00 935.27,299.09 937.09,299.27              938.91,299.45 927.27,284.55 915.64,284.36 Z            M 904.91,315.82            C 904.91,315.82 915.82,303.45 931.82,310.18              933.27,316.18 931.82,314.91 931.82,314.91              931.82,314.91 913.82,333.45 914.00,337.45              908.00,334.91 904.91,315.82 904.91,315.82 Z            M 934.55,320.91            C 934.55,320.91 939.45,325.45 939.45,325.45              939.45,325.45 939.09,346.00 941.09,353.82              934.00,355.45 920.18,344.91 920.18,344.91              918.00,331.45 934.55,320.91 934.55,320.91 Z            M 951.82,354.55            C 951.82,354.55 968.00,351.64 971.27,345.45              957.64,333.45 952.36,327.27 952.36,327.27              952.36,327.27 944.91,327.27 944.91,327.27              944.91,327.27 940.73,347.64 951.82,354.55 Z            M 980.00,338.36            C 980.00,338.36 989.27,326.73 988.73,317.82              976.55,321.09 961.27,319.27 961.27,319.27              961.27,319.27 957.27,324.73 957.27,324.73              957.27,324.73 966.91,342.18 980.00,338.36 Z"></path>
</svg>
