<?xml version="1.0" encoding="UTF-8" standalone="no"?>
<!-- Created with Inkscape (http://www.inkscape.org/) -->

<svg
   xmlns:dc="http://purl.org/dc/elements/1.1/"
   xmlns:cc="http://creativecommons.org/ns#"
   xmlns:rdf="http://www.w3.org/1999/02/22-rdf-syntax-ns#"
   xmlns:svg="http://www.w3.org/2000/svg"
   xmlns="http://www.w3.org/2000/svg"
   xmlns:sodipodi="http://sodipodi.sourceforge.net/DTD/sodipodi-0.dtd"
   xmlns:inkscape="http://www.inkscape.org/namespaces/inkscape"
   width="259mm"
   height="259mm"
   viewBox="0 0 259 259"
   version="1.1"
   id="svg1958"
   inkscape:version="0.92.4 (5da689c313, 2019-01-14)"
   sodipodi:docname="ninja.svg">
  <defs
     id="defs1952" />
  <sodipodi:namedview
     id="base"
     pagecolor="#ffffff"
     bordercolor="#666666"
     borderopacity="1.0"
     inkscape:pageopacity="0.0"
     inkscape:pageshadow="2"
     inkscape:zoom="0.54748655"
     inkscape:cx="521.63612"
     inkscape:cy="597.40432"
     inkscape:document-units="mm"
     inkscape:current-layer="layer1"
     showgrid="false"
     inkscape:window-width="1920"
     inkscape:window-height="1001"
     inkscape:window-x="-9"
     inkscape:window-y="-9"
     inkscape:window-maximized="1" />
  <metadata
     id="metadata1955">
    <rdf:RDF>
      <cc:Work
         rdf:about="">
        <dc:format>image/svg+xml</dc:format>
        <dc:type
           rdf:resource="http://purl.org/dc/dcmitype/StillImage" />
        <dc:title />
      </cc:Work>
    </rdf:RDF>
  </metadata>
  <g
     inkscape:label="Layer 1"
     inkscape:groupmode="layer"
     id="layer1"
     transform="translate(0,-38)">
    <path
       inkscape:connector-curvature="0"
       style="fill:#525249;stroke:none;stroke-width:0.95874828;stroke-miterlimit:4;stroke-dasharray:none;stroke-opacity:1"
       id="ninja"
       class="st0"
       d="m 102.35917,37.845672 c 0,0 48.84059,-2.703048 88.28428,33.479385 5.15193,-5.342206 10.52603,-13.798457 10.52603,-13.798457 0,0 34.44075,24.150292 39.32668,86.00748 11.31657,-2.24153 18.04752,-5.04415 18.04752,-5.04415 0,0 8.14874,38.1769 -32.97971,90.82586 7.54983,5.20001 14.51838,10.3651 14.51838,10.3651 0,0 -21.89815,34.7217 -85.88737,39.67432 0.79732,8.0966 3.84817,17.50325 3.84817,17.50325 0,0 -48.6754,4.12586 -90.350925,-32.17474 -5.259528,5.81201 -10.238944,14.26023 -10.238944,14.26023 0,0 -34.900355,-27.71806 -37.274223,-85.53499 C 6.7167837,195.15649 0,196.18194 0,196.18194 c 0,0 1.336653,-53.00621 34.658956,-90.43926 -9.508943,-5.65099 -16.125723,-9.350351 -16.125723,-9.350351 0,0 31.815188,-38.571262 87.193477,-39.373662 -0.0581,-7.036178 -3.36754,-19.172995 -3.36754,-19.172995 z M 96.557725,150.65537 c 0,0 -31.917358,-50.17691 -28.409338,-61.634498 -16.074182,3.717967 -31.850146,48.157798 -31.850146,48.157798 0,0 -3.414158,16.62265 57.225277,26.72493 z M 208.20959,106.63076 c 0,0 -16.22308,-24.017191 -44.3689,-34.057519 -30.21753,12.727236 -30.39255,56.801979 -30.39255,56.801979 l 13.03964,5.67251 c 0.0935,0.0214 38.5577,-23.75943 61.72181,-28.41697 z m 15.22724,92.52156 c 0,0 -18.24515,-33.97299 -58.06489,-26.91822 -6.40701,12.96628 -2.47468,10.80525 -2.47468,10.80525 0,0 31.1568,51.78226 28.60296,60.78887 14.95485,-2.68984 31.93661,-44.6759 31.93661,-44.6759 z m -69.81711,-3.90643 -13.46889,7.77973 c 0,0 -9.91992,47.1727 -18.57984,63.97249 15.18545,7.45237 52.06198,-9.47882 52.06198,-9.47882 11.95975,-29.49231 -20.01325,-62.2734 -20.01325,-62.2734 z m 67.13474,-67.0407 c 0,0 -29.04513,-8.34729 -59.84705,18.43266 5.75143,8.41839 4.84337,12.58152 4.84337,12.58152 25.73439,-4.52712 56.19229,7.57341 62.47212,14.45925 5.61751,-14.23609 -7.46843,-45.47347 -7.46843,-45.47347 z m -100.11541,4.35383 c 0,0 3.33096,-59.569892 12.83865,-66.777865 -15.21406,-6.469824 -48.070673,13.108433 -48.070673,13.108433 0,0 -5.583089,30.912142 22.747353,58.502492 5.30265,-4.71403 12.48467,-4.83306 12.48467,-4.83306 z m -25.27687,46.90146 c 0,0 -57.381964,-14.89146 -62.478097,-25.65916 -9.320481,13.68038 9.11937,57.09485 9.11937,57.09485 0,0 33.183603,11.20007 60.076757,-19.6022 -3.481043,-6.24157 -6.71803,-11.83349 -6.71803,-11.83349 z m 29.68282,23.05502 -15.11332,-3.47927 c 0,0 -39.164629,27.77942 -56.838871,34.19534 6.094149,15.84421 44.487824,28.73826 44.487824,28.73826 C 126.29823,248.50164 125.045,202.5155 125.045,202.5155 Z m 2.8319,-26.94474 c 12.17086,1.3182 10.74843,-14.34074 3.04839,-15.02534 -8.41063,-1.44165 -14.12156,11.48706 -3.04839,15.02534 z"
       sodipodi:nodetypes="cccccccccccccccccccccccccccccccccccccccsccccccccccccccccccccc" />
  </g>
</svg>
