<?xml version="1.0" encoding="UTF-8" standalone="no"?>
<!-- Created with Inkscape (http://www.inkscape.org/) -->

<svg
   xmlns:dc="http://purl.org/dc/elements/1.1/"
   xmlns:cc="http://creativecommons.org/ns#"
   xmlns:rdf="http://www.w3.org/1999/02/22-rdf-syntax-ns#"
   xmlns:svg="http://www.w3.org/2000/svg"
   xmlns="http://www.w3.org/2000/svg"
   xmlns:sodipodi="http://sodipodi.sourceforge.net/DTD/sodipodi-0.dtd"
   xmlns:inkscape="http://www.inkscape.org/namespaces/inkscape"
   width="259mm"
   height="259mm"
   viewBox="0 0 259 259"
   version="1.1"
   id="svg1958"
   inkscape:version="0.92.4 (5da689c313, 2019-01-14)"
   sodipodi:docname="ninjai.svg">
  <defs
     id="defs1952" />
  <sodipodi:namedview
     id="base"
     pagecolor="#ffffff"
     bordercolor="#666666"
     borderopacity="1.0"
     inkscape:pageopacity="0.0"
     inkscape:pageshadow="2"
     inkscape:zoom="1.0949731"
     inkscape:cx="421.48197"
     inkscape:cy="555.03533"
     inkscape:document-units="mm"
     inkscape:current-layer="layer1"
     showgrid="false"
     inkscape:window-width="1920"
     inkscape:window-height="1001"
     inkscape:window-x="-9"
     inkscape:window-y="-9"
     inkscape:window-maximized="1" />
  <metadata
     id="metadata1955">
    <rdf:RDF>
      <cc:Work
         rdf:about="">
        <dc:format>image/svg+xml</dc:format>
        <dc:type
           rdf:resource="http://purl.org/dc/dcmitype/StillImage" />
        <dc:title></dc:title>
      </cc:Work>
    </rdf:RDF>
  </metadata>
  <g
     inkscape:label="Layer 1"
     inkscape:groupmode="layer"
     id="layer1"
     transform="translate(0,-38)">
    <path
       inkscape:connector-curvature="0"
       style="fill:#525249;stroke-width:1.00194466"
       id="ninja"
       class="st0"
       d="m 187.34679,41.643661 c 0,0 -49.06794,-14.164122 -97.636203,13.360505 -3.997376,-6.630022 -7.495086,-16.474577 -7.495086,-16.474577 0,0 -40.673453,16.474577 -60.060785,78.153871 -10.992821,-4.92229 -17.1887716,-9.3423 -17.1887716,-9.3423 0,0 -17.1887734,36.86695 12.3919056,99.95264 -8.894193,3.51592 -17.18877211,7.13229 -17.18877211,7.13229 0,0 14.19073111,40.38286 78.14894911,60.37338 -2.698218,8.03641 -7.99479,16.87644 -7.99479,16.87644 0,0 48.568273,15.5705 99.435073,-11.55233 3.99738,7.1323 7.09537,16.87642 7.09537,16.87642 0,0 41.97257,-19.99052 57.86217,-78.15389 13.29132,4.92226 19.88702,7.5341 19.88702,7.5341 0,0 10.99283,-54.14518 -14.19072,-99.95261 C 251.40495,122.91169 259,120.70165 259,120.70165 c 0,0 -23.38472,-46.611031 -79.54805,-60.373384 1.69893,-7.132287 7.89484,-18.684605 7.89484,-18.684605 z M 166.96011,157.5686 c 0,0 44.17118,-43.49696 43.27174,-55.95336 15.48987,7.53408 21.18618,56.35521 21.18618,56.35521 0,0 -0.39977,17.68004 -64.45792,13.76233 z M 63.608217,86.753367 c 0,0 22.104994,-20.59869 53.084733,-24.215065 27.78187,19.990527 17.68848,64.793378 17.68848,64.793378 l -14.59049,2.71229 c -0.1001,0 -33.69743,-33.144666 -56.182723,-43.290603 z M 26.551842,177.15734 c 0,0 26.482696,-30.23695 65.357297,-13.76233 3.497746,14.66639 0,11.55229 0,11.55229 0,0 -43.77141,45.30515 -43.271703,55.04928 -14.590491,-6.22821 -22.085594,-52.83924 -22.085594,-52.83924 z m 71.952989,12.35591 11.892259,11.05005 c 0,0 -0.89943,50.22748 3.99737,69.31389 C 97.205709,273.8954 63.627642,248.07848 63.627642,248.07848 58.331071,215.33016 98.504831,189.51325 98.504831,189.51325 Z M 45.815307,105.73118 c 0,0 31.500266,-1.68667 56.601873,32.7123 -7.814264,7.20496 -7.860494,11.6453 -7.860494,11.6453 -25.13107,-10.61441 -58.943591,-5.44627 -66.938368,0.0787 -2.398434,-15.77142 18.196989,-44.43635 18.196989,-44.43635 z M 146.67337,133.5599 c 0,0 10.49317,-61.277464 2.49838,-70.820718 16.98891,-3.013642 45.85958,24.55174 45.85958,24.55174 0,0 -1.52289,32.699438 -36.78046,54.096308 -4.29714,-6.0273 -11.5775,-7.82733 -11.5775,-7.82733 z m 14.79032,53.54244 c 0,0 61.8596,-1.70773 69.55457,-11.45185 6.29591,16.07281 -22.58523,55.85294 -22.58523,55.85294 0,0 -36.37622,3.61638 -56.56306,-33.95376 4.99674,-5.52504 9.59372,-10.44733 9.59372,-10.44733 z m -35.57673,16.47463 h 16.18943 c 0,0 33.37817,37.36921 49.86743,48.01742 -9.89356,14.66642 -51.96608,18.78507 -51.96608,18.78507 -26.08295,-20.39235 -14.09078,-66.80249 -14.09078,-66.80249 z m 3.39778,-28.02694 c -12.69171,-1.5068 -7.59504,-17.07732 0.39972,-15.97231 8.89422,0.50227 11.69238,14.96777 -0.39972,15.97231 z"
       sodipodi:nodetypes="cccccccccccccccccccccccccccccccccccccccsccccccccccccccccccccc" />
  </g>
</svg>
