<?xml version="1.0" encoding="utf-8"?>
<!-- Generator: Adobe Illustrator 19.0.0, SVG Export Plug-In . SVG Version: 6.00 Build 0)  -->
<svg version="1.1" id="Layer_1" xmlns="http://www.w3.org/2000/svg" xmlns:xlink="http://www.w3.org/1999/xlink" x="0px" y="0px"
	 viewBox="-349 151.8 259.2 259.2" style="enable-background:new -349 151.8 259.2 259.2;" xml:space="preserve">
<!-- <style type="text/css">
	.st0{fill:rgb(247, 144, 24);stroke:rgb(247, 144, 24);}
	.st1{fill:rgb(255, 230, 99);}
	.st2{fill:rgb(247, 144, 24);}
</style> -->
<path class="st0" fill="rgb(247, 144, 24)" stroke="rgb(247, 144, 24)" d="M-108.7,275.9l18.3-3.8l-2.4-15.6l-19.4,0.4l-3.8-17.3l15.9-13.1l-9.3-12.8l-18.7,5.9l-9.3-13.1l12.1-15.5
	l-12.8-10l-15.5,10.7L-166,182l3.8-16.6l-14.5-6.6l-10,15.9l-15.2-3.1l-2.8-19.7H-222c0,0,0,16.3-2.4,16.9
	c-2.4,0.7-19.7,2.1-19.7,2.1l-6.2-15.9l-15.5,3.8c0,0,3.8,20.4,3.1,21.4c-5.2,0.3-14.2,7.3-14.2,7.3l-15.9-13.1l-9.7,7.6l7.6,18
	l-12.4,10.7l-18-6.6l-6.6,11.4l13.5,15.5l-7.6,13.1l-19,0.7l-1.7,13.1l16.6,9v18l-18.3,3.8l1.4,14.5l19.7,1.4l4.8,14.5l-14.5,12.4
	l6.6,14.9l17.6-7.6l10,16.6l-11.1,14.5l12.1,12.4l17.3-13.8l13.5,9.7l-5.2,18.7l12.1,5.5l11.8-16.9l16.9,5.5l1.7,19.7l14.9,0.3
	l4.8-20.7l15.5-1.4l9.7,18.3l14.2-5.2l-1.7-19l14.5-8.6l14.5,14.5l11.7-11.7l-8.3-15.2l10.7-13.1l16.6,10.4l10-14.5l-14.5-14.5
	l6.6-15.5l20.7,1l1.4-16.6l-18-4.8L-108.7,275.9z M-132.3,339.2c-27,32.8-71.9,64.6-138.2,34.2c-56.7-30.8-53.6-94.7-53.6-94.7
	s-2.8-40.4,34.9-75.7c12.1-10.7,41.8-27.3,75.3-25.9c33.5,1.4,77.1,30.1,87.8,60.1C-109.8,282.9-113.9,307.8-132.3,339.2z"/>
<path class="st1" fill="rgb(255, 230, 99)" d="M-131.6,339.3c-27,32.8-71.9,64.6-138.2,34.2c-56.7-30.8-53.6-94.7-53.6-94.7s-2.8-40.4,34.9-75.7
	c12.1-10.7,41.8-27.3,75.3-25.9c33.5,1.4,77.1,30.1,87.8,60.1C-109.2,283-113.3,307.9-131.6,339.3z"/>
<path id="slices" class="st2" fill="rgb(247, 144, 24)" d="M-178.8,359.3l-30.9-59.3c0,0-2.1-1.1,0.5-5.2c2.6-4.1,5.4-3.8,5.4-3.8l62.5,25.9
	c0,0,7.3,5.2,2.6,12.6c-4.7,7.4-25.8,30-25.8,30C-174.3,363.6-178.8,359.3-178.8,359.3z M-182.9,364.2l-28.5-62c0,0,0.2-2.7-5.1-2.9
	c-5.3-0.2-7.2,2.6-7.2,2.6l-14.3,68.5c0,0,2.1,7.2,11.5,6.9c9.4-0.2,31.2-0.9,35.3-3.9C-189.1,372-187.3,371.8-182.9,364.2z
	 M-242.4,365.2l15.1-63.4c0,0,1.5-1.8-1-4c-2.4-2.3-5.9-4.4-8.5-2.8c-2.6,1.6-52,40-52,40s-7.4,6.8,1.3,16.3
	c8.7,9.3,32.5,20.2,32.5,20.2S-240.2,371.6-242.4,365.2z M-291.8,332.7l50.9-39.4c0,0,4.5-2.3,3-5.3c-1.5-3-1.2-7.6-6.9-7.1
	c-5.7,0.5-64-1.6-64-1.6s-8.6-0.9-7.5,12c1.1,13,11.7,36.4,11.7,36.4S-297.9,337.4-291.8,332.7z M-307.9,275.2l65.6,3.2
	c0,0,3.1-1.3,4-3.8c0.9-2.5,3.7-2.9,0.3-6.1s-49.4-45-49.4-45s-8.3-4-13.4,5.7c-5.1,9.8-14.7,23.9-12.8,36.2
	C-313.8,274.9-309,274.7-307.9,275.2z M-284.4,219.4l47.6,45.2c0,0,3.3,2.8,6.3,0.9c3-2,5.8-2.2,5.1-8.5c-0.7-6.3-8.8-61.8-8.8-61.8
	s-0.6-6.7-9.5-7.1c-9-0.3-39.6,16.8-40.2,21.5C-284.6,214.2-289.9,211.2-284.4,219.4z M-222.5,258.6c0,0-0.2,4.6,5,4.7
	c5.2,0.1,4.1,2.7,8.3-3.3c4.3-6,35.4-56.1,35.4-56.1s0.4-5.8-8.6-10.9c-9-5.1-29.7-9-38.4-7.2c-8.6,1.9-9.6,5.2-8.8,10.2
	C-228.8,201-222.5,258.6-222.5,258.6z M-207.5,264.1c0,0-3.7,2,0.5,5.7c4.3,3.7,3.4,4.1,9.2,1.2c5.8-2.9,57.9-17.4,57.9-17.4
	s8.5-2.7,4.1-12.2c-4.4-9.5-11.2-23.8-24-32.7c-12.8-8.9-17,8.3-17,8.3L-207.5,264.1z M-198.8,275.9c0,0-4.1-0.3-4.7,5.8
	c-0.5,6.1,0,5.9,6.2,8.2c6.3,2.4,58.2,23.2,58.2,23.2s6.7,2.5,12.7-9.8c6-12.2,0.5-33-0.1-37.3s-4.5-8.7-8.8-8.3
	C-139.8,258.2-198.8,275.9-198.8,275.9z"/>
</svg>
