<?xml version="1.0" encoding="utf-8"?>
<!-- Generator: Adobe Illustrator 19.0.0, SVG Export Plug-In . SVG Version: 6.00 Build 0)  -->
<svg version="1.1" id="Layer_1"
    xmlns="http://www.w3.org/2000/svg"
    xmlns:xlink="http://www.w3.org/1999/xlink" x="0px" y="0px" viewBox="-349 151.8 259.2 259.2" style="enable-background:new -349 151.8 259.2 259.2;" xml:space="preserve">
    <!-- <style type="text/css">
	.st0{fill:#F79018;stroke:#F79018;}
	.st1{fill:#FFE663;}
	.st2{fill:#F79018;}
</style> -->
    <path class="st0" fill="rgb(247, 144, 24)" stroke="rgb(247, 144, 24)" d="M-108.7,275.9l18.3-3.8l-2.4-15.6l-19.4,0.4l-3.8-17.3l15.9-13.1l-9.3-12.8l-18.7,5.9l-9.3-13.1l12.1-15.5
	l-12.8-10l-15.5,10.7L-166,182l3.8-16.6l-14.5-6.6l-10,15.9l-15.2-3.1l-2.8-19.7H-222c0,0,0,16.3-2.4,16.9
	c-2.4,0.7-19.7,2.1-19.7,2.1l-6.2-15.9l-15.5,3.8c0,0,3.8,20.4,3.1,21.4c-5.2,0.3-14.2,7.3-14.2,7.3l-15.9-13.1l-9.7,7.6l7.6,18
	l-12.4,10.7l-18-6.6l-6.6,11.4l13.5,15.5l-7.6,13.1l-19,0.7l-1.7,13.1l16.6,9v18l-18.3,3.8l1.4,14.5l19.7,1.4l4.8,14.5l-14.5,12.4
	l6.6,14.9l17.6-7.6l10,16.6l-11.1,14.5l12.1,12.4l17.3-13.8l13.5,9.7l-5.2,18.7l12.1,5.5l11.8-16.9l16.9,5.5l1.7,19.7l14.9,0.3
	l4.8-20.7l15.5-1.4l9.7,18.3l14.2-5.2l-1.7-19l14.5-8.6l14.5,14.5l11.7-11.7l-8.3-15.2l10.7-13.1l16.6,10.4l10-14.5l-14.5-14.5
	l6.6-15.5l20.7,1l1.4-16.6l-18-4.8L-108.7,275.9z M-132.3,339.2c-27,32.8-71.9,64.6-138.2,34.2c-56.7-30.8-53.6-94.7-53.6-94.7
	s-2.8-40.4,34.9-75.7c12.1-10.7,41.8-27.3,75.3-25.9c33.5,1.4,77.1,30.1,87.8,60.1C-109.8,282.9-113.9,307.8-132.3,339.2z"/>
    <path class="st1" fill="rgb(255, 230, 99)" d="M-131.6,339.3c-27,32.8-71.9,64.6-138.2,34.2c-56.7-30.8-53.6-94.7-53.6-94.7s-2.8-40.4,34.9-75.7
	c12.1-10.7,41.8-27.3,75.3-25.9c33.5,1.4,77.1,30.1,87.8,60.1C-109.2,283-113.3,307.9-131.6,339.3z"/>
    <path id="slices" class="st2" fill="rgb(247, 144, 24)" d="M-178.6,356.5l-29.8-57.2c0,0-2-1.1,0.5-5c2.5-4,5.2-3.7,5.2-3.7l60.3,25c0,0,7,5,2.5,12.1
	c-4.5,7.1-24.9,28.9-24.9,28.9C-174.3,360.6-178.6,356.5-178.6,356.5z M-182.6,361.2l-27.5-59.8c0,0,0.2-2.6-4.9-2.8
	c-5.1-0.2-6.9,2.5-6.9,2.5l-13.8,66c0,0,2,6.9,11.1,6.7c9.1-0.2,30.1-0.9,34-3.8C-188.5,368.7-186.8,368.5-182.6,361.2z
	 M-239.9,362.2l14.6-61.1c0,0,1.4-1.7-1-3.9c-2.3-2.2-5.7-4.2-8.2-2.7s-50.1,38.6-50.1,38.6s-7.1,6.6,1.3,15.7
	c8.4,9,31.3,19.5,31.3,19.5S-237.8,368.3-239.9,362.2z M-287.6,330.8l49.1-38c0,0,4.3-2.2,2.9-5.1c-1.4-2.9-1.2-7.3-6.7-6.8
	s-61.7-1.5-61.7-1.5s-8.3-0.9-7.2,11.6c1.1,12.5,11.3,35.1,11.3,35.1S-293.4,335.4-287.6,330.8z M-303.1,275.4l63.2,3.1
	c0,0,3-1.3,3.9-3.7s3.6-2.8,0.3-5.9c-3.3-3.1-47.6-43.4-47.6-43.4s-8-3.9-12.9,5.5s-14.2,23-12.3,34.9
	C-308.8,275.1-304.1,274.9-303.1,275.4z M-280.4,221.6l45.9,43.6c0,0,3.2,2.7,6.1,0.9c2.9-1.9,5.6-2.1,4.9-8.2
	c-0.7-6.1-8.5-59.6-8.5-59.6s-0.6-6.5-9.2-6.8c-8.7-0.3-38.2,16.2-38.8,20.7C-280.6,216.6-285.7,213.7-280.4,221.6z M-220.7,259.4
	c0,0-0.2,4.4,4.8,4.5c5,0.1,4,2.6,8-3.2c4.1-5.8,34.1-54.1,34.1-54.1s0.4-5.6-8.3-10.5s-28.6-8.7-37-6.9c-8.3,1.8-9.3,5-8.5,9.8
	C-226.8,203.9-220.7,259.4-220.7,259.4z M-206.3,264.7c0,0-3.6,1.9,0.5,5.5c4.1,3.6,3.3,4,8.9,1.2c5.6-2.8,55.8-16.8,55.8-16.8
	s8.2-2.6,4-11.8s-10.8-22.9-23.1-31.5s-16.4,8-16.4,8L-206.3,264.7z M-197.9,276.1c0,0-4-0.3-4.5,5.6c-0.5,5.9,0,5.7,6,7.9
	c6.1,2.3,56.1,22.4,56.1,22.4s6.5,2.4,12.2-9.4c5.8-11.8,0.5-31.8-0.1-36c-0.6-4.2-4.3-8.4-8.5-8C-141,259-197.9,276.1-197.9,276.1z
	"/>
</svg>
