<?xml version="1.0" encoding="UTF-8" standalone="no"?>
<!DOCTYPE svg PUBLIC "-//W3C//DTD SVG 20010904//EN"
              "http://www.w3.org/TR/2001/REC-SVG-20010904/DTD/svg10.dtd">

<svg xmlns="http://www.w3.org/2000/svg" width="3.6in" height="3.6in" viewBox="890.8150329589844 484.3599853515625 136.3699951171875 136.3699951171875">
  <path id="ogears" fill="rgb(247, 144, 24)" stroke="rgb(247, 144, 24)" stroke-width="1" d="M 915.27,500.18
           C 915.27,500.18 920.36,496.18 920.36,496.18
             920.36,496.18 928.73,503.09 928.73,503.09
             928.73,503.09 933.45,499.45 936.18,499.27
             936.55,498.73 934.55,488.00 934.55,488.00
             934.55,488.00 942.73,486.00 942.73,486.00
             942.73,486.00 946.00,494.36 946.00,494.36
             946.00,494.36 955.09,493.64 956.36,493.27
             957.64,492.91 957.64,484.36 957.64,484.36
             957.64,484.36 966.73,484.36 966.73,484.36
             966.73,484.36 968.18,494.73 968.18,494.73
             968.18,494.73 976.18,496.36 976.18,496.36
             976.18,496.36 981.45,488.00 981.45,488.00
             981.45,488.00 989.09,491.45 989.09,491.45
             989.09,491.45 987.09,500.18 987.09,500.18
             987.09,500.18 993.64,505.27 993.64,505.27
             993.64,505.27 1001.82,499.64 1001.82,499.64
             1001.82,499.64 1008.55,504.91 1008.55,504.91
             1008.55,504.91 1002.18,513.09 1002.18,513.09
             1002.18,513.09 1007.09,520.00 1007.09,520.00
             1007.09,520.00 1016.91,516.91 1016.91,516.91
             1016.91,516.91 1021.82,523.64 1021.82,523.64
             1021.82,523.64 1013.45,530.55 1013.45,530.55
             1013.45,530.55 1015.45,539.64 1015.45,539.64
             1015.45,539.64 1025.64,539.45 1025.64,539.45
             1025.64,539.45 1026.91,547.64 1026.91,547.64
             1026.91,547.64 1017.27,549.64 1017.27,549.64
             1017.27,549.64 1016.36,559.27 1016.36,559.27
             1016.36,559.27 1025.82,561.82 1025.82,561.82
             1025.82,561.82 1025.09,570.55 1025.09,570.55
             1025.09,570.55 1014.18,570.00 1014.18,570.00
             1014.18,570.00 1010.73,578.18 1010.73,578.18
             1010.73,578.18 1018.36,585.82 1018.36,585.82
             1018.36,585.82 1013.09,593.45 1013.09,593.45
             1013.09,593.45 1004.36,588.00 1004.36,588.00
             1004.36,588.00 998.73,594.91 998.73,594.91
             998.73,594.91 1003.09,602.91 1003.09,602.91
             1003.09,602.91 996.91,609.09 996.91,609.09
             996.91,609.09 989.27,601.45 989.27,601.45
             989.27,601.45 981.64,606.00 981.64,606.00
             981.64,606.00 982.55,616.00 982.55,616.00
             982.55,616.00 975.09,618.73 975.09,618.73
             975.09,618.73 970.00,609.09 970.00,609.09
             970.00,609.09 961.82,609.82 961.82,609.82
             961.82,609.82 959.27,620.73 959.27,620.73
             959.27,620.73 951.45,620.55 951.45,620.55
             951.45,620.55 950.55,610.18 950.55,610.18
             950.55,610.18 941.64,607.27 941.64,607.27
             941.64,607.27 935.45,616.18 935.45,616.18
             935.45,616.18 929.09,613.27 929.09,613.27
             929.09,613.27 931.82,603.45 931.82,603.45
             931.82,603.45 924.73,598.36 924.73,598.36
             924.73,598.36 915.64,605.64 915.64,605.64
             915.64,605.64 909.27,599.09 909.27,599.09
             909.27,599.09 915.09,591.45 915.09,591.45
             915.09,591.45 909.82,582.73 909.82,582.73
             909.82,582.73 900.55,586.73 900.55,586.73
             900.55,586.73 897.09,578.91 897.09,578.91
             897.09,578.91 904.73,572.36 904.73,572.36
             904.73,572.36 902.18,564.73 902.18,564.73
             902.18,564.73 891.82,564.00 891.82,564.00
             891.82,564.00 891.09,556.36 891.09,556.36
             891.09,556.36 900.73,554.36 900.73,554.36
             900.73,554.36 900.73,544.91 900.73,544.91
             900.73,544.91 892.00,540.18 892.00,540.18
             892.00,540.18 892.91,533.27 892.91,533.27
             892.91,533.27 902.91,532.91 902.91,532.91
             902.91,532.91 906.91,526.00 906.91,526.00
             906.91,526.00 899.82,517.82 899.82,517.82
             899.82,517.82 903.27,511.82 903.27,511.82
             903.27,511.82 912.73,515.27 912.73,515.27
             912.73,515.27 919.27,509.64 919.27,509.64
             919.27,509.64 915.27,500.18 915.27,500.18 Z
           M 904.00,550.36
           C 904.00,550.36 902.55,529.09 922.36,510.55
             928.73,504.91 944.36,496.18 962.00,496.91
             979.64,497.64 1002.55,512.73 1008.18,528.55
             1016.73,552.55 1014.55,565.64 1004.91,582.18
             990.73,599.45 967.09,616.18 932.18,600.18
             902.36,584.00 904.00,550.36 904.00,550.36 Z"></path>
</svg>
