<?xml version="1.0" encoding="utf-8"?>
<!-- Generator: Adobe Illustrator 19.0.0, SVG Export Plug-In . SVG Version: 6.00 Build 0)  -->
<svg version="1.1" id="plus" xmlns="http://www.w3.org/2000/svg" xmlns:xlink="http://www.w3.org/1999/xlink" x="0px" y="0px"
	 viewBox="-349 151.8 259.2 259.2" style="enable-background:new -349 151.8 259.2 259.2;" xml:space="preserve">
<!-- <style type="text/css">
	.st0{fill:#525249;}
</style> -->
<path id="plus_1_" class="st0" fill="rgb(82, 82, 73)" d="M-280.4,240.7c0,0,21.7-35.6,75-25.4c12.7-29.3,31.8-63.5,31.8-63.5l25.4,11.4l-31.8,62.3
	c0,0,38.1,26.7,29.2,69.9c44.4,22.9,61,38.2,61,38.2l-10.2,22.8l-58.4-31.8c0,0-30.5,43.2-77.5,21.6C-253.7,385.6-269,411-269,411
	l-28-11.5l33.1-58.4c0,0-36.8-29.3-29.2-69.9c-25.4-19.1-55.9-35.6-55.9-35.6l11.4-26.7L-280.4,240.7z M-233.4,261
	c-29.2,5.1-17.8,62.3,22.9,44.5C-173.7,282.6-219.4,240.7-233.4,261z"/>
</svg>
