<?xml version="1.0" encoding="UTF-8" standalone="no"?>
<!-- Created with Inkscape (http://www.inkscape.org/) -->

<svg
   xmlns:dc="http://purl.org/dc/elements/1.1/"
   xmlns:cc="http://creativecommons.org/ns#"
   xmlns:rdf="http://www.w3.org/1999/02/22-rdf-syntax-ns#"
   xmlns:svg="http://www.w3.org/2000/svg"
   xmlns="http://www.w3.org/2000/svg"
   xmlns:sodipodi="http://sodipodi.sourceforge.net/DTD/sodipodi-0.dtd"
   xmlns:inkscape="http://www.inkscape.org/namespaces/inkscape"
   width="259mm"
   height="259mm"
   viewBox="0 0 259 259"
   version="1.1"
   id="svg3638"
   inkscape:version="0.92.4 (5da689c313, 2019-01-14)"
   sodipodi:docname="plus.svg">
  <defs
     id="defs3632" />
  <sodipodi:namedview
     id="base"
     pagecolor="#ffffff"
     bordercolor="#666666"
     borderopacity="1.0"
     inkscape:pageopacity="0.0"
     inkscape:pageshadow="2"
     inkscape:zoom="0.35"
     inkscape:cx="462.85714"
     inkscape:cy="331.42857"
     inkscape:document-units="mm"
     inkscape:current-layer="layer1"
     showgrid="false"
     inkscape:window-width="1920"
     inkscape:window-height="1001"
     inkscape:window-x="-9"
     inkscape:window-y="-9"
     inkscape:window-maximized="1" />
  <metadata
     id="metadata3635">
    <rdf:RDF>
      <cc:Work
         rdf:about="">
        <dc:format>image/svg+xml</dc:format>
        <dc:type
           rdf:resource="http://purl.org/dc/dcmitype/StillImage" />
        <dc:title></dc:title>
      </cc:Work>
    </rdf:RDF>
  </metadata>
  <g
     inkscape:label="Layer 1"
     inkscape:groupmode="layer"
     id="layer1"
     transform="translate(0,-38)">
    <path
       inkscape:connector-curvature="0"
       style="fill:#525249;stroke-width:0.99922842"
       id="plus_1_"
       class="st0"
       d="m 68.54708,126.83141 c 0,0 21.683263,-35.57251 74.94213,-25.38038 12.69021,-29.277423 31.77546,-63.451035 31.77546,-63.451035 l 25.38042,11.391204 -31.77547,62.251961 c 0,0 38.07059,26.67938 29.17746,69.84605 C 242.41282,204.37154 259,219.65972 259,219.65972 l -10.19213,22.78241 -58.35491,-31.77547 c 0,0 -30.47646,43.16667 -77.44021,21.58334 C 95.226498,271.61962 79.938284,297 79.938284,297 L 51.959902,285.50886 85.034368,227.15395 c 0,0 -36.771618,-29.27739 -29.177494,-69.84608 C 30.476498,138.22261 0,121.73536 0,121.73536 L 11.391204,95.055943 Z m 46.96375,20.28433 c -29.177497,5.09608 -17.786293,62.25196 22.88233,44.46567 36.77158,-22.88234 -8.89316,-64.75 -22.88233,-44.46567 z" />
  </g>
</svg>
