<?xml version="1.0" encoding="UTF-8" standalone="no"?>
<!DOCTYPE svg PUBLIC "-//W3C//DTD SVG 20010904//EN"
              "http://www.w3.org/TR/2001/REC-SVG-20010904/DTD/svg10.dtd">

<svg xmlns="http://www.w3.org/2000/svg" width="3.6in" height="3.6in" viewBox="894 356.54998779296875 37.09002685546875 37.09002685546875">
  <path id="plus" fill="none" stroke="black" stroke-width="1" d="M 903.45,369.27            C 903.45,369.27 906.55,364.18 914.18,365.64              916.00,361.45 918.73,356.55 918.73,356.55              918.73,356.55 922.36,358.18 922.36,358.18              922.36,358.18 917.82,367.09 917.82,367.09              917.82,367.09 923.27,370.91 922.00,377.09              928.36,380.36 930.73,382.55 930.73,382.55              930.73,382.55 929.27,385.82 929.27,385.82              929.27,385.82 920.91,381.27 920.91,381.27              920.91,381.27 916.55,387.45 909.82,384.36              907.27,390.00 905.09,393.64 905.09,393.64              905.09,393.64 901.09,392.00 901.09,392.00              901.09,392.00 905.82,383.64 905.82,383.64              905.82,383.64 900.55,379.45 901.64,373.64              898.00,370.91 893.64,368.55 893.64,368.55              893.64,368.55 895.27,364.73 895.27,364.73              895.27,364.73 903.45,369.27 903.45,369.27 Z            M 910.18,372.18            C 906.00,372.91 907.64,381.09 913.45,378.55              918.73,375.27 912.18,369.27 910.18,372.18 Z"/>
</svg>
