<?xml version="1.0" encoding="utf-8"?>
<!-- Generator: Adobe Illustrator 19.0.0, SVG Export Plug-In . SVG Version: 6.00 Build 0)  -->
<svg version="1.1" id="Layer_1"
    xmlns="http://www.w3.org/2000/svg"
    xmlns:xlink="http://www.w3.org/1999/xlink" x="0px" y="0px" viewBox="-349 151.8 259.2 259.2" style="enable-background:new -349 151.8 259.2 259.2;" xml:space="preserve">
    <!-- <style type="text/css">
	.st0{fill:#525249;}
</style> -->
    <path id="pokemon" class="st0" fill="#525249" d="M-309.8,190.1l21.3-16.6l23.3,26.6c0,0,21.9-8.6,31.2-10c1.4-7.3,2.7-36.6,2.7-36.6l26.6,1.4
	l2,35.9c0,0,20.6,4.7,27.9,10c12.6-12,29.9-27.2,29.9-27.2l19.9,18.5l-23.9,31.9c0,0,11.3,9.3,15.3,23.9c17.9,0.7,38.5-0.7,38.5-0.7
	l5.3,26.6l-37.2,8.6c0,0,1.4,27.9-5.3,29.9c12,8,32.6,22.6,32.6,22.6l-16.6,23.2l-33.2-15.9c0,0-2.6,9.3-21.9,21.3
	c2.7,14.6,8,33.2,8,33.2l-26.6,10.6l-14-35.2c0,0-25.3,6-33.9,2c-7.3,15.9-16.6,35.2-16.6,35.2l-25.3-11.3l10.6-33.2
	c0,0-22.6-12.6-23.9-21.9c-15.9,6-33.2,14.6-33.2,14.6l-13.3-23.9l29.2-19.9c0,0-7.3-24.6-2-32.6c-11.3-1.3-36.6-7.3-36.6-7.3
	l4-27.2l37.2,1.3c0,0,6-25.3,17.3-28.6C-299.8,207.4-309.8,190.1-309.8,190.1z M-188.2,210.1c0,0-7.3,22.6-14.6,41.9
	c29.9,19.3,17.3,63.1-19.3,63.8c-8,22.6-13.9,43.2-13.9,43.2C-128.4,362.2-116.4,244.6-188.2,210.1z M-214.1,271.2
	c-6.7-6.7-29.2,6.7-11.3,21.3C-200.1,299.1-204.7,269.2-214.1,271.2z M-252.3,354.7c0,0,7.2-22.6,14.4-42c-30-19.1-17.6-63,19-63.9
	c7.9-22.6,13.7-43.3,13.7-43.3C-312.9,203-324.3,320.6-252.3,354.7z"/>
</svg>
