<?xml version="1.0" encoding="UTF-8" standalone="no"?>
<!DOCTYPE svg PUBLIC "-//W3C//DTD SVG 20010904//EN"
              "http://www.w3.org/TR/2001/REC-SVG-20010904/DTD/svg10.dtd">

<svg xmlns="http://www.w3.org/2000/svg" width="3.6in" height="3.6in" viewBox="926.72998046875 419.7249755859375 70.9100341796875 70.9100341796875">
  <path id="pokemon" fill="none" stroke="black" stroke-width="1" d="M 937.45,430.18            C 937.45,430.18 943.27,425.64 943.27,425.64              943.27,425.64 949.64,432.91 949.64,432.91              949.64,432.91 955.64,430.55 958.18,430.18              958.55,428.18 958.91,420.18 958.91,420.18              958.91,420.18 966.18,420.55 966.18,420.55              966.18,420.55 966.73,430.36 966.73,430.36              966.73,430.36 972.36,431.64 974.36,433.09              977.82,429.82 982.55,425.64 982.55,425.64              982.55,425.64 988.00,430.73 988.00,430.73              988.00,430.73 981.45,439.45 981.45,439.45              981.45,439.45 984.55,442.00 985.64,446.00              990.55,446.18 996.18,445.82 996.18,445.82              996.18,445.82 997.64,453.09 997.64,453.09              997.64,453.09 987.45,455.45 987.45,455.45              987.45,455.45 987.82,463.09 986.00,463.64              989.27,465.82 994.91,469.82 994.91,469.82              994.91,469.82 990.36,476.18 990.36,476.18              990.36,476.18 981.27,471.82 981.27,471.82              981.27,471.82 980.55,474.36 975.27,477.64              976.00,481.64 977.45,486.73 977.45,486.73              977.45,486.73 970.18,489.64 970.18,489.64              970.18,489.64 966.36,480.00 966.36,480.00              966.36,480.00 959.45,481.64 957.09,480.55              955.09,484.91 952.55,490.18 952.55,490.18              952.55,490.18 945.64,487.09 945.64,487.09              945.64,487.09 948.55,478.00 948.55,478.00              948.55,478.00 942.36,474.55 942.00,472.00              937.64,473.64 932.91,476.00 932.91,476.00              932.91,476.00 929.27,469.45 929.27,469.45              929.27,469.45 937.27,464.00 937.27,464.00              937.27,464.00 935.27,457.27 936.73,455.09              933.64,454.73 926.73,453.09 926.73,453.09              926.73,453.09 927.82,445.64 927.82,445.64              927.82,445.64 938.00,446.00 938.00,446.00              938.00,446.00 939.64,439.09 942.73,438.18              940.18,434.91 937.45,430.18 937.45,430.18 Z            M 966.18,434.91            C 966.18,434.91 964.55,441.45 962.73,446.36              955.82,444.73 948.00,456.73 957.45,462.91              955.82,467.27 953.64,474.91 953.64,474.91              926.36,458.73 949.45,428.36 966.18,434.91 Z            M 970.73,435.64            C 970.73,435.64 968.73,441.82 966.73,447.09              974.91,452.36 971.45,464.36 961.45,464.55              959.27,470.73 957.64,476.36 957.64,476.36              987.09,477.27 990.36,445.09 970.73,435.64 Z            M 964.00,452.00            C 962.18,450.18 956.00,453.82 960.91,457.82              967.82,459.64 966.55,451.45 964.00,452.00 Z"/>
</svg>
