<?xml version="1.0" encoding="UTF-8" standalone="no"?>
<!DOCTYPE svg PUBLIC "-//W3C//DTD SVG 20010904//EN"
              "http://www.w3.org/TR/2001/REC-SVG-20010904/DTD/svg10.dtd">

<svg xmlns="http://www.w3.org/2000/svg" width="3.6in" height="3.6in" viewBox="874.5499877929688 658.9537658691406 112.63250732421875 112.63250732421875">
  <path id="sharingan" fill="none" stroke="black" stroke-width="1" d="M 913.82,683.09
           C 913.82,683.09 890.18,691.82 894.36,723.09
             892.73,724.91 913.82,712.91 913.82,712.91
             913.82,712.91 916.55,702.00 925.09,700.00
             924.55,704.00 924.91,685.82 913.82,683.09 Z
           M 932.91,699.27
           C 932.91,699.27 941.09,700.55 945.64,709.27
             958.36,710.18 962.55,698.00 962.55,698.00
             962.55,698.00 947.82,673.45 922.55,679.64
             929.64,693.45 932.91,699.27 932.91,699.27 Z
           M 965.45,707.64
           C 965.45,707.64 972.73,732.00 947.27,747.27
             935.64,745.09 936.36,730.18 936.36,730.18
             936.36,730.18 944.91,726.91 945.82,717.45
             955.27,713.27 965.45,707.64 965.45,707.64 Z
           M 915.09,721.27
           C 915.09,721.27 917.82,730.91 927.82,730.91
             934.55,748.00 938.00,750.18 938.00,750.18
             938.00,750.18 914.91,759.64 897.64,731.64
             903.09,720.36 915.09,721.27 915.09,721.27 Z
           M 930.18,711.82
           C 928.18,710.73 923.64,716.18 929.82,718.91
             935.27,719.27 935.09,710.91 930.18,711.82 Z
           M 948.00,758.36
           C 948.00,758.36 953.27,766.73 953.27,766.73
             953.27,766.73 960.55,762.73 960.55,762.73
             960.55,762.73 959.27,759.64 956.55,752.55
             962.18,749.64 963.27,748.00 963.27,748.00
             963.27,748.00 972.00,753.09 972.00,753.09
             972.00,753.09 976.00,747.09 976.00,747.09
             976.00,747.09 976.55,745.82 969.09,738.91
             972.91,733.82 972.55,731.09 972.55,731.09
             972.55,731.09 982.91,732.00 982.91,732.00
             982.91,732.00 985.45,723.82 985.45,723.82
             985.45,723.82 975.45,721.27 975.45,721.27
             975.45,721.27 976.55,715.64 975.82,712.36
             994.00,706.55 984.91,709.64 984.91,709.64
             984.91,709.64 984.18,701.45 984.18,701.45
             984.18,701.45 973.82,702.36 973.82,702.36
             973.82,702.36 972.91,698.00 970.73,694.55
             975.45,690.91 978.55,687.82 978.55,687.82
             978.55,687.82 972.91,680.73 972.91,680.73
             972.91,680.73 964.91,686.36 964.91,686.36
             964.91,686.36 961.27,680.55 958.73,679.27
             961.09,674.73 962.91,670.55 962.91,670.55
             962.91,670.55 956.36,666.36 956.36,666.36
             956.36,666.36 949.82,674.00 949.82,674.00
             949.82,674.00 947.64,673.09 942.00,671.64
             941.64,668.36 941.45,660.36 941.45,660.36
             941.45,660.36 933.82,659.27 933.82,659.27
             933.82,659.27 931.45,669.45 931.45,669.45
             931.45,669.45 927.45,669.27 922.36,670.73
             920.55,666.36 918.00,660.55 918.00,660.55
             918.00,660.55 910.91,662.91 910.91,662.91
             910.91,662.91 912.91,672.73 912.91,672.73
             912.91,672.73 906.73,676.55 904.18,677.82
             901.45,675.45 897.64,670.36 897.64,670.36
             897.64,670.36 890.91,675.82 890.91,675.82
             890.91,675.82 896.73,684.00 896.73,684.00
             896.73,684.00 891.45,691.09 891.45,691.09
             891.45,691.09 882.36,688.18 882.36,688.18
             882.36,688.18 878.91,695.09 878.91,695.09
             878.91,695.09 886.91,700.36 886.91,700.36
             886.91,700.36 885.82,702.73 885.45,708.00
             879.82,709.09 874.55,709.09 874.55,709.09
             874.55,709.09 874.91,718.55 874.91,718.55
             874.91,718.55 884.00,718.55 884.00,718.55
             884.00,718.55 884.91,724.73 886.91,727.45
             882.00,730.36 877.82,732.36 877.82,732.36
             877.82,732.36 880.36,740.00 880.36,740.00
             880.36,740.00 890.18,737.27 890.18,737.27
             890.18,737.27 892.55,742.36 895.27,744.18
             892.18,748.55 889.64,752.18 889.64,752.18
             889.64,752.18 895.27,757.82 895.27,757.82
             895.27,757.82 903.82,751.09 903.82,751.09
             903.82,751.09 906.73,754.91 909.82,755.27
             909.09,759.09 907.45,766.00 907.45,766.00
             907.45,766.00 915.45,769.09 915.45,769.09
             915.45,769.09 920.18,760.36 920.18,760.36
             920.18,760.36 924.73,762.73 927.82,760.73
             929.27,765.82 929.27,770.73 929.27,770.73
             929.27,770.73 938.00,771.27 938.00,771.27
             938.00,771.27 939.09,759.45 939.09,759.45
             939.09,759.45 942.36,760.91 948.00,758.36 Z"></path>
</svg>
