<?xml version="1.0" encoding="utf-8"?>
<!-- Generator: Adobe Illustrator 19.0.0, SVG Export Plug-In . SVG Version: 6.00 Build 0)  -->
<svg version="1.1" id="Layer_1" xmlns="http://www.w3.org/2000/svg" xmlns:xlink="http://www.w3.org/1999/xlink" x="0px" y="0px"
	 viewBox="-349 151.8 259.2 259.2" style="enable-background:new -349 151.8 259.2 259.2;" xml:space="preserve">
<!-- <style type="text/css">
	.st0{stroke:#000000;}
</style> -->
<g>
	<path fill="#525249" d="M-115.9,274.7c10.4-3.3,17-5.4,20.9-6.6l-1.6-18.5l-23.8,2.1c0,0-2.1-10-7.1-18c10.9-8.4,18-15.5,18-15.5
		l-13-16.3l-18.4,13c0,0-8.4-13.4-14.2-16.3c5.4-10.4,9.6-20.1,9.6-20.1l-15.1-9.6l-15.1,17.6c0,0-5-2.1-18-5.4
		c-0.8-7.5-1.3-26-1.3-26l-17.6-2.5l-5.5,23.4c0,0-9.2-0.4-20.9,2.9c-4.2-10.1-10-23.4-10-23.4l-16.3,5.4l4.6,22.6
		c0,0-14.2,8.8-20.1,11.7c-6.3-5.5-15.1-17.2-15.1-17.2l-15.5,12.6l13.4,18.8l-12.2,16.3l-20.9-6.7L-339,235l18.4,12.1
		c0,0-2.5,5.5-3.4,17.6c-13,2.5-25.1,2.5-25.1,2.5l0.8,21.8h20.9c0,0,2.1,14.2,6.7,20.5c-11.3,6.7-20.9,11.3-20.9,11.3l5.8,17.6
		l22.6-6.3c0,0,5.5,11.7,11.7,15.9c-7.1,10.1-13,18.4-13,18.4l13,13l19.7-15.5c0,0,6.7,8.8,13.8,9.6c-1.7,8.8-5.5,24.7-5.5,24.7
		l18.4,7.1l10.9-20.1c0,0,10.5,5.5,17.6,0.9c3.3,11.7,3.3,23,3.3,23l20.1,1.2l2.5-27.2c0,0,7.5,3.4,20.5-2.5l12.1,19.3l16.8-9.2
		c0,0-2.9-7.1-9.2-23.4c13-6.7,15.5-10.5,15.5-10.5l20.1,11.7l9.2-13.8c0,0,1.3-2.9-15.9-18.8c8.8-11.7,8-18,8-18l23.8,2.1l5.8-18.8
		l-23-5.9C-116.8,295.2-114.3,282.3-115.9,274.7z M-148.4,246.3c-5.7,26.6-39.9,24.1-39.9,24.1s-7-19.9-28.7-22.5
		c-9.1-22-21.4-45.7-21.4-45.7S-182.1,186.8-148.4,246.3z M-221.8,289.8c-14.2-6.3-3.8-18.8,0.8-16.3
		C-209.7,271.4-209.3,290.6-221.8,289.8z M-304.9,302.1c0,0-21.9-53.1,42.4-93c26,12.5,24,40.1,24,40.1s-22.2,6.4-22.1,29.4
		C-299.9,294.1-304.9,302.1-304.9,302.1z M-295.9,319.1c12.5-26,40.2-23.9,40.2-23.9s6.3,22.2,29.3,22.2
		c15.5,39.3,23.4,44.3,23.4,44.3S-256.1,383.5-295.9,319.1z M-181.7,355c-26.8-5-25.1-39.3-25.1-39.3s19.7-7.5,21.8-29.3
		c21.7-9.6,45.2-22.6,45.2-22.6S-123.1,319.9-181.7,355z"/>
</g>
</svg>
