<svg xmlns="http://www.w3.org/2000/svg" width="3.6in" height="3.6in" viewBox="908.8823547363281 501.327392578125 100.75897216796875 100.75897216796875">
  <path id="slices" fill="rgb(247, 144, 24)" stroke="rgb(255, 230, 99)" stroke-width="0" d="M 914.88,537.25
           C 914.88,537.25 948.00,548.88 948.00,548.88
             948.00,548.88 949.19,548.56 949.69,551.06
             950.19,553.56 949.00,554.50 949.00,554.50
             949.00,554.50 915.75,567.00 915.75,567.00
             915.75,567.00 911.12,567.62 910.25,563.12
             909.38,558.62 909.38,542.38 909.38,542.38
             911.62,537.25 914.88,537.25 914.88,537.25 Z
           M 914.73,533.91
           C 914.73,533.91 947.91,547.45 947.91,547.45
             947.91,547.45 948.82,548.55 950.91,546.73
             953.00,544.91 952.73,543.18 952.73,543.18
             952.73,543.18 933.64,511.82 933.64,511.82
             933.64,511.82 930.27,509.82 926.73,513.27
             923.18,516.73 915.09,524.82 914.64,527.45
             914.27,528.73 913.64,529.45 914.73,533.91 Z
           M 937.09,512.18
           C 937.09,512.18 954.00,541.91 954.00,541.91
             954.00,541.91 954.09,543.09 955.82,543.09
             957.55,543.09 959.64,542.64 960.09,541.09
             960.55,539.55 965.64,507.09 965.64,507.09
             965.64,507.09 966.00,501.82 959.27,501.36
             952.55,500.91 939.55,505.27 939.55,505.27
             939.55,505.27 934.00,510.55 937.09,512.18 Z
           M 967.73,506.91
           C 967.73,506.91 962.36,540.27 962.36,540.27
             962.36,540.27 961.45,542.73 963.09,543.36
             964.73,544.00 966.27,545.82 968.27,543.55
             970.27,541.27 993.36,521.18 993.36,521.18
             993.36,521.18 997.00,518.45 991.91,513.91
             986.82,509.36 974.36,504.18 974.36,504.18
             974.36,504.18 968.36,502.91 967.73,506.91 Z
           M 994.55,523.18
           C 994.55,523.18 968.27,545.45 968.27,545.45
             968.27,545.45 967.55,547.09 968.09,548.36
             968.64,549.64 967.73,550.82 970.18,550.82
             972.64,550.82 1005.27,550.36 1005.27,550.36
             1005.27,550.36 1009.91,548.91 1008.36,543.36
             1006.82,537.82 1005.45,528.91 1000.27,524.91
             996.91,521.18 995.09,523.00 994.55,523.18 Z
           M 1005.55,553.00
           C 1005.55,553.00 971.09,552.73 971.09,552.73
             971.09,552.73 968.82,552.82 968.36,554.64
             967.91,556.45 966.91,557.55 969.45,559.73
             972.00,561.91 995.00,580.27 995.00,580.27
             995.00,580.27 997.64,582.64 1001.18,579.55
             1004.73,576.45 1010.36,558.91 1008.91,556.91
             1007.45,554.91 1010.55,554.18 1005.55,553.00 Z
           M 967.73,560.18
           C 967.73,560.18 966.18,558.36 964.18,560.18
             962.18,562.00 961.64,560.64 962.18,564.45
             962.73,568.27 968.73,598.64 968.73,598.64
             968.73,598.64 970.64,601.00 975.91,599.73
             981.18,598.45 990.55,592.55 993.18,588.73
             995.82,584.91 995.00,583.27 992.91,581.64
             990.82,580.00 967.73,560.18 967.73,560.18 Z
           M 960.00,563.45
           C 960.00,563.45 960.73,561.36 957.73,561.45
             954.73,561.55 954.91,561.09 953.73,564.27
             952.55,567.45 937.82,591.73 937.82,591.73
             937.82,591.73 935.55,595.82 940.64,597.91
             945.73,600.00 953.45,603.00 961.55,601.82
             969.64,600.64 965.09,592.55 965.09,592.55
             965.09,592.55 960.00,563.45 960.00,563.45 Z
           M 952.45,562.00
           C 952.45,562.00 954.18,560.64 952.18,558.09
             950.18,555.55 950.09,555.82 946.82,557.18
             943.55,558.55 916.18,569.18 916.18,569.18
             916.18,569.18 912.73,570.64 914.82,577.45
             916.91,584.27 926.45,590.27 928.27,591.73
             930.09,593.18 933.09,593.45 934.64,591.73
             936.18,590.00 952.45,562.00 952.45,562.00 Z"></path>
</svg>
