<?xml version="1.0" encoding="utf-8"?>
<!-- Generator: Adobe Illustrator 19.0.0, SVG Export Plug-In . SVG Version: 6.00 Build 0)  -->
<svg version="1.1" id="Layer_1" xmlns="http://www.w3.org/2000/svg" xmlns:xlink="http://www.w3.org/1999/xlink" x="0px" y="0px"
	 viewBox="-349 151.8 259.2 259.2" style="enable-background:new -349 151.8 259.2 259.2;" xml:space="preserve">
<!-- <style type="text/css">
	.st0{fill:#525249;}
</style> -->
<path class="st0" fill="#525249" d="M-131.3,308l38.7,0.7l2.8-24.9c0,0-13.8-5.6-38.7-8.3c4.8-20.7-5.6-31.1-5.6-31.1l31.1-22.8l-16.6-22.8
	c0,0-16.6,7.6-33.9,14.5c-9-13.1-24.9-18.7-24.9-18.7l8.3-34.6l-22.8-8.3c0,0-9,19.4-13.8,33.2c-15.9,2-33.2,4.8-33.2,4.8
	l-15.2-33.2l-27,9.7c0,0,10.4,25.6,12.6,37.4c-9,0-23.5,17.9-23.5,17.9l-33.9-13.1l-12.4,22.8c0,0,15.9,13.1,29.7,22.1
	c-7.6,18-0.7,31.8-0.7,31.8l-38.7,9l5.5,27c0,0,18-2.1,39.4-4.9c-1.4,11,15.2,29,15.2,29l-19.4,27l21.4,17.3
	c0,0,11.8-11.7,24.9-31.1c11,13.2,30.4,12.5,30.4,12.5l2.8,40.1l30.4-2.1c0,0-1.4-20.1-0.7-40.8c19.3,2.8,30.4-10.4,30.4-10.4
	l27,28.4l19.4-21.4c0,0-13.2-15.2-24.9-30.4C-135.4,333-131.3,308-131.3,308z M-202.6,212.6c18.7,4.2,15.9,42.9-11.7,35.9
	C-243.4,232-215,205-202.6,212.6z M-252.4,223c-3.5,16.6,6.9,35.2,6.9,35.2c-21.4-12.4-36.6-6.2-36.6-6.2S-269.7,227.1-252.4,223z
	 M-284.9,296.3c-8.3-18.7,29-35.2,36-5.5C-245.4,319.8-289,314.2-284.9,296.3z M-255.8,334.3c19.3-1.4,30.4-23.5,30.4-23.5
	s-6.2,23.5,15.2,34.6C-220.6,351.6-251.7,348.2-255.8,334.3z M-233,276.2c0-11.1,25.6-18.7,26.3,3.5C-205.4,297.6-235,299-233,276.2
	z M-170.1,321.9c-9.7,13.8-40.1,9.6-31.1-17.3C-188,289.4-162.5,297.7-170.1,321.9z M-152.9,281.7c-16.5-15.2-32.4-11.7-32.4-11.7
	s12.4-7.6,17.9-26.3C-166,235.4-147.3,256.9-152.9,281.7z"/>
</svg>
