<?xml version="1.0" encoding="UTF-8" standalone="no"?>
<!DOCTYPE svg PUBLIC "-//W3C//DTD SVG 20010904//EN"
              "http://www.w3.org/TR/2001/REC-SVG-20010904/DTD/svg10.dtd">

<svg xmlns="http://www.w3.org/2000/svg" width="3.6in" height="3.6in" viewBox="826.5499877929688 728 68.17999267578125 68.17999267578125">
  <path id="three" fill="none" stroke="black" stroke-width="1" d="M 844.18,731.82
           C 844.18,731.82 851.27,729.27 851.27,729.27
             851.27,729.27 855.27,738.00 855.27,738.00
             855.27,738.00 859.82,737.27 864.00,736.73
             865.27,733.09 867.64,728.00 867.64,728.00
             867.64,728.00 873.64,730.18 873.64,730.18
             873.64,730.18 871.45,739.27 871.45,739.27
             871.45,739.27 875.64,740.73 878.00,744.18
             882.55,742.36 886.91,740.36 886.91,740.36
             886.91,740.36 891.27,746.36 891.27,746.36
             891.27,746.36 883.09,752.36 883.09,752.36
             883.09,752.36 885.82,755.09 884.55,760.55
             891.09,761.27 894.73,762.73 894.73,762.73
             894.73,762.73 894.00,769.27 894.00,769.27
             894.00,769.27 883.82,769.09 883.82,769.09
             883.82,769.09 882.73,775.64 879.64,776.00
             882.73,780.00 886.18,784.00 886.18,784.00
             886.18,784.00 881.09,789.64 881.09,789.64
             881.09,789.64 874.00,782.18 874.00,782.18
             874.00,782.18 871.09,785.64 866.00,784.91
             865.82,790.36 866.18,795.64 866.18,795.64
             866.18,795.64 858.18,796.18 858.18,796.18
             858.18,796.18 857.45,785.64 857.45,785.64
             857.45,785.64 852.36,785.82 849.45,782.36
             846.00,787.45 842.91,790.55 842.91,790.55
             842.91,790.55 837.27,786.00 837.27,786.00
             837.27,786.00 842.36,778.91 842.36,778.91
             842.36,778.91 838.00,774.18 838.36,771.27
             832.73,772.00 828.00,772.55 828.00,772.55
             828.00,772.55 826.55,765.45 826.55,765.45
             826.55,765.45 836.73,763.09 836.73,763.09
             836.73,763.09 834.91,759.45 836.91,754.73
             833.27,752.36 829.09,748.91 829.09,748.91
             829.09,748.91 832.36,742.91 832.36,742.91
             832.36,742.91 841.27,746.36 841.27,746.36
             841.27,746.36 845.09,741.64 847.45,741.64
             846.91,738.55 844.18,731.82 844.18,731.82 Z
           M 844.18,754.36
           C 844.18,754.36 847.45,747.82 852.00,746.73
             851.09,751.09 853.82,756.00 853.82,756.00
             848.18,752.73 844.18,754.36 844.18,754.36 Z
           M 869.64,759.09
           C 869.64,759.09 872.91,757.09 874.36,752.18
             874.73,750.00 879.64,755.64 878.18,762.18
             873.82,758.18 869.64,759.09 869.64,759.09 Z
           M 859.09,769.82
           C 859.09,769.82 857.45,776.00 863.09,778.91
             860.36,780.55 852.18,779.64 851.09,776.00
             856.18,775.64 859.09,769.82 859.09,769.82 Z
           M 865.09,744.00
           C 861.82,742.00 854.36,749.09 862.00,753.45
             869.27,755.27 870.00,745.09 865.09,744.00 Z
           M 857.09,760.73
           C 857.09,757.82 863.82,755.82 864.00,761.64
             864.36,766.36 856.55,766.73 857.09,760.73 Z
           M 843.45,766.00
           C 841.27,761.09 851.09,756.73 852.91,764.55
             853.82,772.18 842.36,770.73 843.45,766.00 Z
           M 865.45,768.18
           C 868.91,764.18 875.64,766.36 873.64,772.73
             871.09,776.36 863.09,775.27 865.45,768.18 Z"></path>
</svg>
