<?xml version="1.0" encoding="UTF-8" standalone="no"?>
<!-- Generator: Adobe Illustrator 19.0.0, SVG Export Plug-In . SVG Version: 6.00 Build 0)  -->

<svg
   xmlns:dc="http://purl.org/dc/elements/1.1/"
   xmlns:cc="http://creativecommons.org/ns#"
   xmlns:rdf="http://www.w3.org/1999/02/22-rdf-syntax-ns#"
   xmlns:svg="http://www.w3.org/2000/svg"
   xmlns="http://www.w3.org/2000/svg"
   xmlns:sodipodi="http://sodipodi.sourceforge.net/DTD/sodipodi-0.dtd"
   xmlns:inkscape="http://www.inkscape.org/namespaces/inkscape"
   version="1.1"
   id="Layer_1"
   x="0px"
   y="0px"
   viewBox="0 0 917.5426 921.0874"
   xml:space="preserve"
   sodipodi:docname="tomato.svg"
   inkscape:version="0.92.4 (5da689c313, 2019-01-14)"
   width="917.5426"
   height="921.0874"><metadata
   id="metadata2736"><rdf:RDF><cc:Work
       rdf:about=""><dc:format>image/svg+xml</dc:format><dc:type
         rdf:resource="http://purl.org/dc/dcmitype/StillImage" /><dc:title></dc:title></cc:Work></rdf:RDF></metadata><defs
   id="defs2734" /><sodipodi:namedview
   pagecolor="#ffffff"
   bordercolor="#666666"
   borderopacity="1"
   objecttolerance="10"
   gridtolerance="10"
   guidetolerance="10"
   inkscape:pageopacity="0"
   inkscape:pageshadow="2"
   inkscape:window-width="1920"
   inkscape:window-height="1001"
   id="namedview2732"
   showgrid="false"
   inkscape:zoom="0.66221111"
   inkscape:cx="386.40017"
   inkscape:cy="700.68279"
   inkscape:window-x="-9"
   inkscape:window-y="-9"
   inkscape:window-maximized="1"
   inkscape:current-layer="Layer_1"
   fit-margin-top="0"
   fit-margin-left="0"
   fit-margin-right="0"
   fit-margin-bottom="0" />
<path
   inkscape:connector-curvature="0"
   style="fill:#ff4800;fill-opacity:1;stroke:#ff4800;stroke-width:3.54117036;stroke-opacity:1"
   class="st0"
   d="m 850.73367,440.87572 64.80336,-13.45647 -8.4988,-55.24229 -68.69878,1.41657 -13.45638,-61.26222 56.3046,-46.38944 -32.93283,-45.32692 -66.21992,20.89288 L 749.10193,195.11854 791.95018,140.2304 746.62324,104.81861 691.735,142.70913 647.8245,108.35988 661.28104,49.576392 609.934,26.204662 574.52234,82.509302 520.69651,71.531642 510.7813,1.7705852 h -61.26238 c 0,0 0,57.7210768 -8.49879,59.8457768 -8.49884,2.47882 -69.76107,7.43647 -69.76107,7.43647 L 349.3039,12.748213 294.41565,26.204662 c 0,0 13.4565,72.23985 10.97766,75.781118 -18.41404,1.06268 -50.28457,25.85042 -50.28457,25.85042 l -56.30463,-46.389308 -34.34935,26.912988 26.91289,63.74108 -43.91051,37.89049 -63.741067,-23.37172 -23.371733,40.36933 47.80581,54.88814 -26.912907,46.38929 -67.282242,2.47883 -6.019997,46.38935 58.783441,31.87052 v 63.74109 l -64.803421,13.45646 4.9576316,51.34704 69.7610624,4.95753 16.997617,51.34699 -51.34697,43.91048 23.371733,52.76355 62.324592,-26.91301 35.41173,58.78354 -39.307,51.34685 42.84816,43.91061 61.26229,-48.86817 47.80574,34.3494 -18.41404,66.21993 42.8482,19.47643 41.78574,-59.84591 59.8458,19.47659 6.01998,69.76102 52.76341,1.06265 16.99766,-73.30212 54.8881,-4.95766 34.34938,64.80347 50.28454,-18.41417 -6.01996,-67.28223 51.34703,-30.4541 51.34696,51.34703 41.43165,-41.43178 -29.39169,-53.82569 37.89053,-46.38948 58.78351,36.82823 35.41166,-51.347 -51.347,-51.34696 23.37172,-54.88818 73.3023,3.54128 4.95756,-58.78352 -63.74109,-16.99762 z M 767.162,665.03192 C 671.55037,781.18225 512.55183,893.79148 277.77217,786.13994 76.987834,677.07184 87.965474,450.79098 87.965474,450.79098 c 0,0 -9.915292,-143.06322 123.586786,-268.06652 42.84819,-37.89063 148.02102,-96.674028 266.65021,-91.716328 118.62921,4.95754 273.0242,106.589248 310.91484,212.824338 57.72097,161.83139 43.20216,250.00662 -21.95531,361.19945 z"
   id="path817" />

<path
   style="fill:#ff4800;stroke-width:1.67960012"
   d="M 836.4789,458.11968 A 385.6362,385.6362 0 0 1 450.8427,843.75588 385.6362,385.6362 0 0 1 65.206488,458.11968 385.6362,385.6362 0 0 1 450.8427,72.483472 385.6362,385.6362 0 0 1 836.4789,458.11968 Z"
   id="circle2661"
   inkscape:connector-curvature="0" />
<path
   style="fill:#c92b00;stroke-width:1.67960012"
   d="m 450.8427,72.483442 c 212.30145,0 385.63619,171.991048 385.63619,385.636178 0,212.30146 -171.99106,385.6362 -385.63619,385.6362"
   id="path2663"
   inkscape:connector-curvature="0" />
<path
   style="fill:#ff794a;stroke-width:1.67960012"
   d="M 757.20175,458.11968 A 306.35906,306.35906 0 0 1 450.8427,764.47873 306.35906,306.35906 0 0 1 144.48364,458.11968 306.35906,306.35906 0 0 1 450.8427,151.76062 306.35906,306.35906 0 0 1 757.20175,458.11968 Z"
   id="circle2665"
   inkscape:connector-curvature="0" />
<path
   style="fill:#ef683f;stroke-width:1.67960012"
   d="m 450.8427,151.76055 c 169.30369,0 306.35907,137.05538 306.35907,306.35907 0,169.3037 -137.05538,306.35907 -306.35907,306.35907"
   id="path2667"
   inkscape:connector-curvature="0" />
<path
   style="fill:#b21010;stroke-width:1.67960012"
   d="M 696.73616,458.11968 A 245.89347,245.89347 0 0 1 450.8427,704.01314 245.89347,245.89347 0 0 1 204.94923,458.11968 245.89347,245.89347 0 0 1 450.8427,212.22621 245.89347,245.89347 0 0 1 696.73616,458.11968 Z"
   id="circle2669"
   inkscape:connector-curvature="0" />
<path
   style="fill:#a00000;stroke-width:1.67960012"
   d="m 450.8427,212.22617 c 135.71169,0 245.89345,110.18176 245.89345,245.89345 0,135.7117 -110.18176,245.89346 -245.89345,245.89346"
   id="path2671"
   inkscape:connector-curvature="0" />
<path
   style="fill:#ef683f;stroke-width:1.67960012"
   d="M 397.09548,192.07096 H 504.58989 V 716.1062 H 397.09548 Z"
   id="rect2673"
   inkscape:connector-curvature="0" />
<g
   id="g2679"
   transform="matrix(1.6796001,0,0,1.6796001,27.583456,-2.7626458)">
	<path
   style="fill:#ff794a"
   d="m 220,116 h 32 v 312 h -32 z"
   id="rect2675"
   inkscape:connector-curvature="0" />
	<path
   style="fill:#ff794a"
   d="m 308,274.39999 a 56,56 0 0 1 -56,56 56,56 0 0 1 -56,-56 56,56 0 0 1 56,-56 56,56 0 0 1 56,56 z"
   id="circle2677"
   inkscape:connector-curvature="0" />
</g>
<path
   style="fill:#ef683f;stroke-width:1.67960012"
   d="m 450.8427,364.06202 c 52.40352,0 94.0576,42.99777 94.0576,94.0576 0,52.40353 -41.65408,94.05762 -94.0576,94.05762"
   id="path2681"
   inkscape:connector-curvature="0" />
<g
   id="g2699"
   transform="matrix(1.6796001,0,0,1.6796001,27.583456,-2.7626458)">
	<path
   style="fill:#ffcd50"
   d="m 169.6,205.6 v 0 l 28,15.2 -8,-32.8 v 0 c -0.8,0 -1.6,-2.4 -2.4,-4 -4.8,-6.4 -13.6,-6.4 -19.2,-2.4 -6.4,4.8 -7.2,13.6 -2.4,20 0.8,1.6 2.4,3.2 4,4 z"
   id="path2683"
   inkscape:connector-curvature="0" />
	<path
   style="fill:#ffcd50"
   d="m 149.6,255.2 v 0 l 32.8,-0.8 -23.2,-22.4 v 0 c -1.6,-1.6 -3.2,-2.4 -4.8,-3.2 -7.2,-3.2 -15.2,0.8 -18.4,8 -2.4,7.2 0.8,15.2 8,18.4 1.6,-0.8 3.2,0 5.6,0 z"
   id="path2685"
   inkscape:connector-curvature="0" />
	<path
   style="fill:#ffcd50"
   d="m 158.4,312 v 0 l 24,-22.4 -32.8,-1.6 v 0 c -1.6,0 -4,0 -5.6,0.8 -7.2,2.4 -11.2,10.4 -8,17.6 2.4,7.2 10.4,11.2 17.6,8 1.6,0 3.2,-0.8 4.8,-2.4 z"
   id="path2687"
   inkscape:connector-curvature="0" />
	<path
   style="fill:#ffcd50"
   d="m 189.6,358.4 v 0 l 8,-31.2 -28,16 v 0 c -1.6,0.8 -3.2,2.4 -4.8,4 -4.8,6.4 -3.2,15.2 2.4,19.2 6.4,4.8 15.2,3.2 19.2,-2.4 2.4,-1.6 3.2,-4 3.2,-5.6 z"
   id="path2689"
   inkscape:connector-curvature="0" />
	<path
   style="fill:#ffcd50"
   d="m 334.4,205.6 v 0 l -28,15.2 8,-32.8 v 0 c 0.8,0 1.6,-2.4 2.4,-4 4.8,-6.4 13.6,-6.4 19.2,-2.4 6.4,4.8 7.2,13.6 2.4,20 -0.8,1.6 -2.4,3.2 -4,4 z"
   id="path2691"
   inkscape:connector-curvature="0" />
	<path
   style="fill:#ffcd50"
   d="m 354.4,255.2 v 0 l -32.8,-0.8 23.2,-22.4 v 0 c 1.6,-1.6 3.2,-2.4 4.8,-3.2 7.2,-3.2 15.2,0.8 18.4,8 2.4,7.2 -0.8,15.2 -8,18.4 -1.6,-0.8 -3.2,0 -5.6,0 z"
   id="path2693"
   inkscape:connector-curvature="0" />
	<path
   style="fill:#ffcd50"
   d="m 345.6,312 v 0 l -24,-22.4 32.8,-1.6 v 0 c 1.6,0 4,0 5.6,0.8 7.2,2.4 11.2,10.4 8,17.6 -2.4,7.2 -10.4,11.2 -17.6,8 -1.6,0 -3.2,-0.8 -4.8,-2.4 z"
   id="path2695"
   inkscape:connector-curvature="0" />
	<path
   style="fill:#ffcd50"
   d="m 314.4,358.4 v 0 l -8,-31.2 28,16 v 0 c 1.6,0.8 3.2,2.4 4.8,4 4.8,6.4 3.2,15.2 -2.4,19.2 -6.4,4.8 -15.2,3.2 -19.2,-2.4 -2.4,-1.6 -3.2,-4 -3.2,-5.6 z"
   id="path2697"
   inkscape:connector-curvature="0" />
</g>
<g
   id="g2701"
   transform="matrix(1.6796001,0,0,1.6796001,27.583456,-2.7626458)">
</g>
<g
   id="g2703"
   transform="matrix(1.6796001,0,0,1.6796001,27.583456,-2.7626458)">
</g>
<g
   id="g2705"
   transform="matrix(1.6796001,0,0,1.6796001,27.583456,-2.7626458)">
</g>
<g
   id="g2707"
   transform="matrix(1.6796001,0,0,1.6796001,27.583456,-2.7626458)">
</g>
<g
   id="g2709"
   transform="matrix(1.6796001,0,0,1.6796001,27.583456,-2.7626458)">
</g>
<g
   id="g2711"
   transform="matrix(1.6796001,0,0,1.6796001,27.583456,-2.7626458)">
</g>
<g
   id="g2713"
   transform="matrix(1.6796001,0,0,1.6796001,27.583456,-2.7626458)">
</g>
<g
   id="g2715"
   transform="matrix(1.6796001,0,0,1.6796001,27.583456,-2.7626458)">
</g>
<g
   id="g2717"
   transform="matrix(1.6796001,0,0,1.6796001,27.583456,-2.7626458)">
</g>
<g
   id="g2719"
   transform="matrix(1.6796001,0,0,1.6796001,27.583456,-2.7626458)">
</g>
<g
   id="g2721"
   transform="matrix(1.6796001,0,0,1.6796001,27.583456,-2.7626458)">
</g>
<g
   id="g2723"
   transform="matrix(1.6796001,0,0,1.6796001,27.583456,-2.7626458)">
</g>
<g
   id="g2725"
   transform="matrix(1.6796001,0,0,1.6796001,27.583456,-2.7626458)">
</g>
<g
   id="g2727"
   transform="matrix(1.6796001,0,0,1.6796001,27.583456,-2.7626458)">
</g>
<g
   id="g2729"
   transform="matrix(1.6796001,0,0,1.6796001,27.583456,-2.7626458)">
</g>
</svg>