<?xml version="1.0" encoding="UTF-8" standalone="no"?>
<!DOCTYPE svg PUBLIC "-//W3C//DTD SVG 20010904//EN"
              "http://www.w3.org/TR/2001/REC-SVG-20010904/DTD/svg10.dtd">

<svg xmlns="http://www.w3.org/2000/svg" width="3.6in" height="3.6in" viewBox="835.6400146484375 582.6400146484375 94.719970703125 94.719970703125">
  <path id="wheel" fill="none" stroke="black" stroke-width="1" d="M 857.09,590.91
           C 857.09,590.91 864.00,587.09 864.00,587.09
             864.00,587.09 870.00,596.00 870.00,596.00
             870.00,596.00 876.18,593.45 878.00,593.64
             879.82,593.82 879.27,582.73 879.27,582.73
             879.27,582.73 888.36,582.73 888.36,582.73
             888.36,582.73 888.36,594.00 888.36,594.00
             888.36,594.00 896.55,594.55 898.18,596.18
             898.18,595.82 904.18,587.27 904.18,587.27
             904.18,587.27 911.27,592.18 911.27,592.18
             911.27,592.18 906.18,600.91 906.18,600.91
             906.18,600.91 911.64,604.91 912.73,608.36
             912.73,608.91 922.00,603.27 922.00,603.27
             922.00,603.27 927.09,610.55 927.09,610.55
             927.09,610.55 917.82,616.00 917.82,616.00
             917.82,616.00 920.18,621.45 919.64,626.00
             919.82,625.27 930.36,626.00 930.36,626.00
             930.36,626.00 930.18,634.91 930.18,634.91
             930.18,634.91 920.00,635.27 920.00,635.27
             920.00,635.27 919.64,640.73 917.64,644.36
             917.64,644.91 926.36,650.91 926.36,650.91
             926.36,650.91 922.00,657.82 922.00,657.82
             922.00,657.82 913.27,652.73 913.27,652.73
             913.27,652.73 909.09,659.64 905.64,660.36
             905.82,659.64 910.55,669.45 910.55,669.45
             910.55,669.45 902.91,673.27 902.91,673.27
             902.91,673.27 897.27,664.91 897.27,664.91
             897.27,664.91 894.36,667.64 887.45,666.91
             886.73,666.91 886.73,677.27 886.73,677.27
             886.73,677.27 878.73,677.27 878.73,677.27
             878.73,677.27 878.73,666.55 878.73,666.55
             878.73,666.55 870.55,665.64 869.64,663.45
             870.18,663.82 862.73,673.64 862.73,673.64
             862.73,673.64 855.45,668.91 855.45,668.91
             855.45,668.91 860.73,660.00 860.73,660.00
             860.73,660.00 853.82,653.64 853.64,652.36
             853.45,651.09 844.55,657.09 844.55,657.09
             844.55,657.09 840.55,649.27 840.55,649.27
             840.55,649.27 849.09,644.18 849.09,644.18
             849.09,644.18 846.18,638.91 847.09,634.55
             847.45,634.00 835.64,634.55 835.64,634.55
             835.64,634.55 835.64,624.91 835.64,624.91
             835.64,624.91 845.82,624.73 845.82,624.73
             845.82,624.73 847.64,617.27 849.09,615.64
             848.55,616.18 840.73,609.09 840.73,609.09
             840.73,609.09 844.55,602.73 844.55,602.73
             844.55,602.73 854.00,607.45 854.00,607.45
             854.00,607.45 857.82,602.18 861.27,600.91
             861.82,601.09 857.09,590.91 857.09,590.91 Z
           M 890.91,602.18
           C 897.45,607.27 872.36,624.91 859.45,616.55
             853.45,610.00 883.82,595.82 890.91,602.18 Z
           M 907.82,615.82
           C 902.18,611.64 889.64,645.64 902.36,650.18
             911.64,650.73 916.73,620.36 907.82,615.82 Z
           M 857.09,636.18
           C 849.82,637.45 868.36,662.91 883.27,658.55
             890.36,652.36 863.09,628.73 857.09,636.18 Z
           M 883.27,626.36
           C 880.73,626.00 876.91,633.27 883.45,633.27
             885.27,634.55 890.55,628.55 883.27,626.36 Z"></path>
</svg>
