<?xml version="1.0" encoding="utf-8"?>
<!-- Generator: Adobe Illustrator 19.0.0, SVG Export Plug-In . SVG Version: 6.00 Build 0)  -->
<svg version="1.1" id="Layer_1" xmlns="http://www.w3.org/2000/svg" xmlns:xlink="http://www.w3.org/1999/xlink" x="0px" y="0px"
	 viewBox="-349 151.8 259.2 259.2" style="enable-background:new -349 151.8 259.2 259.2;" xml:space="preserve">
<!-- <style type="text/css">
	.st0{fill:#525249;stroke:#000000;}
</style> -->
<path class="st0" fill="#525249" d="M-90.3,294.8l0.5-24.4c0,0-28.8-2-29.3,0c1.5-12.5-5-27.4-5-27.4l25.4-14.9l-13.9-19.9c0,0-25.4,15.4-25.4,13.9
	c-3-9.4-17.9-20.4-17.9-20.4l13.9-23.9l-19.4-13.4c0,0-16.4,23.4-16.4,24.4c-4.5-4.5-26.9-6-26.9-6V152h-24.9c0,0,1.5,30.3-3.5,29.9
	c-5-0.5-21.9,6.5-21.9,6.5l-16.4-24.4l-18.9,10.5c0,0,12.9,27.9,11.4,27.4c-9.4,3.5-19.9,17.9-19.9,17.9l-25.9-12.9l-10.5,17.4
	c0,0,21.4,19.4,22.9,17.9c-4,4.5-8.9,24.9-8.9,24.9l-27.9,0.5v26.4c0,0,32.3-1.5,31.3,0c-2.5,11.9,5.5,26.4,5.5,26.4l-23.4,13.9
	l10.9,21.4c0,0,24.4-16.4,24.9-12.9c0.5,3.5,19.4,20.9,19.4,20.9l-14.4,24.4l19.9,12.9c0,0,20.4-26.9,18.9-27.9
	c2.5,6,24.9,8.5,24.9,8.5v29.3h21.9c0,0,0-28.4,2-28.4c18.9,2,26.9-5.5,26.9-5.5l15.4,22.9l20.9-10.5c0,0-11.5-23.8-13.2-24.9
	c-0.1,0-0.1,0-0.2,0.1c0-0.1,0.1-0.1,0.2-0.1c9.4-2.2,20.7-20.8,20.7-20.8l23.9,13.9l11.9-18.9c0,0-23.9-16.4-23.9-17.9
	c5.5-9.9,6.5-24.9,6.5-24.9L-90.3,294.8z M-218.7,359.5c-40.8,11.9-91.5-57.7-71.6-61.2C-273.9,277.9-199.3,342.6-218.7,359.5z
	 M-218.2,290.3c-17.9,0-7.4-19.9-0.5-18.9C-198.7,277.4-213.2,293.9-218.2,290.3z M-283.8,244.6c-16.4-17.9,66.7-56.7,86.1-39.3
	C-179.9,219.2-248.5,267.5-283.8,244.6z M-166.4,336.6c-34.8-12.4-0.5-105.5,14.9-94C-127.1,255-141,338.1-166.4,336.6z"/>
</svg>
