<?xml version="1.0" encoding="UTF-8" standalone="no"?>
<!-- Generator: Adobe Illustrator 19.0.0, SVG Export Plug-In . SVG Version: 6.00 Build 0)  -->

<svg
   xmlns:dc="http://purl.org/dc/elements/1.1/"
   xmlns:cc="http://creativecommons.org/ns#"
   xmlns:rdf="http://www.w3.org/1999/02/22-rdf-syntax-ns#"
   xmlns:svg="http://www.w3.org/2000/svg"
   xmlns="http://www.w3.org/2000/svg"
   xmlns:sodipodi="http://sodipodi.sourceforge.net/DTD/sodipodi-0.dtd"
   xmlns:inkscape="http://www.inkscape.org/namespaces/inkscape"
   version="1.1"
   id="Layer_1"
   x="0px"
   y="0px"
   viewBox="0 0 917 934"
   xml:space="preserve"
   sodipodi:docname="tomato-svgrepo-com.svg"
   inkscape:version="0.92.4 (5da689c313, 2019-01-14)"
   width="917"
   height="934"><metadata
   id="metadata2736"><rdf:RDF><cc:Work
       rdf:about=""><dc:format>image/svg+xml</dc:format><dc:type
         rdf:resource="http://purl.org/dc/dcmitype/StillImage" /><dc:title></dc:title></cc:Work></rdf:RDF></metadata><defs
   id="defs2734" /><sodipodi:namedview
   pagecolor="#ffffff"
   bordercolor="#666666"
   borderopacity="1"
   objecttolerance="10"
   gridtolerance="10"
   guidetolerance="10"
   inkscape:pageopacity="0"
   inkscape:pageshadow="2"
   inkscape:window-width="1920"
   inkscape:window-height="1001"
   id="namedview2732"
   showgrid="false"
   inkscape:zoom="0.66221111"
   inkscape:cx="659.68437"
   inkscape:cy="511.05209"
   inkscape:window-x="-9"
   inkscape:window-y="-9"
   inkscape:window-maximized="1"
   inkscape:current-layer="Layer_1" />
<polygon
   style="fill:#4dc430"
   points="210.4,29.6 206.4,5.6 243.2,0 245.6,19.2 252,13.6 252,66.4 235.2,66.4 208,75.2 185.6,33.6 201.6,22.4 "
   id="polygon2657"
   transform="matrix(1.8227899,0,0,1.8227899,7.2410826,0.212943)" />
<polygon
   style="fill:#3aad1a"
   points="293.6,29.6 297.6,5.6 260.8,0 258.4,19.2 252,13.6 252,66.4 268.8,66.4 296,75.2 318.4,33.6 302.4,22.4 "
   id="polygon2659"
   transform="matrix(1.8227899,0,0,1.8227899,7.2410826,0.212943)" />
<circle
   style="fill:#ff4800;stroke-width:1.82278991"
   cx="466.58414"
   cy="500.38654"
   id="circle2661"
   r="418.51257" />
<path
   style="fill:#c92b00;stroke-width:1.82278991"
   d="m 466.58414,81.87393 c 230.40063,0 418.51256,186.65368 418.51256,418.51255 0,230.40064 -186.65369,418.51257 -418.51256,418.51257"
   id="path2663"
   inkscape:connector-curvature="0" />
<circle
   style="fill:#ff794a;stroke-width:1.82278991"
   cx="466.58414"
   cy="500.38654"
   id="circle2665"
   r="332.47687" />
<path
   style="fill:#ef683f;stroke-width:1.82278991"
   d="m 466.58414,167.9096 c 183.73722,0 332.47688,148.73966 332.47688,332.47688 0,183.73723 -148.73966,332.47688 -332.47688,332.47688"
   id="path2667"
   inkscape:connector-curvature="0" />
<circle
   style="fill:#b21010;stroke-width:1.82278991"
   cx="466.58414"
   cy="500.38654"
   id="circle2669"
   r="266.85645" />
<path
   style="fill:#a00000;stroke-width:1.82278991"
   d="m 466.58414,233.53005 c 147.28142,0 266.85643,119.57501 266.85643,266.85643 0,147.28143 -119.57501,266.85644 -266.85643,266.85644"
   id="path2671"
   inkscape:connector-curvature="0" />
<rect
   x="408.25485"
   y="211.65656"
   style="fill:#ef683f;stroke-width:1.82278991"
   width="116.65855"
   height="568.71045"
   id="rect2673" />
<g
   id="g2679"
   transform="matrix(1.8227899,0,0,1.8227899,7.2410826,0.212943)">
	<rect
   x="220"
   y="116"
   style="fill:#ff794a"
   width="32"
   height="312"
   id="rect2675" />
	<circle
   style="fill:#ff794a"
   cx="252"
   cy="274.39999"
   r="56"
   id="circle2677" />
</g>
<path
   style="fill:#ef683f;stroke-width:1.82278991"
   d="m 466.58414,398.31025 c 56.87104,0 102.07623,46.66343 102.07623,102.07623 0,56.87105 -45.20519,102.07624 -102.07623,102.07624"
   id="path2681"
   inkscape:connector-curvature="0" />
<g
   id="g2699"
   transform="matrix(1.8227899,0,0,1.8227899,7.2410826,0.212943)">
	<path
   style="fill:#ffcd50"
   d="m 169.6,205.6 v 0 l 28,15.2 -8,-32.8 v 0 c -0.8,0 -1.6,-2.4 -2.4,-4 -4.8,-6.4 -13.6,-6.4 -19.2,-2.4 -6.4,4.8 -7.2,13.6 -2.4,20 0.8,1.6 2.4,3.2 4,4 z"
   id="path2683"
   inkscape:connector-curvature="0" />
	<path
   style="fill:#ffcd50"
   d="m 149.6,255.2 v 0 l 32.8,-0.8 -23.2,-22.4 v 0 c -1.6,-1.6 -3.2,-2.4 -4.8,-3.2 -7.2,-3.2 -15.2,0.8 -18.4,8 -2.4,7.2 0.8,15.2 8,18.4 1.6,-0.8 3.2,0 5.6,0 z"
   id="path2685"
   inkscape:connector-curvature="0" />
	<path
   style="fill:#ffcd50"
   d="m 158.4,312 v 0 l 24,-22.4 -32.8,-1.6 v 0 c -1.6,0 -4,0 -5.6,0.8 -7.2,2.4 -11.2,10.4 -8,17.6 2.4,7.2 10.4,11.2 17.6,8 1.6,0 3.2,-0.8 4.8,-2.4 z"
   id="path2687"
   inkscape:connector-curvature="0" />
	<path
   style="fill:#ffcd50"
   d="m 189.6,358.4 v 0 l 8,-31.2 -28,16 v 0 c -1.6,0.8 -3.2,2.4 -4.8,4 -4.8,6.4 -3.2,15.2 2.4,19.2 6.4,4.8 15.2,3.2 19.2,-2.4 2.4,-1.6 3.2,-4 3.2,-5.6 z"
   id="path2689"
   inkscape:connector-curvature="0" />
	<path
   style="fill:#ffcd50"
   d="m 334.4,205.6 v 0 l -28,15.2 8,-32.8 v 0 c 0.8,0 1.6,-2.4 2.4,-4 4.8,-6.4 13.6,-6.4 19.2,-2.4 6.4,4.8 7.2,13.6 2.4,20 -0.8,1.6 -2.4,3.2 -4,4 z"
   id="path2691"
   inkscape:connector-curvature="0" />
	<path
   style="fill:#ffcd50"
   d="m 354.4,255.2 v 0 l -32.8,-0.8 23.2,-22.4 v 0 c 1.6,-1.6 3.2,-2.4 4.8,-3.2 7.2,-3.2 15.2,0.8 18.4,8 2.4,7.2 -0.8,15.2 -8,18.4 -1.6,-0.8 -3.2,0 -5.6,0 z"
   id="path2693"
   inkscape:connector-curvature="0" />
	<path
   style="fill:#ffcd50"
   d="m 345.6,312 v 0 l -24,-22.4 32.8,-1.6 v 0 c 1.6,0 4,0 5.6,0.8 7.2,2.4 11.2,10.4 8,17.6 -2.4,7.2 -10.4,11.2 -17.6,8 -1.6,0 -3.2,-0.8 -4.8,-2.4 z"
   id="path2695"
   inkscape:connector-curvature="0" />
	<path
   style="fill:#ffcd50"
   d="m 314.4,358.4 v 0 l -8,-31.2 28,16 v 0 c 1.6,0.8 3.2,2.4 4.8,4 4.8,6.4 3.2,15.2 -2.4,19.2 -6.4,4.8 -15.2,3.2 -19.2,-2.4 -2.4,-1.6 -3.2,-4 -3.2,-5.6 z"
   id="path2697"
   inkscape:connector-curvature="0" />
</g>
<g
   id="g2701"
   transform="matrix(1.8227899,0,0,1.8227899,7.2410826,0.212943)">
</g>
<g
   id="g2703"
   transform="matrix(1.8227899,0,0,1.8227899,7.2410826,0.212943)">
</g>
<g
   id="g2705"
   transform="matrix(1.8227899,0,0,1.8227899,7.2410826,0.212943)">
</g>
<g
   id="g2707"
   transform="matrix(1.8227899,0,0,1.8227899,7.2410826,0.212943)">
</g>
<g
   id="g2709"
   transform="matrix(1.8227899,0,0,1.8227899,7.2410826,0.212943)">
</g>
<g
   id="g2711"
   transform="matrix(1.8227899,0,0,1.8227899,7.2410826,0.212943)">
</g>
<g
   id="g2713"
   transform="matrix(1.8227899,0,0,1.8227899,7.2410826,0.212943)">
</g>
<g
   id="g2715"
   transform="matrix(1.8227899,0,0,1.8227899,7.2410826,0.212943)">
</g>
<g
   id="g2717"
   transform="matrix(1.8227899,0,0,1.8227899,7.2410826,0.212943)">
</g>
<g
   id="g2719"
   transform="matrix(1.8227899,0,0,1.8227899,7.2410826,0.212943)">
</g>
<g
   id="g2721"
   transform="matrix(1.8227899,0,0,1.8227899,7.2410826,0.212943)">
</g>
<g
   id="g2723"
   transform="matrix(1.8227899,0,0,1.8227899,7.2410826,0.212943)">
</g>
<g
   id="g2725"
   transform="matrix(1.8227899,0,0,1.8227899,7.2410826,0.212943)">
</g>
<g
   id="g2727"
   transform="matrix(1.8227899,0,0,1.8227899,7.2410826,0.212943)">
</g>
<g
   id="g2729"
   transform="matrix(1.8227899,0,0,1.8227899,7.2410826,0.212943)">
</g>
</svg>