<?xml version="1.0" encoding="UTF-8" standalone="no"?>
<!-- Created with Inkscape (http://www.inkscape.org/) -->

<svg
   xmlns:dc="http://purl.org/dc/elements/1.1/"
   xmlns:cc="http://creativecommons.org/ns#"
   xmlns:rdf="http://www.w3.org/1999/02/22-rdf-syntax-ns#"
   xmlns:svg="http://www.w3.org/2000/svg"
   xmlns="http://www.w3.org/2000/svg"
   xmlns:sodipodi="http://sodipodi.sourceforge.net/DTD/sodipodi-0.dtd"
   xmlns:inkscape="http://www.inkscape.org/namespaces/inkscape"
   width="259mm"
   height="259mm"
   viewBox="0 0 259 259"
   version="1.1"
   id="svg835"
   inkscape:version="0.92.4 (5da689c313, 2019-01-14)"
   sodipodi:docname="help.svg">
  <defs
     id="defs829" />
  <sodipodi:namedview
     id="base"
     pagecolor="#ffffff"
     bordercolor="#666666"
     borderopacity="1.0"
     inkscape:pageopacity="0.0"
     inkscape:pageshadow="2"
     inkscape:zoom="0.35"
     inkscape:cx="577.14286"
     inkscape:cy="560"
     inkscape:document-units="mm"
     inkscape:current-layer="layer1"
     showgrid="false"
     inkscape:window-width="1920"
     inkscape:window-height="1001"
     inkscape:window-x="-9"
     inkscape:window-y="-9"
     inkscape:window-maximized="1" />
  <metadata
     id="metadata832">
    <rdf:RDF>
      <cc:Work
         rdf:about="">
        <dc:format>image/svg+xml</dc:format>
        <dc:type
           rdf:resource="http://purl.org/dc/dcmitype/StillImage" />
        <dc:title></dc:title>
      </cc:Work>
    </rdf:RDF>
  </metadata>
  <g
     inkscape:label="Layer 1"
     inkscape:groupmode="layer"
     id="layer1"
     transform="translate(0,-38)">
    <path
       inkscape:connector-curvature="0"
       style="fill:#f79018;stroke:#f79018;stroke-width:0.99070907"
       class="st0"
       d="m 238.92671,161.47369 18.12996,-3.7647 -2.3777,-15.45507 -19.21978,0.39631 -3.76467,-17.13926 15.75227,-12.97832 -9.21358,-12.681057 -18.52627,5.845177 -9.21362,-12.978279 11.9876,-15.355987 -12.68106,-9.907116 -15.35602,10.600582 -12.28479,-9.609847 3.76472,-16.445787 -14.3653,-6.538681 -9.90708,15.752284 -15.05879,-3.071209 -2.77397,-19.516968 h -17.1393 c 0,0 0,16.148558 -2.3777,16.742983 -2.37771,0.693496 -19.51697,2.08049 -19.51697,2.08049 L 98.642291,41.69696 83.28627,45.461655 c 0,0 3.764707,20.210457 3.071205,21.201191 -5.151676,0.297306 -14.068058,7.232145 -14.068058,7.232145 l -15.752276,-12.978284 -9.609878,7.529416 7.529389,17.832764 -12.284793,10.600582 -17.832764,-6.538681 -6.538681,11.294082 13.374574,15.35599 -7.529392,12.97828 -18.823473,0.6935 -1.6842073,12.97829 16.4457743,8.91638 v 17.83277 l -18.1299776,3.7647 1.3869907,14.3653 19.5169719,1.38696 4.755404,14.36529 -14.365282,12.28478 6.538681,14.7616 17.436478,-7.52942 9.907094,16.4458 -10.996871,14.36525 11.987579,12.28482 17.139281,-13.67179 13.374556,9.60989 -5.151675,18.52627 11.987587,5.4489 11.690354,-16.74302 16.742989,5.44894 1.6842,19.51696 14.76156,0.29731 4.75541,-20.50766 15.35598,-1.387 9.60989,18.12999 14.06805,-5.15171 -1.6842,-18.82347 14.3653,-8.52011 14.36528,14.3653 11.59128,-11.59132 -8.22288,-15.05875 10.60059,-12.97833 16.44579,10.30339 9.90708,-14.36529 -14.36529,-14.36528 6.53868,-15.356 20.5077,0.99074 1.38697,-16.4458 -17.83277,-4.7554 z m -23.38075,62.71192 C 188.79681,256.68085 144.31397,288.1854 78.629943,258.06786 22.456744,227.554 25.527945,164.24767 25.527945,164.24767 c 0,0 -2.773988,-40.02463 34.57573,-74.996655 11.987588,-10.600619 41.411665,-27.046379 74.600415,-25.659374 33.18876,1.386968 76.38366,29.820352 86.98428,59.541619 16.14853,45.27538 12.08662,69.94406 -6.14241,101.05235 z"
       id="path817" />
    <path
       inkscape:connector-curvature="0"
       style="fill:#ffe663;stroke-width:0.99070907"
       class="st1"
       d="M 216.23946,224.28464 C 189.49031,256.77993 145.00748,288.28448 79.323446,258.1669 23.150243,227.65308 26.221441,164.34675 26.221441,164.34675 c 0,0 -2.773985,-40.02463 34.575737,-74.996696 11.987587,-10.600581 41.411672,-27.046341 74.600412,-25.659336 33.18876,1.386968 76.38366,29.820315 86.98425,59.541582 16.04949,45.27542 11.98758,69.9441 -6.14238,101.05234 z"
       id="path819" />
    <path
       inkscape:connector-curvature="0"
       style="fill:#f79018;stroke-width:0.99070907"
       id="slices"
       class="st2"
       d="m 169.47797,244.09884 -30.6129,-58.74905 c 0,0 -2.08051,-1.08978 0.49535,-5.15167 2.57586,-4.06195 5.34982,-3.76471 5.34982,-3.76471 l 61.91934,25.65937 c 0,0 7.23218,5.15168 2.57586,12.48294 -4.65637,7.33122 -25.5603,29.72127 -25.5603,29.72127 -9.70896,4.0619 -14.16717,-0.19807 -14.16717,-0.19807 z m -4.06191,4.85448 -28.23519,-61.42398 c 0,0 0.19808,-2.6749 -5.05263,-2.87306 -5.25076,-0.19807 -7.13311,2.57587 -7.13311,2.57587 l -14.16714,67.86358 c 0,0 2.08051,7.1331 11.39317,6.83587 9.31265,-0.19807 30.91012,-0.89162 34.97202,-3.86374 2.08052,-1.38701 3.86379,-1.58517 8.22288,-9.11454 z m -58.9472,0.9907 14.95971,-62.81095 c 0,0 1.48609,-1.78328 -0.99069,-3.96283 -2.37771,-2.27866 -5.84518,-4.35913 -8.42103,-2.77401 -2.57585,1.58516 -51.516866,39.62839 -51.516866,39.62839 0,0 -7.331253,6.73681 1.287928,16.14854 8.619151,9.2136 32.198019,20.01234 32.198019,20.01234 0,0 14.662519,0.0992 12.482929,-6.24148 z M 57.527849,217.74596 107.95495,178.71203 c 0,0 4.45817,-2.27862 2.97212,-5.25075 -1.48607,-2.97213 -1.18885,-7.52938 -6.83591,-7.03403 -5.647019,0.49535 -63.405365,-1.58516 -63.405365,-1.58516 0,0 -8.5201,-0.89161 -7.430318,11.88851 1.089778,12.87925 11.591297,36.06184 11.591297,36.06184 0,0 6.63775,9.60989 12.681075,4.95352 z m -15.950415,-56.96577 64.990506,3.17029 c 0,0 3.0712,-1.28793 3.96286,-3.76472 0.89162,-2.47677 3.66559,-2.87305 0.29731,-6.04333 -3.36843,-3.17024 -48.941046,-44.58191 -48.941046,-44.58191 0,0 -8.222887,-3.96283 -13.275504,5.64706 -5.052617,9.70896 -14.563425,23.67795 -12.681075,35.86369 -0.198155,9.41173 4.557261,9.21357 5.647042,9.70892 z m 23.281645,-55.28158 47.157771,44.78007 c 0,0 3.26936,2.77398 6.24148,0.89162 2.97213,-1.98139 5.74611,-2.17955 5.0526,-8.42099 -0.6935,-6.24149 -8.71823,-61.225826 -8.71823,-61.225826 0,0 -0.59442,-6.637758 -9.41172,-7.034067 -8.916389,-0.297306 -39.232089,16.643914 -39.826515,21.300278 -0.693503,4.557245 -5.944255,1.585123 -0.495386,9.708915 z m 61.324901,38.83582 c 0,0 -0.19808,4.55725 4.95356,4.65632 5.15167,0.0992 4.0619,2.67494 8.22288,-3.26931 4.26005,-5.94426 35.0711,-55.578806 35.0711,-55.578806 0,0 0.39627,-5.746101 -8.52011,-10.798736 -8.91638,-5.052598 -29.42404,-8.916383 -38.04323,-7.133106 -8.52008,1.882353 -9.5108,5.151712 -8.71823,10.105234 0.79258,4.953558 7.03403,62.018404 7.03403,62.018404 z m 14.86064,5.44891 c 0,0 -3.66564,1.98139 0.49535,5.64702 4.26005,3.66563 3.36843,4.0619 9.11454,1.18886 5.74609,-2.87306 57.36207,-17.23834 57.36207,-17.23834 0,0 8.421,-2.6749 4.06191,-12.08663 -4.35914,-9.41178 -11.09597,-23.57891 -23.77703,-32.396211 -12.68108,-8.817306 -16.84207,8.222871 -16.84207,8.222871 z m 8.61919,11.69035 c 0,0 -4.06191,-0.2973 -4.65633,5.7461 -0.49538,6.04334 0,5.84521 6.14237,8.12384 6.24149,2.37771 57.65927,22.98445 57.65927,22.98445 0,0 6.63776,2.47677 12.58202,-9.70897 5.94425,-12.08663 0.49535,-32.6934 -0.0992,-36.95342 -0.59443,-4.26006 -4.45818,-8.61919 -8.71824,-8.22292 -4.45821,0.49539 -62.91002,18.03092 -62.91002,18.03092 z" />
  </g>
</svg>
