<?xml version="1.0" encoding="UTF-8" standalone="no"?>
<!-- Created with Inkscape (http://www.inkscape.org/) -->

<svg
   xmlns:dc="http://purl.org/dc/elements/1.1/"
   xmlns:cc="http://creativecommons.org/ns#"
   xmlns:rdf="http://www.w3.org/1999/02/22-rdf-syntax-ns#"
   xmlns:svg="http://www.w3.org/2000/svg"
   xmlns="http://www.w3.org/2000/svg"
   xmlns:sodipodi="http://sodipodi.sourceforge.net/DTD/sodipodi-0.dtd"
   xmlns:inkscape="http://www.inkscape.org/namespaces/inkscape"
   width="262.14539mm"
   height="262.14584mm"
   viewBox="0 0 262.14539 262.14585"
   version="1.1"
   id="svg914"
   sodipodi:docname="sharingan3.svg"
   inkscape:version="0.92.4 (5da689c313, 2019-01-14)">
  <defs
     id="defs908" />
  <sodipodi:namedview
     id="base"
     pagecolor="#ffffff"
     bordercolor="#666666"
     borderopacity="1.0"
     inkscape:pageopacity="0.0"
     inkscape:pageshadow="2"
     inkscape:zoom="0.70710678"
     inkscape:cx="247.46211"
     inkscape:cy="514.38886"
     inkscape:document-units="mm"
     inkscape:current-layer="layer1"
     showgrid="false"
     inkscape:window-width="1920"
     inkscape:window-height="1001"
     inkscape:window-x="-9"
     inkscape:window-y="-9"
     inkscape:window-maximized="1"
     fit-margin-top="0"
     fit-margin-left="0"
     fit-margin-right="0"
     fit-margin-bottom="0" />
  <metadata
     id="metadata911">
    <rdf:RDF>
      <cc:Work
         rdf:about="">
        <dc:format>image/svg+xml</dc:format>
        <dc:type
           rdf:resource="http://purl.org/dc/dcmitype/StillImage" />
        <dc:title></dc:title>
      </cc:Work>
    </rdf:RDF>
  </metadata>
  <g
     inkscape:label="Layer 1"
     inkscape:groupmode="layer"
     id="layer1"
     transform="translate(43.864672,-22.858051)">
    <g
       id="g1488"
       transform="matrix(0.96840534,0,0,0.96840534,-1.3858893,9.0045996)"
       inkscape:export-filename="D:\Projects\fun\processing\OClock\data\temp\g1488.png"
       inkscape:export-xdpi="96"
       inkscape:export-ydpi="96">
      <path
         style="opacity:1;fill:#b80000;fill-opacity:1;stroke:none;stroke-width:1.14057183;stroke-miterlimit:4;stroke-dasharray:none;stroke-opacity:1"
         d="M 226.83333,149.65488 A 135.349,135.349 0 0 1 91.484329,285.00388 135.349,135.349 0 0 1 -43.86467,149.65488 135.349,135.349 0 0 1 91.484329,14.305878 135.349,135.349 0 0 1 226.83333,149.65488 Z"
         id="path1484" />
      <path
         inkscape:connector-curvature="0"
         id="path1470"
         d="m 84.226773,284.76302 c -26.61683,-1.45002 -52.15712,-10.65093 -73.32868,-26.41671 -10.52136014,-7.83492 -20.2366401,-17.5252 -27.98416,-27.91214 -12.32707,-16.52666 -20.75393,-35.76038 -24.51118,-55.94507 -2.55217,-13.71074 -2.95493,-28.13976 -1.18246,-42.36232 2.81866,-22.61741 12.08686,-45.351819 26.049,-63.896866 5.4859,-7.286574 14.3688999,-16.694131 20.8884299,-22.12193 C 26.318563,27.658114 52.263973,16.993499 80.754603,14.623561 c 5.09934,-0.42418 16.3319,-0.42418 21.431237,0 17.53433,1.458559 33.30045,5.811351 48.94792,13.513794 14.01032,6.896561 24.6993,14.534966 35.73716,25.537989 8.64751,8.620223 14.83457,16.507663 20.96391,26.725403 2.80942,4.683371 7.49653,14.186116 9.46141,19.18229 12.69891,32.289933 12.69891,67.722553 0,100.012493 -2.00714,5.10362 -6.68105,14.56191 -9.54449,19.31458 -6.05166,10.04438 -12.21667,17.91574 -20.62871,26.33829 -10.51687,10.53002 -21.55823,18.56172 -34.50796,25.10175 -17.26633,8.72005 -34.84737,13.36166 -54.662567,14.43163 -5.57039,0.30078 -7.91944,0.29758 -13.72574,-0.0188 z m 19.149697,-9.38548 c 26.07001,-2.46891 50.40183,-12.80247 70.42371,-29.90846 1.64899,-1.40884 5.12077,-4.7013 7.71507,-7.31657 4.25608,-4.29049 4.70025,-4.82297 4.54626,-5.45029 -0.33745,-1.37478 -3.16211,-7.91585 -5.06902,-11.73836 -12.93657,-25.93197 -32.59747,-39.94488 -54.72956,-39.00736 -7.04886,0.29858 -15.05655,2.32682 -21.86003,5.53685 -1.65594,0.78131 -5.570647,2.91257 -8.699347,4.73613 -7.63199,4.44829 -12.04785,6.82729 -18.52083,9.97789 -28.45215,13.84854 -52.61673,18.25352 -72.7604101,13.26356 -10.50673,-2.6027 -20.6497499,-8.50683 -28.0560399,-16.33107 -1.74715,-1.84574 -2.07489,-2.0998 -1.76527,-1.36846 0.20912,0.49395 0.70753,1.67044 1.10759,2.61443 0.40005,0.94398 1.59665,3.452 2.65911,5.57338 6.20679,12.39289 13.8139399,22.94079 23.6646499,32.81284 12.2954101,12.32207 25.9794201,21.43349 41.8323001,27.85383 13.89794,5.6286 26.75764,8.41309 42.84307,9.27672 3.10346,0.16662 12.48574,-0.12891 16.668747,-0.52506 z m 93.05622,-55.41355 c 12.07168,-18.0594 18.973,-37.79137 21.00477,-60.05596 0.41944,-4.59627 0.41944,-16.04122 0,-20.6375 C 214.97678,112.30587 205.30466,88.816232 188.1857,68.229914 182.85162,61.815441 174.11821,53.567873 167.14105,48.355968 153.65347,38.280819 137.64212,30.720449 121.63272,26.867482 c -6.11104,-1.470738 -6.3231,-1.49959 -6.77211,-0.921397 -1.3763,1.772254 -6.76986,10.122936 -8.58248,13.287977 -17.176047,29.991413 -16.113837,54.812977 3.17203,74.123228 4.75184,4.75785 7.78201,7.063 12.95508,9.85537 25.74284,13.89568 45.94417,30.7715 58.0206,48.46933 7.21778,10.57754 11.68524,21.67184 13.05148,32.41146 0.5369,4.22038 0.41869,11.47932 -0.24496,15.04259 -0.36334,1.95081 -1.47541,6.3574 -1.92941,7.64527 -0.2384,0.67628 2.97781,-3.59801 5.12974,-6.81732 z M -0.14381714,192.71059 c 7.70316004,-0.81498 14.74122014,-2.4441 20.62009014,-4.773 3.28348,-1.30074 8.46452,-4.07793 11.19812,-6.00252 3.68311,-2.5931 9.20981,-8.22015 11.62942,-11.84058 4.94328,-7.39659 8.10573,-16.34696 9.40848,-26.62792 0.22789,-1.7985 0.52593,-6.78234 0.66231,-11.0752 0.76933,-24.21672 2.98764,-41.366145 7.3069,-56.48854 8.09633,-28.34652 24.06512,-45.694433 46.743597,-50.780537 l 2.6704,-0.59889 -1.30899,-0.17049 C 97.295853,22.856313 83.254443,22.950644 72.684803,24.595445 49.184083,28.252526 28.673683,37.517193 10.110853,52.860462 6.1928129,56.098951 -1.7337471,64.019261 -5.1383271,68.097622 -15.412307,80.404864 -22.944897,93.678144 -27.990947,108.36657 c -4.69239,13.65895 -6.83686,26.58897 -6.83686,41.22271 0,13.66946 1.91574,26.08666 5.95974,38.62917 0.58649,1.81901 1.16125,3.40864 1.27724,3.53252 0.26147,0.27925 5.55803,0.90609 10.31731,1.22104 4.15048,0.27466 13.3964299,0.13355 17.12969986,-0.26142 z M 95.119403,167.16658 c 4.01798,-0.81639 8.126887,-3.36825 10.530407,-6.53997 5.02272,-6.62806 5.0308,-15.32094 0.0205,-22.0735 -2.30695,-3.10917 -6.577407,-5.76031 -10.550907,-6.55013 -12.77737,-2.53976 -23.83954,8.53026 -21.22044,21.23548 1.9977,9.69082 11.47146,15.90896 21.22044,13.92812 z"
         style="fill:#000000;stroke-width:0.26458332" />
    </g>
  </g>
</svg>
