<?xml version="1.0" encoding="UTF-8" standalone="no"?>
<!-- Created with Inkscape (http://www.inkscape.org/) -->

<svg
   xmlns:dc="http://purl.org/dc/elements/1.1/"
   xmlns:cc="http://creativecommons.org/ns#"
   xmlns:rdf="http://www.w3.org/1999/02/22-rdf-syntax-ns#"
   xmlns:svg="http://www.w3.org/2000/svg"
   xmlns="http://www.w3.org/2000/svg"
   xmlns:sodipodi="http://sodipodi.sourceforge.net/DTD/sodipodi-0.dtd"
   xmlns:inkscape="http://www.inkscape.org/namespaces/inkscape"
   width="267.82446mm"
   height="267.90439mm"
   viewBox="0 0 267.82446 267.90439"
   version="1.1"
   id="svg8"
   sodipodi:docname="sharingan2.svg"
   inkscape:version="0.92.4 (5da689c313, 2019-01-14)">
  <defs
     id="defs2" />
  <sodipodi:namedview
     id="base"
     pagecolor="#ffffff"
     bordercolor="#666666"
     borderopacity="1.0"
     inkscape:pageopacity="0.0"
     inkscape:pageshadow="2"
     inkscape:zoom="0.24748737"
     inkscape:cx="-707.60062"
     inkscape:cy="269.0359"
     inkscape:document-units="mm"
     inkscape:current-layer="layer1"
     showgrid="false"
     fit-margin-top="0"
     fit-margin-left="0"
     fit-margin-right="0"
     fit-margin-bottom="0"
     inkscape:window-width="1920"
     inkscape:window-height="1001"
     inkscape:window-x="-9"
     inkscape:window-y="-9"
     inkscape:window-maximized="1" />
  <metadata
     id="metadata5">
    <rdf:RDF>
      <cc:Work
         rdf:about="">
        <dc:format>image/svg+xml</dc:format>
        <dc:type
           rdf:resource="http://purl.org/dc/dcmitype/StillImage" />
        <dc:title />
      </cc:Work>
    </rdf:RDF>
  </metadata>
  <g
     inkscape:label="Layer 1"
     inkscape:groupmode="layer"
     id="layer1"
     transform="translate(47.315163,-38.73205)">
    <path
       style="opacity:1;fill:#ff0000;fill-opacity:1;stroke:none;stroke-width:1.03520226;stroke-miterlimit:4;stroke-dasharray:none;stroke-opacity:1"
       d="M 220.50912,172.72429 A 133.91214,133.91214 0 0 1 86.596977,306.63643 133.91214,133.91214 0 0 1 -47.315163,172.72429 133.91214,133.91214 0 0 1 86.596977,38.812149 133.91214,133.91214 0 0 1 220.50912,172.72429 Z"
       id="path828" />
    <path
       style="fill:#000000;stroke-width:1.29901242"
       d="m 105.47871,305.13177 c 29.32835,-4.44701 51.95959,-15.4361 72.8057,-35.35235 13.67996,-13.06978 20.84119,-22.77087 28.57404,-38.70849 C 232.30615,178.62238 221.54582,117.242 179.82726,76.876392 156.94543,54.736603 131.95692,43.156989 99.006752,39.424375 70.843412,36.233984 38.749971,44.188458 12.599293,60.840727 2.6732033,67.161513 -18.693323,88.474704 -24.85405,98.200639 c -17.0853,26.972311 -24.983803,58.473081 -21.750796,86.746501 3.926349,34.33699 17.017399,61.20855 41.0673885,84.29747 30.3231425,29.11146 70.3558925,42.05247 111.0161675,35.88716 z M 94.807282,293.05392 c 3.350584,-4.25484 14.136948,-25.29353 16.351158,-31.89285 0.43205,-1.28716 5.03004,-4.29167 10.21812,-6.67665 9.88053,-4.54206 19.30736,-10.02618 30.21709,-17.57905 9.60732,-6.65126 13.04442,-9.67453 26.62978,-23.42411 18.7424,-18.96899 28.15091,-37.33797 29.56652,-57.72505 0.5788,-8.3359 0.95321,-9.70913 1.94805,-7.14458 2.12838,5.4866 2.74568,31.66667 1.00162,42.48176 -7.38402,45.78969 -39.65381,84.47795 -82.89469,99.38243 -8.70515,3.00053 -29.368668,7.28798 -35.790238,7.4261 -0.595884,0.0144 0.642771,-2.16879 2.75259,-4.848 z M 48.322135,291.56061 C 16.860325,281.3643 -5.5704042,262.76147 -23.514949,231.9828 c -13.222525,-22.67946 -18.431273,-55.23159 -13.352138,-83.44403 1.793888,-9.96404 9.273548,-30.45301 14.108872,-38.64834 l 2.69781,-4.57242 2.125622,7.646 c 2.436818,8.76512 4.472303,12.89595 12.6122738,25.59516 l 5.83580094,9.10445 -1.39084761,7.25741 c -5.83031513,30.42159 -0.94359743,63.78572 13.58162087,92.72813 9.901894,19.73024 26.423553,36.68729 42.80597,43.93398 3.19121,1.41163 5.802273,2.83155 5.802273,3.15534 0,0.93116 -1.269541,0.62064 -12.990173,-3.17787 z m 9.742627,-36.17526 C 51.656393,252.00737 45.316581,246.93662 36.59208,238.21109 14.69149,216.30785 3.9515221,192.72482 3.6429496,165.86067 c -0.075171,-6.5482 0.2710207,-12.3144 0.7694481,-12.81375 0.4983804,-0.49936 4.2980085,1.9862 8.4435693,5.5234 10.058947,8.58292 26.587102,20.25674 34.719352,24.52225 l 6.592405,3.45783 0.141381,11.19625 c 0.222414,17.61878 7.301494,49.46417 12.946604,58.23974 3.641701,5.66117 2.554212,5.59009 -9.190865,-0.60104 z M 116.03619,240.4439 c 2.41452,-10.42565 5.68341,-31.9375 7.06259,-46.4771 l 0.68126,-7.18197 7.51261,-3.43091 c 8.83383,-4.03426 22.92621,-14.38108 34.28664,-25.17377 l 8.09755,-7.69284 0.38099,9.38604 c 0.96936,23.87951 -11.61737,52.7033 -31.09302,71.20332 -8.73973,8.30189 -25.6447,20.08411 -28.81644,20.08411 -0.32699,0 0.52273,-4.82259 1.88777,-10.71688 z M 78.499079,193.6765 c -10.289452,-3.2987 -16.819343,-16.98214 -13.45794,-28.20137 5.525182,-18.44146 32.334533,-21.03405 41.343301,-3.99814 10.00024,18.91066 -7.240067,38.81823 -27.885361,32.19951 z m 5.480943,-60.63931 c -4.573485,-4.49346 -46.357794,-22.86412 -55.232637,-24.28326 -2.958895,-0.47328 -5.002838,-1.45856 -4.734191,-2.28235 0.978307,-2.99994 14.705991,-11.310222 22.920044,-13.875016 5.155054,-1.609587 13.933472,-2.943338 22.173147,-3.368853 15.928374,-0.822513 33.301145,2.176401 50.373035,8.695527 10.48368,4.003382 22.37162,10.725332 22.37162,12.649922 0,0.5841 -5.25852,2.66633 -11.68566,4.62724 -14.51343,4.42797 -32.355055,11.83341 -38.410573,15.94278 -5.071875,3.44187 -5.975343,3.66197 -7.774785,1.89401 z m 58.981918,-28.3486 C 134.75536,97.167 117.36007,85.661186 104.20987,79.056769 79.3377,66.565236 51.348843,62.312296 30.739822,67.892953 25.049285,69.433897 16.124031,72.784981 10.905999,75.339817 5.687919,77.894702 1.0601783,79.626631 0.62214122,79.188592 0.18420016,78.750651 0.54217772,78.392099 1.4178496,78.392099 c 0.875691,0 1.1750839,-0.674879 0.6653007,-1.499702 -0.5309255,-0.859042 -0.3603585,-1.149645 0.399158,-0.680233 1.4128543,0.873183 13.3645767,-7.787888 13.3645767,-9.68493 0,-0.61891 0.757853,-1.125244 1.684051,-1.125244 0.926261,0 5.456585,-2.086994 10.067388,-4.637706 5.674237,-3.139087 7.128131,-4.365126 4.49922,-3.794083 -2.136193,0.463963 -4.21249,1.375194 -4.614001,2.02479 -0.401603,0.649645 -4.206927,2.616551 -8.456589,4.370967 -4.249645,1.754415 -7.58045,3.807093 -7.401837,4.56146 0.178707,0.754369 -0.341711,1.371611 -1.155828,1.371611 -0.8143087,0 -2.1930495,0.974418 -3.0639259,2.165353 -0.8708131,1.190983 -2.9812264,2.321922 -4.6897464,2.513302 -2.71956089,0.304397 -2.62110685,0.123227 0.7906557,-1.457285 2.1433581,-0.99283 3.3676686,-1.831546 2.7207289,-1.863753 -1.7682554,-0.08788 6.1181597,-6.550263 7.9961117,-6.55208 0.89306,-8.84e-4 1.623772,-0.528966 1.623772,-1.173505 0,-0.644589 1.607508,-1.814019 3.572302,-2.598778 1.964742,-0.784759 5.618212,-2.667267 8.118815,-4.183418 2.500577,-1.516101 5.131118,-2.859136 5.845571,-2.98448 0.714444,-0.125194 2.468133,-0.852168 3.897039,-1.615079 4.317205,-2.304985 18.998852,-6.712921 27.193072,-8.164314 8.789951,-1.556899 30.510548,-1.802872 32.765599,-0.37117 0.826733,0.524892 -5.242529,0.847555 -13.487256,0.717057 -9.912203,-0.157117 -14.553828,0.199331 -13.701808,1.051205 0.708654,0.708659 9.262249,1.400036 19.007862,1.536329 9.745654,0.136486 17.719429,0.606784 17.719529,1.045511 9e-5,0.438922 2.65445,1.161477 5.8986,1.606145 9.28563,1.272729 31.54506,10.580843 42.49718,17.770785 5.49552,3.60776 13.68237,10.195975 18.19307,14.640537 8.09488,7.976217 19.98797,22.668019 19.00345,23.475309 -0.27887,0.2288 -7.81377,1.11464 -16.74448,1.96897 -8.93071,0.85432 -18.66051,1.88967 -21.62181,2.30071 -4.93363,0.6848 -5.85757,0.31325 -11.04161,-4.43788 z M 50.082772,51.885175 c 5.819044,-1.718625 12.187549,-3.483448 14.15229,-3.921783 3.797469,-0.847308 4.952772,-3.345586 1.547084,-3.345586 -1.113844,0 -1.639713,0.623626 -1.168639,1.385898 0.471319,0.762224 0.06732,1.251569 -0.897583,1.087391 -2.058557,-0.35055 -7.708061,0.973878 -14.09474,3.303656 -2.500649,0.912165 -5.277256,1.39822 -6.170363,1.080076 -0.893062,-0.318146 -1.623723,0.0098 -1.623723,0.73355 0,0.721622 -1.022973,1.579338 -2.273325,1.906076 -1.250279,0.326491 -1.773213,0.661869 -1.162107,0.744745 0.61116,0.08297 5.872153,-1.255448 11.691106,-2.974023 z m -72.473304,48.209365 c 0.488017,-1.281074 1.214203,-2.002063 1.614145,-1.602121 0.400133,0.400134 7.83e-4,1.448151 -0.886983,2.329331 -1.282893,1.27337 -1.432093,1.12417 -0.727162,-0.72721 z M -2.8091166,77.742602 c 0.4114243,-1.071679 1.3413166,-1.948495 2.06681556,-1.948495 0.76031556,0 0.63408176,0.825363 -0.29801766,1.948495 -0.8894286,1.07168 -1.8194641,1.948543 -2.0668146,1.948543 -0.2474465,0 -0.1133922,-0.876863 0.2980167,-1.948543 z M 134.70647,52.411881 c -1.71303,-0.736153 -1.93431,-1.140756 -0.6495,-1.18784 1.07167,-0.03927 2.82536,0.495236 3.89704,1.18784 2.37455,1.534513 0.32355,1.534513 -3.24754,0 z m -21.10896,-6.535534 c -3.87662,-1.558225 -3.71381,-2.348532 0.32502,-1.57649 1.78618,0.341221 3.24754,1.137225 3.24754,1.76836 0,0.631185 -0.14633,1.110564 -0.32502,1.065247 -0.17871,-0.04419 -1.63996,-0.611005 -3.24754,-1.257117 z m -12.01584,-2.557585 c -1.732022,-1.119303 -1.732022,-1.259229 0,-1.259229 1.07167,0 2.82536,0.566673 3.89704,1.259229 1.73202,1.119351 1.73202,1.259227 0,1.259227 -1.07168,0 -2.82537,-0.566621 -3.89704,-1.259227 z"
       id="path826"
       inkscape:connector-curvature="0"
       sodipodi:nodetypes="ccsscccsccccccscccscccsccccsccccsccccccsccscccsccccccsccccccccscccsccccscccsccsscccccscccccsccccccccccccccscccccsccccsccccccccscscccccccscccscsc" />
  </g>
</svg>
