<?xml version="1.0" encoding="UTF-8" standalone="no"?>
<!-- Created with Inkscape (http://www.inkscape.org/) -->

<svg
   xmlns:dc="http://purl.org/dc/elements/1.1/"
   xmlns:cc="http://creativecommons.org/ns#"
   xmlns:rdf="http://www.w3.org/1999/02/22-rdf-syntax-ns#"
   xmlns:svg="http://www.w3.org/2000/svg"
   xmlns="http://www.w3.org/2000/svg"
   xmlns:sodipodi="http://sodipodi.sourceforge.net/DTD/sodipodi-0.dtd"
   xmlns:inkscape="http://www.inkscape.org/namespaces/inkscape"
   width="259.20001mm"
   height="259.20001mm"
   viewBox="0 0 259.20001 259.20001"
   version="1.1"
   id="svg3072"
   inkscape:version="0.92.4 (5da689c313, 2019-01-14)"
   sodipodi:docname="wheel.svg">
  <defs
     id="defs3066" />
  <sodipodi:namedview
     id="base"
     pagecolor="#ffffff"
     bordercolor="#666666"
     borderopacity="1.0"
     inkscape:pageopacity="0.0"
     inkscape:pageshadow="2"
     inkscape:zoom="0.35"
     inkscape:cx="192.88791"
     inkscape:cy="560"
     inkscape:document-units="mm"
     inkscape:current-layer="layer1"
     showgrid="false"
     inkscape:window-width="1920"
     inkscape:window-height="1001"
     inkscape:window-x="-9"
     inkscape:window-y="-9"
     inkscape:window-maximized="1" />
  <metadata
     id="metadata3069">
    <rdf:RDF>
      <cc:Work
         rdf:about="">
        <dc:format>image/svg+xml</dc:format>
        <dc:type
           rdf:resource="http://purl.org/dc/dcmitype/StillImage" />
        <dc:title></dc:title>
      </cc:Work>
    </rdf:RDF>
  </metadata>
  <g
     inkscape:label="Layer 1"
     inkscape:groupmode="layer"
     id="layer1"
     transform="translate(0,-37.8)">
    <path
       inkscape:connector-curvature="0"
       style="fill:#525249;stroke-width:1.00038624"
       class="st0"
       d="M 258.7002,180.76551 259.2,156.33725 c 0,0 -28.78889,-2.00233 -29.28869,0 1.4994,-12.51448 -4.99809,-27.43178 -4.99809,-27.43178 l 25.39022,-14.91726 -13.89465,-19.923068 c 0,0 -25.39021,15.417868 -25.39021,13.916118 -2.99885,-9.410885 -17.89309,-20.423644 -17.89309,-20.423644 L 207.02013,63.629926 187.6276,50.214385 c 0,0 -16.39365,23.427117 -16.39365,24.428301 -4.49828,-4.505234 -26.88964,-6.006953 -26.88964,-6.006953 V 37.800028 h -24.8904 c 0,0 1.49942,30.335132 -3.49865,29.934643 -4.99807,-0.500573 -21.89155,6.507526 -21.89155,6.507526 L 77.670034,49.813934 58.777323,60.326121 c 0,0 12.895025,27.932312 11.395603,27.431739 -9.396373,3.504049 -19.892324,17.92074 -19.892324,17.92074 L 24.390589,92.763667 13.894638,110.18383 c 0,0 21.391749,19.42246 22.891171,17.92074 -3.99846,4.50519 -8.896569,24.92883 -8.896569,24.92883 L 0,153.53398 v 26.43059 c 0,0 32.287544,-1.50172 31.287927,0 -2.499034,11.91382 5.497882,26.43059 5.497882,26.43059 l -23.390976,13.91612 10.895795,21.42482 c 0,0 24.390589,-16.41902 24.890397,-12.91497 0.499809,3.50405 19.39252,20.92421 19.39252,20.92421 l -14.394447,24.42827 19.892324,12.91496 c 0,0 20.392133,-26.93116 18.892711,-27.93231 2.499035,6.00696 24.890397,8.50982 24.890397,8.50982 v 29.33395 h 21.89155 c 0,0 0,-28.43289 1.99923,-28.43289 18.8927,2.00233 26.88963,-5.50638 26.88963,-5.50638 l 15.39405,22.92655 20.89193,-10.51219 c 0,0 -11.49553,-23.82757 -13.19491,-24.92884 -0.10012,0 -0.10012,0 -0.19986,0.10028 0,-0.10028 0.10012,-0.10028 0.19986,-0.10028 9.3964,-2.20253 20.69204,-20.82409 20.69204,-20.82409 l 23.89078,13.91608 11.8954,-18.92188 c 0,0 -23.89078,-16.41902 -23.89078,-17.92074 5.49789,-9.91149 6.49749,-24.92887 6.49749,-24.92887 z m -128.35049,64.77497 c -40.784264,11.91378 -91.464711,-57.76687 -71.572387,-61.27092 16.393676,-20.42364 90.964887,44.35133 71.572387,61.27092 z m 0.49981,-69.28017 c -17.8931,0 -7.39715,-19.92306 -0.49981,-18.92192 19.99227,6.00695 5.49788,22.52609 0.49981,18.92192 z M 65.274817,130.50735 C 48.881141,112.58661 131.94909,73.741624 151.34162,91.161787 169.13474,105.0779 100.5612,153.43389 65.274817,130.50735 Z m 117.354733,92.10658 c -34.78657,-12.41435 -0.49983,-105.62225 14.89425,-94.10891 24.39058,12.41435 10.49593,95.61067 -14.89425,94.10891 z"
       id="path2514" />
  </g>
</svg>
