<?xml version="1.0" encoding="utf-8"?>
<!-- Generator: Adobe Illustrator 19.0.0, SVG Export Plug-In . SVG Version: 6.00 Build 0)  -->
<svg version="1.1" id="Layer_1" xmlns="http://www.w3.org/2000/svg" xmlns:xlink="http://www.w3.org/1999/xlink" x="0px" y="0px"
	 viewBox="27 151.8 184.8 259.2" style="enable-background:new 27 151.8 184.8 259.2;" xml:space="preserve">
<style type="text/css">
	.st0{fill:none;stroke:#000000;}
</style>
<path id="three" class="st0" d="M77.8,375.6l3.3-1.2l1.8,4c0,0,2.1-0.3,4-0.6c0.6-1.7,1.7-4,1.7-4l2.8,1l-1,4.2c0,0,1.9,0.7,3,2.3
	c2.1-0.8,4.1-1.8,4.1-1.8l2,2.8l-3.8,2.8c0,0,1.3,1.3,0.7,3.8c3,0.3,4.7,1,4.7,1l-0.3,3l-4.7-0.1c0,0-0.5,3-1.9,3.2
	c1.4,1.8,3,3.7,3,3.7l-2.3,2.6l-3.3-3.4c0,0-1.3,1.6-3.7,1.3c-0.1,2.5,0.1,4.9,0.1,4.9l-3.7,0.2l-0.3-4.9c0,0-2.3,0.1-3.7-1.5
	c-1.6,2.3-3,3.8-3,3.8l-2.6-2.1l2.3-3.3c0,0-2-2.2-1.8-3.5c-2.6,0.3-4.8,0.6-4.8,0.6l-0.7-3.3l4.7-1.1c0,0-0.8-1.7,0.1-3.9
	c-1.7-1.1-3.6-2.7-3.6-2.7l1.5-2.8l4.1,1.6c0,0,1.8-2.2,2.9-2.2C79,378.7,77.8,375.6,77.8,375.6z M77.8,386c0,0,1.5-3,3.6-3.5
	c-0.4,2,0.8,4.3,0.8,4.3C79.6,385.3,77.8,386,77.8,386z M89.5,388.2c0,0,1.5-0.9,2.2-3.2c0.2-1,2.4,1.6,1.8,4.6
	C91.5,387.8,89.5,388.2,89.5,388.2z M84.7,393.2c0,0-0.8,2.9,1.8,4.2c-1.3,0.8-5,0.3-5.5-1.3C83.3,395.8,84.7,393.2,84.7,393.2z
	 M87.4,381.3c-1.5-0.9-4.9,2.3-1.4,4.4C89.4,386.5,89.7,381.8,87.4,381.3z M83.7,389c0-1.3,3.1-2.3,3.2,0.4
	C87.1,391.6,83.5,391.7,83.7,389z M77.4,391.4c-1-2.3,3.5-4.3,4.4-0.7C82.2,394.3,76.9,393.6,77.4,391.4z M87.6,392.4
	c1.6-1.8,4.7-0.8,3.8,2.1C90.2,396.2,86.5,395.7,87.6,392.4z"/>
<path class="st0" d="M142.9,371.9l-4.6-1.2c0,0,0.5-2.6,0.2-4.1c2.1-0.7,3.4-1.1,4.2-1.3l-0.3-3.7l-4.8,0.4c0,0-0.4-2-1.4-3.6
	c2.2-1.7,3.6-3.1,3.6-3.1l-2.6-3.3l-3.7,2.6c0,0-1.7-2.7-2.9-3.3c1.1-2.1,1.9-4,1.9-4l-3-1.9l-3,3.5c0,0-1-0.4-3.6-1.1
	c-0.2-1.5-0.3-5.2-0.3-5.2l-3.5-0.5l-1.1,4.7c0,0-1.8-0.1-4.2,0.6c-0.8-2-2-4.7-2-4.7l-3.3,1.1l0.9,4.5c0,0-2.9,1.8-4,2.3
	c-1.3-1.1-3-3.4-3-3.4l-3.1,2.5l2.7,3.8l-2.4,3.3l-4.2-1.3l-1.6,3.2l3.7,2.4c0,0-0.5,1.1-0.7,3.5c-2.6,0.5-5,0.5-5,0.5l0.2,4.4h4.2
	c0,0,0.4,2.9,1.3,4.1c-2.3,1.3-4.2,2.3-4.2,2.3l1.2,3.5l4.5-1.3c0,0,1.1,2.3,2.3,3.2c-1.4,2-2.6,3.7-2.6,3.7l2.6,2.6l3.9-3.1
	c0,0,1.3,1.8,2.8,1.9c-0.3,1.8-1.1,4.9-1.1,4.9l3.7,1.4l2.2-4c0,0,2.1,1.1,3.5,0.2c0.7,2.3,0.7,4.6,0.7,4.6l4,0.2l0.5-5.5
	c0,0,1.5,0.7,4.1-0.5l2.4,3.9l3.4-1.8c0,0-0.6-1.4-1.8-4.7c2.6-1.3,3.1-2.1,3.1-2.1l4,2.3l1.8-2.8c0,0,0.3-0.6-3.2-3.8
	c1.8-2.3,1.6-3.6,1.6-3.6l4.8,0.4L142.9,371.9z M131.6,359.5c-2.1,5.4-7.6,5.4-7.6,5.4s-1.6-4.3-6.2-3.9c-3.7-7.6-5.4-8.5-5.4-8.5
	S122.6,347.3,131.6,359.5z M117.4,369.7c-2,0-2-3.1,0-3.1C119.4,366.6,119.4,369.7,117.4,369.7z M101.4,372.1c0,0-4.7-10.5,7.9-18.9
	c5.3,2.3,5,7.9,5,7.9s-4.4,1.4-4.3,6C102.4,370.5,101.4,372.1,101.4,372.1z M102.4,375.6c2.5-5.2,8-4.8,8-4.8s1.3,4.4,5.9,4.4
	c3.1,7.9,4.7,8.9,4.7,8.9S110.4,388.5,102.4,375.6z M125.3,382.8c-5.4-1-5-7.9-5-7.9s3.9-1.5,4.4-5.9c4.4-1.9,9.1-4.5,9.1-4.5
	S137.1,375.7,125.3,382.8z"/>
<path class="st0" d="M117.4,330.9l0.1-4.1c0,0-4.9-0.3-4.9,0c0.2-2.1-0.8-4.6-0.8-4.6l4.3-2.5l-2.3-3.4c0,0-4.3,2.6-4.3,2.3
	c-0.5-1.6-3-3.4-3-3.4l2.3-4l-3.3-2.3c0,0-2.8,3.9-2.8,4.1c-0.8-0.8-4.5-1-4.5-1v-5.2H94c0,0,0.3,5.1-0.6,5
	c-0.8-0.1-3.7,1.1-3.7,1.1l-2.8-4.1l-3.2,1.8c0,0,2.2,4.7,1.9,4.6c-1.6,0.6-3.4,3-3.4,3l-4.4-2.2l-1.8,2.9c0,0,3.6,3.3,3.9,3
	c-0.7,0.8-1.5,4.2-1.5,4.2l-4.7,0.1v4.4c0,0,5.4-0.3,5.3,0c-0.4,2,0.9,4.4,0.9,4.4l-3.9,2.3l1.8,3.6c0,0,4.1-2.8,4.2-2.2
	c0.1,0.6,3.3,3.5,3.3,3.5l-2.4,4.1l3.4,2.2c0,0,3.4-4.5,3.2-4.7c0.4,1,4.2,1.4,4.2,1.4v4.9h3.7c0,0,0-4.8,0.3-4.8
	c3.2,0.3,4.5-0.9,4.5-0.9l2.6,3.9l3.5-1.8c0,0-2.2-4.5-2.3-4.2c1.6-0.3,3.5-3.5,3.5-3.5l4,2.3l2-3.2c0,0-4-2.8-4-3
	c0.9-1.7,1.1-4.2,1.1-4.2L117.4,330.9z M95.8,341.8c-6.9,2-15.4-9.7-12.1-10.3C86.5,328.1,99.1,339,95.8,341.8z M95.6,330.3
	c-2.4,0-2.4-3.8,0-3.8C98,326.5,98,330.3,95.6,330.3z M104.6,338c-5.9-2.1-0.1-17.8,2.5-15.8C111.2,324.2,108.9,338.2,104.6,338z
	 M98.7,316.8c-1.3,7-15.6,9.4-14.7,6.1C82.2,318.9,97.6,312.6,98.7,316.8z"/>
<path id="mine" class="st0" d="M150.1,313.1l2.2-2.4l3.5,2.9c0,0,1.6-1,2.5-0.8c0,0,1-4.3,1-4.3l3.3,0.2l-0.8,5.1c0,0,1,0.4,2.3,1.5
	c0.1-0.2,3.9-1.7,3.9-1.7l1.4,3l-4.6,2.1c0,0,0,2-0.3,2.3c-0.2,0.3,3.2,3.1,3.2,3.1l-2.1,2.8l-3.6-3.1c0,0-1.2,0.8-2.4,0.7
	c0-0.1-0.8,4.6-0.8,4.6l-3.4-0.4l0.6-4.7c0,0-0.7,0-1.8-1.6c0-0.2-4.3,1.3-4.3,1.3l-1.1-3.3l4.4-1.4c0,0-0.1-2.3,0.2-2.3
	C153.8,316.5,150.1,313.1,150.1,313.1z"/>
<path id="ogears" class="st0" d="M110.6,268.8l2.3-1.8l3.9,3.2c0,0,2.2-1.7,3.4-1.8c0.2-0.2-0.8-5.2-0.8-5.2l3.8-0.9l1.5,3.9
	c0,0,4.2-0.3,4.8-0.5c0.6-0.2,0.6-4.1,0.6-4.1h4.2l0.7,4.8l3.7,0.8l2.4-3.9l3.5,1.6l-0.9,4l3,2.3l3.8-2.6l3.1,2.4l-2.9,3.8l2.3,3.2
	l4.5-1.4l2.3,3.1l-3.9,3.2l0.9,4.2l4.7-0.1l0.6,3.8l-4.4,0.9l-0.4,4.4l4.4,1.2l-0.3,4l-5-0.3l-1.6,3.8l3.5,3.5l-2.4,3.5l-4-2.5
	l-2.6,3.2l2,3.7l-2.9,2.9l-3.5-3.5l-3.5,2.1l0.4,4.6l-3.4,1.3l-2.3-4.4l-3.8,0.3l-1.2,5l-3.6-0.1l-0.4-4.8l-4.1-1.3l-2.9,4.1
	l-2.9-1.3l1.3-4.5l-3.3-2.3l-4.2,3.4l-2.9-3l2.7-3.5l-2.4-4l-4.3,1.8l-1.6-3.6l3.5-3l-1.2-3.5l-4.8-0.3l-0.3-3.5l4.4-0.9v-4.4
	l-4-2.2l0.4-3.2l4.6-0.2l1.8-3.2l-3.3-3.8l1.6-2.8l4.4,1.6l3-2.6L110.6,268.8z M105.4,291.9c0,0-0.7-9.8,8.5-18.4
	c2.9-2.6,10.1-6.6,18.3-6.3s18.7,7.3,21.3,14.6c3.9,11.1,2.9,17.1-1.5,24.7c-6.5,8-17.4,15.7-33.5,8.3
	C104.6,307.5,105.4,291.9,105.4,291.9z"/>
<path id="ninja" class="st0" d="M136.3,158.2c0,0-9.3-2.7-18.5,2.5c-0.8-1.3-1.4-3.1-1.4-3.1s-7.7,3.1-11.4,14.8
	c-2.1-0.9-3.3-1.8-3.3-1.8s-3.3,7,2.3,18.9c-1.7,0.7-3.3,1.3-3.3,1.3s2.7,7.6,14.8,11.4c-0.5,1.5-1.5,3.2-1.5,3.2s9.2,2.9,18.9-2.2
	c0.8,1.3,1.3,3.2,1.3,3.2s8-3.8,11-14.8c2.5,0.9,3.8,1.4,3.8,1.4s2.1-10.2-2.7-18.9c2.1-0.7,3.5-1.1,3.5-1.1s-4.4-8.8-15.1-11.4
	C135.1,160.4,136.3,158.2,136.3,158.2z M125.3,180.2c-2.2-0.1-2.3,3.5,0,3.1C127.3,183.8,127.5,180.4,125.3,180.2z M132.5,180.1
	c0,0,8.4-8.2,8.2-10.6c2.9,1.4,4,10.7,4,10.7s-4.6,5.2-12.2,2.6C132.5,181.3,132.5,180.1,132.5,180.1z M128,162.3
	c0,0,1.8,11.3,0.8,13.4c1.5,0.8,2.3,1.5,2.3,1.5s7.5-3.2,6.5-10.8C132.5,161.9,128,162.3,128,162.3z M113.8,166.2
	c0,0,3.2-3.4,9.1-4.1c5.3,3.8,3.4,12.2,3.4,12.2l-2.8,0.5C123.5,174.9,118.1,168.2,113.8,166.2z M110.7,169.2c0,0-3.9,2.6-4.8,9.8
	c3.8-1.3,13.3-0.8,13.3-0.8s0.6-2.3,1.4-2.2C121.5,176.2,116.1,169.3,110.7,169.2z M105.8,183.8c0,0,5-5.7,12.4-2.6
	c0.7,2.8,0,2.2,0,2.2s-8.3,8.6-8.2,10.4C107.2,192.6,105.8,183.8,105.8,183.8z M119.5,186.1l2.3,2.1c0,0-0.2,9.5,0.8,13.1
	c-3.3,0.8-9.6-4.1-9.6-4.1C111.8,191,119.5,186.1,119.5,186.1z M127.4,201.6c0,0,7.5-1.3,9-4.2c-6.3-5.5-8.7-8.4-8.7-8.4h-3.4
	C124.2,189,122.3,198.4,127.4,201.6z M140.4,194.1c0,0,4.3-5.4,4-9.5c-5.6,1.5-12.7,0.7-12.7,0.7l-1.8,2.5
	C129.9,187.9,134.4,195.9,140.4,194.1z"/>
<path class="st0" d="M119.8,242v-3.6l-4.7-0.9l-0.7-4.6l3.7-2.1l-1.4-3.4l-3.8,1.5l-3.2-3.4l2.5-3.9l-2.5-2.6l-3.5,3.1l-4-1.8
	l0.6-4.9l-3.5-1.2l-1.7,4.6L93,219l-1.5-4.9l-3.6,0.8l0.1,5.3l-3.6,1.6l-3.5-3.8l-2.7,2.6l2.1,3.5l-2.9,3.5l-4.3-1.8l-1.8,3.6
	l3.4,2.4l-0.5,4.4l-4.7,0.1l-0.1,4.3h4.4l1.3,4.5l-3.9,2.8l1.1,3.4l4-1.8l3,3.5l-2.5,4.4l2.5,2.2l3.5-3.5l4.2,2.4l-0.8,5.1l3.8,0.7
	l1.5-4.8l4.8,0.2l1.1,4.6l3.9-0.7l-0.3-5.2l4-1.5l3.1,3.4l2.9-2l-2.5-3.8l3.2-3.8l4.5,1.4l1.5-2.9l-3.6-2.6l0.9-4.2L119.8,242z
	 M94,221.1c8.5,0,8.5,13.2,0,13.2C85.5,234.3,85.5,221.1,94,221.1z M94.9,240.8c-2.6,0-2.6-4.1,0-4.1
	C97.5,236.8,97.5,240.8,94.9,240.8z M83.4,245.9c-8.5,0-8.5-13.2,0-13.2C91.9,232.7,91.9,245.9,83.4,245.9z M95.1,258
	c-8.5,0-8.5-13.2,0-13.2C103.7,244.8,103.6,258,95.1,258z M106,246.3c-8.5,0-8.5-13.2,0-13.2C114.5,233.1,114.5,246.3,106,246.3z"/>
<path class="st0" d="M143.9,248.2l4.7-1.1l-0.7-3.4c0,0-2.6,0.2-4.9,0.1c-0.5-1.8-1.9-3-1.9-3l3-4l-2.5-2.3c0,0-2.2,1.9-3.8,3.4
	c-0.9-0.7-3.5-1.3-3.5-1.3l-0.3-4.5l-3.4-0.2c0,0-0.2,3.7-0.3,4.6c-1.2,0.2-3.9,1.3-3.9,1.3l-2.9-3.4l-2.7,2.1c0,0,1.3,2.2,2.4,3.7
	c-1.4,0.4-2.2,3.6-2.2,3.6l-4.7-0.2l-0.5,3.4c0,0,3.2,0.8,4.6,0.9c-0.7,1,0.2,4.1,0.2,4.1l-3.7,2.5l1.7,3c0,0,2.2-1.1,4.2-1.8
	c0.2,1.2,3,2.8,3,2.8l-1.3,4.2l3.2,1.4c0,0,1.2-2.4,2.1-4.4c1.1,0.5,4.3-0.3,4.3-0.3l1.8,4.4l3.4-1.3c0,0-0.7-2.3-1-4.2
	c2.4-1.5,2.8-2.7,2.8-2.7l4.2,2l2.1-2.9c0,0-2.6-1.8-4.1-2.9C144,251.7,143.9,248.2,143.9,248.2z M132.2,246.5c2,0,2,3.1,0,3.1
	C130.2,249.6,130.2,246.5,132.2,246.5z M130.1,257.8c0,0,0.8-2.6,1.8-5.4c4.6-0.1,6.2-5.6,2.4-8.1c0.9-2.4,1.8-5.3,1.8-5.3
	C145.2,243.4,143.7,258.2,130.1,257.8z M133.8,238c0,0-0.8,2.6-1.9,5.4c-4.6,0-6.3,5.5-2.6,8c-1,2.4-2,5.2-2,5.2
	C118.4,252.1,120.3,237.3,133.8,238z"/>
<path id="plus" class="st0" d="M105.1,208.4c0,0,1.4-2.3,4.9-1.7c0.8-1.9,2.1-4.2,2.1-4.2l1.7,0.8l-2.1,4.1c0,0,2.5,1.8,1.9,4.6
	c2.9,1.5,4,2.5,4,2.5L117,216l-3.9-2.1c0,0-2,2.9-5.1,1.4c-1.2,2.6-2.2,4.3-2.2,4.3l-1.8-0.8l2.2-3.9c0,0-2.4-1.9-1.9-4.6
	c-1.7-1.3-3.7-2.3-3.7-2.3l0.8-1.8L105.1,208.4z M108.2,209.7c-1.9,0.3-1.2,4.1,1.5,2.9C112.2,211.2,109.1,208.4,108.2,209.7z"/>
<path id="oslices" class="st0" d="M110.4,285.9l15.3,5.4c0,0,0.5-0.1,0.8,1c0.2,1.2-0.3,1.6-0.3,1.6l-15.3,5.8c0,0-2.1,0.3-2.5-1.8
	c-0.4-2.1-0.4-9.6-0.4-9.6C108.9,285.9,110.4,285.9,110.4,285.9z M110.3,284.3l15.3,6.2c0,0,0.4,0.5,1.4-0.3c1-0.8,0.8-1.6,0.8-1.6
	l-8.8-14.5c0,0-1.6-0.9-3.2,0.7c-1.6,1.6-5.4,5.3-5.6,6.5C110.1,282,109.8,282.3,110.3,284.3z M120.6,274.3l7.8,13.7
	c0,0,0,0.5,0.8,0.5c0.8,0,1.8-0.2,2-0.9c0.2-0.7,2.6-15.7,2.6-15.7s0.2-2.4-2.9-2.6c-3.1-0.2-9.1,1.8-9.1,1.8
	S119.2,273.6,120.6,274.3z M134.8,271.9l-2.5,15.4c0,0-0.4,1.1,0.3,1.4c0.8,0.3,1.5,1.1,2.4,0.1c0.9-1.1,11.6-10.3,11.6-10.3
	s1.7-1.3-0.7-3.4c-2.3-2.1-8.1-4.5-8.1-4.5S135.1,270,134.8,271.9z M147.1,279.4L135,289.7c0,0-0.3,0.8-0.1,1.3
	c0.3,0.6-0.2,1.1,1,1.1c1.1,0,16.2-0.2,16.2-0.2s2.1-0.7,1.4-3.2c-0.7-2.6-1.3-6.7-3.7-8.5C148.2,278.5,147.4,279.3,147.1,279.4z
	 M152.2,293.2l-15.9-0.1c0,0-1,0-1.3,0.9c-0.2,0.8-0.7,1.3,0.5,2.3c1.2,1,11.8,9.5,11.8,9.5s1.2,1.1,2.9-0.3
	c1.6-1.4,4.2-9.5,3.6-10.4C153.1,294,154.5,293.7,152.2,293.2z M134.8,296.5c0,0-0.7-0.8-1.6,0c-0.9,0.8-1.2,0.2-0.9,2
	c0.3,1.8,3,15.8,3,15.8s0.9,1.1,3.3,0.5c2.4-0.6,6.8-3.3,8-5.1c1.2-1.8,0.8-2.5-0.1-3.3C145.4,305.6,134.8,296.5,134.8,296.5z
	 M131.2,298c0,0,0.3-1-1-0.9c-1.4,0-1.3-0.2-1.8,1.3S121,311,121,311s-1,1.9,1.3,2.9c2.3,1,5.9,2.3,9.6,1.8c3.7-0.5,1.6-4.3,1.6-4.3
	L131.2,298z M127.7,297.3c0,0,0.8-0.6-0.1-1.8c-0.9-1.2-1-1-2.5-0.4c-1.5,0.6-14.1,5.5-14.1,5.5s-1.6,0.7-0.6,3.8
	c1,3.1,5.4,5.9,6.2,6.6c0.8,0.7,2.2,0.8,2.9,0C120.2,310.2,127.7,297.3,127.7,297.3z"/>
</svg>
