<?xml version="1.0" encoding="UTF-8" standalone="no"?>
<!-- Generator: Adobe Illustrator 19.0.0, SVG Export Plug-In . SVG Version: 6.00 Build 0)  -->

<svg
   xmlns:dc="http://purl.org/dc/elements/1.1/"
   xmlns:cc="http://creativecommons.org/ns#"
   xmlns:rdf="http://www.w3.org/1999/02/22-rdf-syntax-ns#"
   xmlns:svg="http://www.w3.org/2000/svg"
   xmlns="http://www.w3.org/2000/svg"
   xmlns:sodipodi="http://sodipodi.sourceforge.net/DTD/sodipodi-0.dtd"
   xmlns:inkscape="http://www.inkscape.org/namespaces/inkscape"
   height="917"
   width="917"
   sodipodi:docname="kiwi.svg"
   xml:space="preserve"
   viewBox="0 0 917 917"
   y="0px"
   x="0px"
   id="Layer_1"
   version="1.1"
   inkscape:version="0.92.4 (5da689c313, 2019-01-14)"><metadata
   id="metadata57"><rdf:RDF><cc:Work
       rdf:about=""><dc:format>image/svg+xml</dc:format><dc:type
         rdf:resource="http://purl.org/dc/dcmitype/StillImage" /><dc:title /></cc:Work></rdf:RDF></metadata><defs
   id="defs55" /><sodipodi:namedview
   pagecolor="#ffffff"
   bordercolor="#666666"
   borderopacity="1"
   objecttolerance="10"
   gridtolerance="10"
   guidetolerance="10"
   inkscape:pageopacity="0"
   inkscape:pageshadow="2"
   inkscape:window-width="1920"
   inkscape:window-height="1001"
   id="namedview53"
   showgrid="false"
   fit-margin-top="0"
   fit-margin-left="0"
   fit-margin-right="0"
   fit-margin-bottom="0"
   inkscape:zoom="0.59599001"
   inkscape:cx="589.29913"
   inkscape:cy="423.40858"
   inkscape:window-x="-9"
   inkscape:window-y="-9"
   inkscape:window-maximized="1"
   inkscape:current-layer="XMLID_1326_" />
<g
   id="XMLID_1326_"
   transform="scale(3.275)">
	<path
   style="fill:#804c09;stroke-width:0.81680495"
   d="M 255.01769,139.58007 A 114.3527,114.3527 0 0 1 140.665,253.93277 114.3527,114.3527 0 0 1 26.312294,139.58007 114.3527,114.3527 0 0 1 140.665,25.227376 114.3527,114.3527 0 0 1 255.01769,139.58007 Z"
   id="XMLID_1327_"
   inkscape:connector-curvature="0" />
	<path
   inkscape:connector-curvature="0"
   style="fill:#804c09;fill-opacity:1;stroke:#804c09;stroke-width:1.08020341;stroke-opacity:1"
   class="st0"
   d="m 259.50894,133.51558 19.76769,-4.10477 -2.59248,-16.85119 -20.95599,0.43211 -4.10472,-18.687513 17.17523,-14.150701 -10.04588,-13.826582 -20.19982,6.373191 -10.04591,-14.15065 13.07049,-16.743149 -13.8266,-10.802061 -16.74317,11.558173 -13.39453,-10.477941 4.10481,-17.931393 -15.66298,-7.1293426 -10.80202,17.1752436 -16.4191,-3.348642 -3.02456,-21.2800055 h -18.68755 c 0,0 0,17.6073155 -2.59248,18.2554365 -2.5925,0.756142 -21.28001,2.268427 -21.28001,2.268427 L 106.55213,2.918989 89.808943,7.0237614 c 0,0 4.104782,22.0361376 3.348634,23.1163696 -5.617044,0.324161 -15.338876,7.885451 -15.338876,7.885451 L 60.643466,23.874923 50.165495,32.084497 58.375038,51.528158 44.980522,63.086329 25.53686,55.956982 18.40752,68.271301 32.990262,85.014453 24.780711,99.165108 4.2568463,99.921257 2.4204937,114.0719 20.351887,123.79374 v 19.44367 l -19.76772551,4.10478 1.51228171,15.66297 21.2800048,1.51226 5.184981,15.66294 -15.662953,13.39451 7.12934,16.09507 19.011576,-8.20958 10.802044,17.93142 -11.990253,15.66291 13.070452,13.39454 18.687543,-14.9068 14.582714,10.47797 -5.61703,20.19982 13.070452,5.94111 12.746396,-18.25547 18.25545,5.94117 1.83632,21.28001 16.09503,0.32414 5.185,-22.36017 16.74313,-1.5123 10.47798,19.76773 15.33886,-5.61707 -1.83633,-20.52387 15.66296,-9.28976 15.66294,15.66297 12.63837,-12.63841 -8.96568,-16.41906 11.55818,-14.15071 17.9314,11.23414 10.80202,-15.66296 -15.66296,-15.66295 7.12934,-16.74316 22.36023,1.08024 1.51226,-17.9314 -19.44365,-5.18498 z m -25.49282,68.37691 C 204.85063,237.32314 156.34949,271.67362 84.731989,238.83544 23.484465,205.56515 26.833096,136.54013 26.833096,136.54013 c 0,0 -3.02457,-43.640193 37.699081,-81.771361 13.070472,-11.558209 45.152533,-29.489574 81.339333,-27.977276 36.18682,1.512258 83.28367,32.514129 94.84189,64.920223 17.60728,49.365264 13.17843,76.262344 -6.69728,110.180774 z"
   id="path817" /><path
   id="XMLID_1328_"
   style="fill:#402604;stroke-width:0.81680495"
   d="m 140.665,253.93277 c -63.15537,0 -114.352706,-51.19733 -114.352706,-114.3527 0,-63.15454 51.197336,-114.352694 114.352706,-114.352694"
   inkscape:connector-curvature="0" />
	<path
   style="fill:#91dc5a;stroke-width:0.81680495"
   d="M 238.68159,139.58007 A 98.016601,98.016601 0 0 1 140.665,237.59667 98.016601,98.016601 0 0 1 42.648394,139.58007 98.016601,98.016601 0 0 1 140.665,41.563476 98.016601,98.016601 0 0 1 238.68159,139.58007 Z"
   id="XMLID_1329_"
   inkscape:connector-curvature="0" />
	<path
   id="XMLID_1330_"
   style="fill:#64c37d;stroke-width:0.81680495"
   d="m 140.665,237.59667 c -54.132942,0 -98.017423,-43.88285 -98.017423,-98.0166 0,-54.132928 43.884481,-98.016594 98.017423,-98.016594"
   inkscape:connector-curvature="0" />
	<path
   id="XMLID_1331_"
   style="fill:#c2fb3b;stroke-width:0.81680495"
   d="m 197.84135,123.24398 h -17.73774 l 12.54204,-12.54205 c 6.38169,-6.38088 6.38006,-16.722441 0,-23.101688 -6.37843,-6.380067 -16.72245,-6.381701 -23.1017,-0.0018 L 157.00109,100.14044 V 82.403725 c 0,-9.022427 -7.31367,-16.336099 -16.33609,-16.336099 -9.02244,0 -16.33611,7.313672 -16.33611,16.336099 V 100.14064 L 111.78603,87.598605 c -6.37924,-6.380064 -16.723255,-6.380064 -23.102507,0 -6.380064,6.380066 -6.380064,16.723265 0,23.102515 l 12.542047,12.54286 H 83.488643 c -9.022428,0 -16.3361,7.31367 -16.3361,16.33609 0,9.02162 7.312855,16.3361 16.3361,16.3361 h 17.736927 l -12.542047,12.54205 c -6.380064,6.38005 -6.380064,16.72244 0.000816,23.1025 6.379245,6.37925 16.723261,6.38089 23.102511,0 l 12.54204,-12.54204 v 17.73774 c 0,9.02324 7.31286,16.33611 16.33611,16.33611 9.0216,0 16.33609,-7.31287 16.33609,-16.33611 v -17.73855 l 12.54204,12.54204 c 6.38007,6.3817 16.72245,6.38006 23.1017,0 6.38007,-6.37925 6.38169,-16.72244 0,-23.10169 l -12.54204,-12.54205 17.73774,-0.00081 c 9.02406,0.00081 16.33609,-7.31286 16.33527,-16.33529 0.002,-9.02161 -7.31121,-16.33609 -16.33445,-16.33609 z"
   inkscape:connector-curvature="0" />
	<path
   id="XMLID_1332_"
   style="fill:#91dc5a;stroke-width:0.81680495"
   d="m 140.665,66.067626 c -9.02244,0 -16.33611,7.313672 -16.33611,16.336099 V 100.14064 L 111.78603,87.598605 c -6.37924,-6.380064 -16.723255,-6.380064 -23.102507,0 -6.380064,6.380066 -6.380064,16.723265 0,23.102515 l 12.542047,12.54286 H 83.488643 c -9.022428,0 -16.3361,7.31367 -16.3361,16.33609 0,9.02162 7.312855,16.3361 16.3361,16.3361 h 17.736927 l -12.542047,12.54205 c -6.380064,6.38005 -6.380064,16.72244 0.000816,23.1025 6.379245,6.37925 16.723261,6.38089 23.102511,0 l 12.54204,-12.54204 v 17.73774 c 0,9.02324 7.31286,16.33611 16.33611,16.33611 0,-33.48901 0,-95.97459 0,-147.024904 z"
   inkscape:connector-curvature="0" />
	<g
   id="XMLID_1333_"
   transform="matrix(0.81680498,0,0,0.81680498,26.312294,25.227376)">
		<path
   style="fill:#804c09"
   d="M 150,80 A 10,10 0 0 1 140,90 10,10 0 0 1 130,80 10,10 0 0 1 140,70 10,10 0 0 1 150,80 Z"
   id="XMLID_1334_"
   inkscape:connector-curvature="0" />
		<path
   d="M 107.573,97.572998 A 10,10 0 0 1 97.572998,107.573 a 10,10 0 0 1 -10,-10.000002 10,10 0 0 1 10,-10 10,10 0 0 1 10.000002,10 z"
   id="XMLID_26_"
   inkscape:connector-curvature="0" />
		<path
   d="m 89.999001,140 a 10,10 0 0 1 -10,10 10,10 0 0 1 -10,-10 10,10 0 0 1 10,-10 10,10 0 0 1 10,10 z"
   id="XMLID_25_"
   inkscape:connector-curvature="0" />
		<path
   d="m 107.573,182.427 a 10,10 0 0 1 -10.000002,10 10,10 0 0 1 -10,-10 10,10 0 0 1 10,-10 10,10 0 0 1 10.000002,10 z"
   id="XMLID_24_"
   inkscape:connector-curvature="0" />
		<path
   style="fill:#804c09"
   d="m 150,200 a 10,10 0 0 1 -10,10 10,10 0 0 1 -10,-10 10,10 0 0 1 10,-10 10,10 0 0 1 10,10 z"
   id="XMLID_23_"
   inkscape:connector-curvature="0" />
		<path
   id="XMLID_22_"
   d="m 140,210 c -5.523,0 -10,-4.475 -10,-10 0,-5.523 4.476,-10 10,-10"
   inkscape:connector-curvature="0" />
		<path
   style="fill:#804c09"
   d="m 192.427,182.42599 a 10,10 0 0 1 -10,10 10,10 0 0 1 -10,-10 10,10 0 0 1 10,-10 10,10 0 0 1 10,10 z"
   id="XMLID_21_"
   inkscape:connector-curvature="0" />
		<path
   style="fill:#804c09"
   d="m 210,140 a 10,10 0 0 1 -10,10 10,10 0 0 1 -10,-10 10,10 0 0 1 10,-10 10,10 0 0 1 10,10 z"
   id="XMLID_20_"
   inkscape:connector-curvature="0" />
		<path
   style="fill:#804c09"
   d="m 192.42599,97.572998 a 10,10 0 0 1 -10,10.000002 10,10 0 0 1 -10,-10.000002 10,10 0 0 1 10,-10 10,10 0 0 1 10,10 z"
   id="XMLID_19_"
   inkscape:connector-curvature="0" />
		<path
   id="XMLID_1335_"
   d="m 140,90 c -5.523,0 -10,-4.477 -10,-10 0,-5.523 4.477,-10 10,-10"
   inkscape:connector-curvature="0" />
	</g>
	<path
   style="fill:#fff6d2;stroke-width:0.81680495"
   d="m 173.33719,139.58007 a 32.6722,32.6722 0 0 1 -32.67219,32.6722 32.6722,32.6722 0 0 1 -32.6722,-32.6722 32.6722,32.6722 0 0 1 32.6722,-32.6722 32.6722,32.6722 0 0 1 32.67219,32.6722 z"
   id="XMLID_1336_"
   inkscape:connector-curvature="0" />
	<path
   id="XMLID_1337_"
   style="fill:#ffe98f;stroke-width:0.81680495"
   d="m 140.665,172.25227 c -18.04486,0 -32.6722,-14.62898 -32.6722,-32.6722 0,-18.04485 14.62734,-32.6722 32.6722,-32.6722"
   inkscape:connector-curvature="0" />
</g>
<g
   id="g22"
   transform="translate(0,637)">
</g>
<g
   id="g24"
   transform="translate(0,637)">
</g>
<g
   id="g26"
   transform="translate(0,637)">
</g>
<g
   id="g28"
   transform="translate(0,637)">
</g>
<g
   id="g30"
   transform="translate(0,637)">
</g>
<g
   id="g32"
   transform="translate(0,637)">
</g>
<g
   id="g34"
   transform="translate(0,637)">
</g>
<g
   id="g36"
   transform="translate(0,637)">
</g>
<g
   id="g38"
   transform="translate(0,637)">
</g>
<g
   id="g40"
   transform="translate(0,637)">
</g>
<g
   id="g42"
   transform="translate(0,637)">
</g>
<g
   id="g44"
   transform="translate(0,637)">
</g>
<g
   id="g46"
   transform="translate(0,637)">
</g>
<g
   id="g48"
   transform="translate(0,637)">
</g>
<g
   id="g50"
   transform="translate(0,637)">
</g>
</svg>
