<?xml version="1.0" encoding="UTF-8" standalone="no"?>
<!-- Created with Inkscape (http://www.inkscape.org/) -->

<svg
   xmlns:dc="http://purl.org/dc/elements/1.1/"
   xmlns:cc="http://creativecommons.org/ns#"
   xmlns:rdf="http://www.w3.org/1999/02/22-rdf-syntax-ns#"
   xmlns:svg="http://www.w3.org/2000/svg"
   xmlns="http://www.w3.org/2000/svg"
   xmlns:sodipodi="http://sodipodi.sourceforge.net/DTD/sodipodi-0.dtd"
   xmlns:inkscape="http://www.inkscape.org/namespaces/inkscape"
   width="259.20001mm"
   height="259.20001mm"
   viewBox="0 0 259.20001 259.20001"
   version="1.1"
   id="svg829"
   inkscape:version="0.92.4 (5da689c313, 2019-01-14)"
   sodipodi:docname="mine.svg">
  <defs
     id="defs823" />
  <sodipodi:namedview
     id="base"
     pagecolor="#ffffff"
     bordercolor="#666666"
     borderopacity="1.0"
     inkscape:pageopacity="0.0"
     inkscape:pageshadow="2"
     inkscape:zoom="0.35"
     inkscape:cx="348.57143"
     inkscape:cy="560"
     inkscape:document-units="mm"
     inkscape:current-layer="layer1"
     showgrid="false"
     inkscape:window-width="1920"
     inkscape:window-height="1001"
     inkscape:window-x="-9"
     inkscape:window-y="-9"
     inkscape:window-maximized="1" />
  <metadata
     id="metadata826">
    <rdf:RDF>
      <cc:Work
         rdf:about="">
        <dc:format>image/svg+xml</dc:format>
        <dc:type
           rdf:resource="http://purl.org/dc/dcmitype/StillImage" />
        <dc:title></dc:title>
      </cc:Work>
    </rdf:RDF>
  </metadata>
  <g
     inkscape:label="Layer 1"
     inkscape:groupmode="layer"
     id="layer1"
     transform="translate(0,-37.8)">
    <path
       inkscape:connector-curvature="0"
       style="fill:#525249;stroke-width:1.00174129"
       id="mine"
       class="st0"
       d="M 15.394048,95.723502 42.883473,64.904597 87.266349,102.04788 c 0,0 20.692001,-12.247222 31.787731,-9.536784 0,-0.50193 12.69508,-54.711068 12.69508,-54.711068 l 41.2841,2.710438 -10.59594,64.247894 c 0,0 12.69511,4.81859 29.5886,18.57164 0.9996,-2.61008 49.68082,-21.28212 49.68082,-21.28212 L 259.2,139.79353 201.52225,165.79381 c 0,0 0,25.49838 -3.19878,29.21272 -3.09877,3.71433 40.68433,39.35183 40.68433,39.35183 L 213.11779,269.89542 167.1355,230.0417 c 0,0 -15.39405,10.13911 -30.68813,9.03485 -0.49983,-1.00389 -10.59593,57.92348 -10.59593,57.92348 l -42.783471,-5.32056 7.397121,-59.42926 c 0,0 -8.996529,-0.50193 -22.191438,-20.78015 -0.499801,-2.61009 -54.478974,15.96156 -54.478974,15.96156 L 0,185.97167 54.978775,167.90196 c 0,0 -0.999602,-28.71075 3.098811,-29.21272 4.298348,-0.50193 -42.683538,-42.965738 -42.683538,-42.965738 z" />
  </g>
</svg>
