<?xml version="1.0" encoding="UTF-8" standalone="no"?>
<!-- Created with Inkscape (http://www.inkscape.org/) -->

<svg
   xmlns:dc="http://purl.org/dc/elements/1.1/"
   xmlns:cc="http://creativecommons.org/ns#"
   xmlns:rdf="http://www.w3.org/1999/02/22-rdf-syntax-ns#"
   xmlns:svg="http://www.w3.org/2000/svg"
   xmlns="http://www.w3.org/2000/svg"
   xmlns:sodipodi="http://sodipodi.sourceforge.net/DTD/sodipodi-0.dtd"
   xmlns:inkscape="http://www.inkscape.org/namespaces/inkscape"
   width="259.20001mm"
   height="259.20001mm"
   viewBox="0 0 259.20001 259.20001"
   version="1.1"
   id="svg5371"
   inkscape:version="0.92.4 (5da689c313, 2019-01-14)"
   sodipodi:docname="sharingan.svg">
  <defs
     id="defs5365" />
  <sodipodi:namedview
     id="base"
     pagecolor="#ffffff"
     bordercolor="#666666"
     borderopacity="1.0"
     inkscape:pageopacity="0.0"
     inkscape:pageshadow="2"
     inkscape:zoom="0.35"
     inkscape:cx="120"
     inkscape:cy="560"
     inkscape:document-units="mm"
     inkscape:current-layer="layer1"
     showgrid="false"
     inkscape:window-width="1920"
     inkscape:window-height="1001"
     inkscape:window-x="-9"
     inkscape:window-y="-9"
     inkscape:window-maximized="1" />
  <metadata
     id="metadata5368">
    <rdf:RDF>
      <cc:Work
         rdf:about="">
        <dc:format>image/svg+xml</dc:format>
        <dc:type
           rdf:resource="http://purl.org/dc/dcmitype/StillImage" />
        <dc:title></dc:title>
      </cc:Work>
    </rdf:RDF>
  </metadata>
  <g
     inkscape:label="Layer 1"
     inkscape:groupmode="layer"
     id="layer1"
     transform="translate(0,-37.8)">
    <g
       transform="matrix(1.0160721,0,0,1.0058207,354.71078,-115.68821)"
       id="g4803">
      <path
         style="fill:#525249"
         inkscape:connector-curvature="0"
         d="m -115.9,274.7 c 10.4,-3.3 17,-5.4 20.9,-6.6 l -1.6,-18.5 -23.8,2.1 c 0,0 -2.1,-10 -7.1,-18 10.9,-8.4 18,-15.5 18,-15.5 l -13,-16.3 -18.4,13 c 0,0 -8.4,-13.4 -14.2,-16.3 5.4,-10.4 9.6,-20.1 9.6,-20.1 l -15.1,-9.6 -15.1,17.6 c 0,0 -5,-2.1 -18,-5.4 -0.8,-7.5 -1.3,-26 -1.3,-26 l -17.6,-2.5 -5.5,23.4 c 0,0 -9.2,-0.4 -20.9,2.9 -4.2,-10.1 -10,-23.4 -10,-23.4 l -16.3,5.4 4.6,22.6 c 0,0 -14.2,8.8 -20.1,11.7 -6.3,-5.5 -15.1,-17.2 -15.1,-17.2 l -15.5,12.6 13.4,18.8 -12.2,16.3 -20.9,-6.7 -7.9,16 18.4,12.1 c 0,0 -2.5,5.5 -3.4,17.6 -13,2.5 -25.1,2.5 -25.1,2.5 l 0.8,21.8 h 20.9 c 0,0 2.1,14.2 6.7,20.5 -11.3,6.7 -20.9,11.3 -20.9,11.3 l 5.8,17.6 22.6,-6.3 c 0,0 5.5,11.7 11.7,15.9 -7.1,10.1 -13,18.4 -13,18.4 l 13,13 19.7,-15.5 c 0,0 6.7,8.8 13.8,9.6 -1.7,8.8 -5.5,24.7 -5.5,24.7 l 18.4,7.1 10.9,-20.1 c 0,0 10.5,5.5 17.6,0.9 3.3,11.7 3.3,23 3.3,23 l 20.1,1.2 2.5,-27.2 c 0,0 7.5,3.4 20.5,-2.5 l 12.1,19.3 16.8,-9.2 c 0,0 -2.9,-7.1 -9.2,-23.4 13,-6.7 15.5,-10.5 15.5,-10.5 l 20.1,11.7 9.2,-13.8 c 0,0 1.3,-2.9 -15.9,-18.8 8.8,-11.7 8,-18 8,-18 l 23.8,2.1 5.8,-18.8 -23,-5.9 c 0.2,-0.1 2.7,-13 1.1,-20.6 z m -32.5,-28.4 c -5.7,26.6 -39.9,24.1 -39.9,24.1 0,0 -7,-19.9 -28.7,-22.5 -9.1,-22 -21.4,-45.7 -21.4,-45.7 0,0 56.3,-15.4 90,44.1 z m -73.4,43.5 c -14.2,-6.3 -3.8,-18.8 0.8,-16.3 11.3,-2.1 11.7,17.1 -0.8,16.3 z m -83.1,12.3 c 0,0 -21.9,-53.1 42.4,-93 26,12.5 24,40.1 24,40.1 0,0 -22.2,6.4 -22.1,29.4 -39.3,15.5 -44.3,23.5 -44.3,23.5 z m 9,17 c 12.5,-26 40.2,-23.9 40.2,-23.9 0,0 6.3,22.2 29.3,22.2 15.5,39.3 23.4,44.3 23.4,44.3 0,0 -53.1,21.8 -92.9,-42.6 z m 114.2,35.9 c -26.8,-5 -25.1,-39.3 -25.1,-39.3 0,0 19.7,-7.5 21.8,-29.3 21.7,-9.6 45.2,-22.6 45.2,-22.6 0,0 16.7,56.1 -41.9,91.2 z"
         id="path4801" />
    </g>
  </g>
</svg>
