<?xml version="1.0" encoding="UTF-8" standalone="no"?>
<!-- Created with Inkscape (http://www.inkscape.org/) -->

<svg
   xmlns:dc="http://purl.org/dc/elements/1.1/"
   xmlns:cc="http://creativecommons.org/ns#"
   xmlns:rdf="http://www.w3.org/1999/02/22-rdf-syntax-ns#"
   xmlns:svg="http://www.w3.org/2000/svg"
   xmlns="http://www.w3.org/2000/svg"
   xmlns:sodipodi="http://sodipodi.sourceforge.net/DTD/sodipodi-0.dtd"
   xmlns:inkscape="http://www.inkscape.org/namespaces/inkscape"
   width="259.20001mm"
   height="259.20001mm"
   viewBox="0 0 259.20001 259.20001"
   version="1.1"
   id="svg4199"
   inkscape:version="0.92.4 (5da689c313, 2019-01-14)"
   sodipodi:docname="three.svg">
  <defs
     id="defs4193" />
  <sodipodi:namedview
     id="base"
     pagecolor="#ffffff"
     bordercolor="#666666"
     borderopacity="1.0"
     inkscape:pageopacity="0.0"
     inkscape:pageshadow="2"
     inkscape:zoom="0.35"
     inkscape:cx="-108.57143"
     inkscape:cy="560"
     inkscape:document-units="mm"
     inkscape:current-layer="layer1"
     showgrid="false"
     inkscape:window-width="1920"
     inkscape:window-height="1001"
     inkscape:window-x="-9"
     inkscape:window-y="-9"
     inkscape:window-maximized="1" />
  <metadata
     id="metadata4196">
    <rdf:RDF>
      <cc:Work
         rdf:about="">
        <dc:format>image/svg+xml</dc:format>
        <dc:type
           rdf:resource="http://purl.org/dc/dcmitype/StillImage" />
        <dc:title></dc:title>
      </cc:Work>
    </rdf:RDF>
  </metadata>
  <g
     inkscape:label="Layer 1"
     inkscape:groupmode="layer"
     id="layer1"
     transform="translate(0,-37.8)">
    <path
       inkscape:connector-curvature="0"
       style="fill:#525249;stroke-width:0.99980712"
       class="st0"
       d="m 217.70003,194.03977 38.69998,0.69969 2.79999,-24.89037 c 0,0 -13.8,-5.59786 -38.69998,-8.2968 4.8,-20.69203 -5.60002,-31.088 -5.60002,-31.088 L 246,107.67309 229.40001,84.881882 c 0,0 -16.59999,7.597056 -33.89998,14.494376 -9,-13.094941 -24.90002,-18.692756 -24.90002,-18.692756 l 8.3,-34.586681 -22.8,-8.296793 c 0,0 -9,19.392531 -13.8,33.187208 -15.9,1.999204 -33.2,4.798149 -33.2,4.798149 L 93.900005,42.598177 66.900004,52.294442 c 0,0 10.400002,25.590114 12.600001,37.385589 -9.000001,0 -23.5,17.893089 -23.5,17.893089 L 22.100003,94.478179 9.6999993,117.26939 c 0,0 15.9000007,13.09494 29.7000017,22.09147 -7.599999,17.99305 -0.699999,31.78773 -0.699999,31.78773 L 0,180.14512 5.4999991,207.13471 c 0,0 18.0000009,-2.09921 39.4000049,-4.89812 -1.400001,10.99577 15.199998,28.98883 15.199998,28.98883 l -19.399998,26.98959 21.4,17.29332 c 0,0 11.799999,-11.69551 24.900001,-31.088 11.000002,13.19491 30.400005,12.49517 30.400005,12.49517 l 2.8,40.08453 30.4,-2.09921 c 0,0 -1.4,-20.09223 -0.7,-40.78426 19.3,2.79894 30.4,-10.39597 30.4,-10.39597 l 27.00001,28.38902 19.40001,-21.39173 c 0,0 -13.2,-15.19415 -24.90002,-30.38826 11.79999,-1.29951 15.90002,-26.28985 15.90002,-26.28985 z M 146.40001,98.676559 c 18.7,4.198381 15.9,42.883431 -11.7,35.886151 -29.1,-16.49366 -0.7,-43.483245 11.7,-35.886151 z M 96.600006,109.07252 c -3.500002,16.59363 6.900004,35.18645 6.900004,35.18645 -21.400004,-12.39524 -36.600006,-6.19762 -36.600006,-6.19762 0,0 12.399999,-24.89041 29.700002,-28.98883 z m -32.500001,73.27174 c -8.300002,-18.69279 28.999999,-35.18641 36.000005,-5.49789 3.49999,28.98883 -40.100007,23.39098 -36.000005,5.49789 z m 29.100002,37.98536 c 19.300003,-1.39948 30.400003,-23.49095 30.400003,-23.49095 0,0 -6.2,23.49095 15.2,34.58665 -10.4,6.19762 -41.500006,2.79894 -45.600003,-11.0957 z m 22.800003,-58.07759 c 0,-11.09574 25.6,-18.69279 26.3,3.49864 1.3,17.89309 -28.3,19.29257 -26.3,-3.49864 z m 62.9,45.68234 c -9.7,13.79468 -40.1,9.5963 -31.1,-17.29332 13.2,-15.19411 38.70002,-6.89732 31.1,17.29332 z m 17.20002,-40.18449 c -16.50002,-15.19411 -32.40002,-11.69547 -32.40002,-11.69547 0,0 12.4,-7.59706 17.90001,-26.28985 C 183,121.46777 201.7,142.95947 196.10003,167.74988 Z"
       id="path3632" />
  </g>
</svg>
